<svg width="16" height="19" viewBox="0 0 16 19" fill="none" xmlns="http://www.w3.org/2000/svg">
<path d="M8 19C5.78333 19 3.89583 18.2292 2.3375 16.6875C0.779167 15.1458 0 13.2833 0 11.1C0 10 0.208333 8.98333 0.625 8.05C1.04167 7.11667 1.61667 6.28333 2.35 5.55L8 0L13.65 5.55C14.3833 6.28333 14.9583 7.11667 15.375 8.05C15.7917 8.98333 16 10 16 11.1C16 13.2833 15.2208 15.1458 13.6625 16.6875C12.1042 18.2292 10.2167 19 8 19ZM8 17V2.8L3.75 7C3.16667 7.55 2.72917 8.17083 2.4375 8.8625C2.14583 9.55417 2 10.3 2 11.1C2 12.7167 2.58333 14.1042 3.75 15.2625C4.91667 16.4208 6.33333 17 8 17Z" fill="#1CA461"/>
</svg>
