<svg width="24" height="24" viewBox="0 0 24 24" fill="none" xmlns="http://www.w3.org/2000/svg">
<path d="M20.3027 2.98406C20.0138 2.99663 19.7486 3.07974 19.5156 3.17156C19.3004 3.25632 18.5275 3.58116 17.2969 4.09734C16.0662 4.61353 14.4355 5.29792 12.6973 6.02898C9.22084 7.49111 5.31424 9.13581 3.3125 9.9782C3.24376 10.0068 2.96459 10.0923 2.65625 10.3278C2.3472 10.5639 2.00391 11.0761 2.00391 11.6364C2.00391 12.0884 2.22952 12.5487 2.50195 12.8122C2.77439 13.0757 3.05049 13.1989 3.28125 13.2907V13.2887C4.06128 13.5995 6.39069 14.5316 6.94531 14.7536C7.14204 15.3431 7.98659 17.867 8.1875 18.5016H8.18555C8.32756 18.9508 8.46598 19.2436 8.6582 19.488C8.75431 19.6102 8.86904 19.7209 9.00977 19.8083C9.06376 19.8418 9.12355 19.8678 9.18359 19.8923C9.19196 19.8958 9.20059 19.8967 9.20898 19.9001L9.18555 19.8942C9.20296 19.9012 9.21858 19.9115 9.23633 19.9177C9.26524 19.9276 9.28529 19.9273 9.32422 19.9352C9.46122 19.9774 9.59798 20.0055 9.72461 20.0055C10.2682 20.0055 10.6016 19.7106 10.6016 19.7106L10.623 19.695L12.9707 17.7087L15.8457 20.3688C15.8982 20.443 16.3096 20.9997 17.2617 20.9997C17.8298 20.9997 18.279 20.7185 18.5664 20.4235C18.8538 20.1286 19.0328 19.8267 19.1133 19.4177L19.1152 19.4157C19.1794 19.0855 21.9316 5.26531 21.9316 5.26531L21.9258 5.28875C22.0114 4.9064 22.0367 4.53665 21.9355 4.15984C21.8344 3.78304 21.5613 3.41531 21.2324 3.22234C20.9036 3.02937 20.5917 2.97149 20.3027 2.98406ZM19.9082 5.17351C19.7994 5.71954 17.334 18.1056 17.1816 18.8825L13.0293 15.0407L10.2227 17.4137L11 14.3747C11 14.3747 16.3625 8.94655 16.6855 8.63055C16.9455 8.37755 17 8.28886 17 8.20086C17 8.08386 16.9398 7.99969 16.8008 7.99969C16.6758 7.99969 16.506 8.11947 16.416 8.17547C15.2724 8.88847 10.4013 11.6644 8.00586 13.027C7.8617 12.9692 5.6974 12.1001 4.53125 11.6345C6.60551 10.7615 10.1612 9.26549 13.4727 7.87273C15.2106 7.14179 16.8408 6.45678 18.0703 5.94109C19.1082 5.50578 19.6495 5.28039 19.9082 5.17351ZM17.1523 19.0251H17.1543L17.1523 19.0309C17.1536 19.0245 17.1514 19.0301 17.1523 19.0251Z" fill="#006EA0"/>
</svg>
