<?xml version="1.0" encoding="UTF-8" standalone="no"?>
<svg
   width="124"
   height="124"
   viewBox="0 0 32.808329 32.808331"
   id="svg9"
   xmlns="http://www.w3.org/2000/svg">
  <defs
     id="defs1312" />
  <g
     id="layer1"
     transform="matrix(0.52173911,0,0,0.52173911,0.25307946,0.25306444)">
    <g
       id="g1686"
       transform="matrix(0.35265654,0,0,-0.35265654,-73.880059,205.27796)">
      <path
         d="m 345.1473,573.9979 c 8.7857,8.786 23.0307,8.786 31.8166,0 8.7857,-8.7857 8.7857,-23.0307 0,-31.8166 l -52.4732,-52.473 c 1.4309,8.5065 -1.1356,17.5549 -7.6986,24.118 l -15.9084,15.9083 z"
         style="fill:#00a390;fill-opacity:1;fill-rule:nonzero;stroke:none"
         id="path1688" />
      <path
         d="m 313.1844,510.2184 c 8.7857,-8.7857 8.7857,-23.0307 0,-31.8167 -8.786,-8.7857 -23.0309,-8.7857 -31.8166,0 l -20.2689,20.2689 v 59.419 c 0,1.567 -0.1326,3.1019 -0.3835,4.5978 z"
         style="fill:#1ca461;fill-opacity:1;fill-rule:nonzero;stroke:none"
         id="path1690" />
      <path
         d="m 383.5556,430.5305 c 0,-12.4262 -10.0737,-22.5 -22.5,-22.5 -12.4265,0 -22.5003,10.0738 -22.5003,22.5 v 66.0269 l 42.0163,42.0162 c 1.1098,1.1098 2.1027,2.2913 2.984,3.5283 z"
         style="fill:#00abbe;fill-opacity:1;fill-rule:nonzero;stroke:none"
         id="path1692" />
      <path
         d="m 233.4966,438.1838 c 4.2273,0 7.6535,-3.4263 7.6535,-7.6536 0,-4.2273 -3.4262,-7.6535 -7.6535,-7.6535 -4.2273,0 -7.6536,3.4262 -7.6536,7.6535 0,4.2273 3.4263,7.6536 7.6536,7.6536 z m -22.5003,119.9058 c 0,12.4265 10.0737,22.5003 22.5003,22.5003 12.4262,0 22.5,-10.0738 22.5,-22.5003 V 430.5305 c 0,-12.4262 -10.0738,-22.5 -22.5,-22.5 -12.4266,0 -22.5003,10.0738 -22.5003,22.5 z"
         style="fill:#41a240;fill-opacity:1;fill-rule:evenodd;stroke:none"
         id="path1694" />
    </g>
  </g>
</svg>
