<?xml version="1.0" encoding="UTF-8" standalone="no"?>
<svg
   width="204"
   height="274"
   viewBox="0 0 53.974997 72.495834"
   xmlns="http://www.w3.org/2000/svg">
  <defs
     id="defs1312" />
  <g
     id="layer1">
    <g
       id="g1554">
      <path
         id="path848"
         style="fill:#41a240;fill-opacity:1;fill-rule:evenodd;stroke:none;stroke-width:1.33099"
         d="M 21.964844 82.033203 C 16.85535 82.033203 11.745998 83.982517 7.8476562 87.880859 C 0.050972761 95.677541 0.050972761 108.31855 7.8476562 116.11523 L 87.882812 196.15039 C 89.186781 197.45438 90.62852 198.53454 92.158203 199.40234 C 91.85868 201.50418 91.724609 203.62315 91.724609 205.65234 C 91.724609 209.14778 92.113951 212.79376 93.03125 216.20508 L 87.978516 221.25977 C 86.072424 223.16586 85.021484 225.69871 85.021484 228.39453 L 85.021484 263.66797 C 85.021484 265.41226 85.701242 267.05081 86.939453 268.28906 C 88.17173 269.52126 89.810586 270.20117 91.554688 270.20117 L 112.44531 270.20117 C 114.18945 270.20117 115.82816 269.52179 117.06641 268.2832 C 118.29861 267.05096 118.97852 265.41226 118.97852 263.66797 L 118.97852 228.39453 C 118.97852 225.69871 117.9272 223.16586 116.02148 221.25977 L 111.25977 216.49609 C 110.91712 217.7259 110.50349 218.91915 110.01172 220.05078 L 113.62109 223.66016 C 114.89033 224.9294 115.58203 226.59967 115.58203 228.39453 L 115.58203 263.66797 C 115.58203 264.51092 115.26201 265.28678 114.66602 265.88281 C 114.06688 266.48164 113.29223 266.80469 112.44531 266.80469 L 91.554688 266.80469 C 90.711927 266.80469 89.935913 266.48493 89.339844 265.88867 C 88.741053 265.28984 88.417969 264.515 88.417969 263.66797 L 88.417969 228.39453 C 88.417969 226.59967 89.109665 224.9294 90.378906 223.66016 L 100.4375 213.60156 C 100.86742 213.17166 101.4334 212.95703 102 212.95703 C 102.5666 212.95703 103.13258 213.17166 103.5625 213.60156 L 107.4043 217.44336 C 107.83916 216.24469 108.18302 214.98115 108.45312 213.69141 L 105.96484 211.20117 C 103.7796 209.01638 100.21995 209.01638 98.035156 211.20117 L 95.853516 213.38281 C 95.343433 210.84439 95.121094 208.21539 95.121094 205.65234 C 95.121094 204.10026 95.203924 202.48848 95.388672 200.87695 C 99.777809 202.41318 104.59725 202.369 108.96289 200.74805 C 108.62256 197.85908 107.9537 194.95332 106.83203 192.43555 C 106.31358 191.27186 105.3572 189.48136 104.10352 188.46289 C 101.75072 189.22968 99.069129 188.70594 97.199219 186.83594 C 94.546417 184.18367 94.546417 179.88274 97.199219 177.23047 C 98.525353 175.90427 100.26211 175.24219 102 175.24219 C 103.73789 175.24219 105.47653 175.90427 106.80273 177.23047 C 109.37245 179.80019 109.42928 183.90425 107.01953 186.57031 C 108.27751 187.86511 109.24387 189.52624 109.92578 191.05664 C 111.03353 193.54302 111.75451 196.34092 112.17383 199.16797 C 113.57428 198.33549 114.91239 197.35519 116.11719 196.15039 C 123.91387 188.35371 123.91387 175.7127 116.11719 167.91602 L 36.082031 87.880859 C 32.18349 83.982517 27.074338 82.033203 21.964844 82.033203 z "
         transform="scale(0.26458333)" />
      <path
         d="m 21.705621,5.8109804 c 0,-2.9170674 2.364813,-5.28180984 5.28188,-5.28180984 2.917067,0 5.28181,2.36474244 5.28181,5.28180984 V 23.233022 c -1.174624,-1.649685 -3.102831,-2.72581 -5.28181,-2.72581 h -5.28188 z"
         style="fill:#00a390;fill-opacity:1;fill-rule:nonzero;stroke:none;stroke-width:0.352158"
         id="path854" />
      <path
         d="m 26.987501,21.705113 c 2.917067,0 5.28181,2.364743 5.28181,5.28181 0,2.917068 -2.364743,5.28181 -5.28181,5.28181 H 20.257933 L 10.393806,22.404676 C 10.133666,22.144536 9.8568347,21.91176 9.5668677,21.705113 Z"
         style="fill:#1ca461;fill-opacity:1;fill-rule:nonzero;stroke:none;stroke-width:0.352158"
         id="path856" />
      <path
         d="m 51.89868,23.251687 c 2.062873,2.062872 2.062873,5.4076 0,7.470473 -2.062872,2.062872 -5.407565,2.062872 -7.470438,0 L 33.467212,19.76113 V 5.8109804 c 0,-0.3684631 -0.03134,-0.7294253 -0.09033,-1.0810905 z"
         style="fill:#00abbe;fill-opacity:1;fill-rule:nonzero;stroke:none;stroke-width:0.352158"
         id="path858" />
      <path
         d="m 25.716349,58.674566 c -0.70076,0.70066 -0.70076,1.84165 0,2.54234 0.70055,0.70077 1.84165,0.70066 2.54241,0 0.70057,-0.70069 0.70057,-1.84175 0,-2.54234 -0.70076,-0.70075 -1.84175,-0.70075 -2.54241,0 z m 0.63529,0.63531 c 0.35008,-0.35009 0.92178,-0.35009 1.27185,0 0.34998,0.34997 0.34998,0.92176 0,1.27174 -0.35007,0.35008 -0.92177,0.35008 -1.27185,0 -0.35011,-0.35007 -0.35011,-0.92167 0,-1.27174"
         style="fill:#41a240;fill-opacity:1;fill-rule:nonzero;stroke:none;stroke-width:0.352158"
         id="path926" />
    </g>
  </g>
</svg>
