<svg width="158" height="43" viewBox="0 0 158 43" xmlns="http://www.w3.org/2000/svg">
  <g>
    <g>
      <path
         d="m 32.550328,2.5504 c 2.066008,-2.06644 5.416408,-2.06644 7.48284,0 2.066432,2.066 2.066432,5.4164 0,7.48272 L 27.692012,22.37396 c 0.33668,-2.0008 -0.26684,-4.12876 -1.810452,-5.67236 l -3.741564,-3.74128 z"
         style="fill:#00a390;"/>
      <path
         d="m 25.0332,17.55036 c 2.066008,2.06604 2.066008,5.41644 0,7.48284 -2.066432,2.06604 -5.416832,2.06604 -7.483264,0 L 12.7832,20.26592 V 6.29156 c 0,-0.3684 -0.0312,-0.72956 -0.09004,-1.0812 z"
         style="fill:#1ca461;"/>
      <path
         d="m 41.583132,36.29164 c 0,2.92224 -2.369256,5.29152 -5.291524,5.29152 -2.922412,0 -5.291668,-2.36928 -5.291668,-5.29152 V 20.7632 l 9.881588,-9.8816 c 0.26076,-0.2612 0.494452,-0.53888 0.701604,-0.83 z"
         style="fill:#00abbe;"/>
      <path
         d="M 1,6.29156 C 1,3.36912 3.369116,1 6.291528,1 c 2.922408,0 5.291664,2.36912 5.291664,5.29156 v 30.00008 c 0,2.92224 -2.369256,5.29152 -5.291664,5.29152 C 3.369116,41.58316 1,39.21388 1,36.29164 Z"
         style="fill:#41a240;"/>
    </g>
    <path
       d="m 47.854392,18.21516 c 0,-2.8448 4.4196,-2.8956 4.4196,0 v 16.002 c 0,1.27 1.1176,2.9464 2.6924,2.9464 h 2.6924 v -18.9484 c 0,-2.9972 4.4196,-2.6416 4.4196,0 v 21.082 c 0,1.2192 -0.9144,2.286 -2.0828,2.286 h -5.0292 c -3.7084,0 -7.112,-3.3528 -7.112,-7.366 z m 18.796,4.7244 c 0,-3.9116 2.9972,-7.1628 7.1628,-7.1628 h 2.794 v -6.6548 c 0,-2.8956 4.3688,-2.9464 4.3688,0 v 25.2984 c 0,3.7084 -3.1496,7.1628 -7.1628,7.1628 -3.9624,0 -7.1628,-3.2004 -7.1628,-7.1628 z m 4.4196,11.4808 c 0,1.3716 0.9652,2.794 2.7432,2.794 1.4732,0 2.794,-1.3208 2.794,-2.794 v -14.2748 h -2.794 c -1.6764,0 -2.7432,1.1176 -2.7432,2.794 z m 14.478,-24.7904 c 0,-3.2004 4.3688,-3.1496 4.3688,0 v 6.5024 h 2.6924 c 4.064008,0 7.061208,3.048 7.061208,7.112 v 11.2776 c 0,3.81 -3.251208,7.0612 -7.061208,7.0612 -3.6068,0 -7.0612,-3.1496 -7.0612,-7.0612 z m 9.7536,13.6144 c 0,-1.6764 -1.0668,-2.794 -2.6924,-2.794 h -2.6924 v 14.0716 c 0,1.4224 1.3208,2.7432 2.6924,2.7432 1.7272,0 2.6924,-1.3716 2.6924,-2.7432 z m 9.448808,10.16 c 0,-4.064 3.2004,-7.1628 7.2136,-7.1628 h 2.7432 v -3.2004 c 0,-1.6764 -1.0668,-2.794 -2.7432,-2.794 -1.5748,0 -2.7432,1.2192 -2.7432,2.794 0,2.6416 -4.4704,2.6416 -4.4704,0 0,-3.9116 3.0988,-7.2644 7.2136,-7.2644 4.0132,0 7.1628,2.9464 7.1628,7.2644 v 11.2776 c 0,3.9624 -3.1496,7.2644 -7.1628,7.2644 -3.9116,0 -7.2136,-3.3528 -7.2136,-7.2644 z m 4.4704,0.9144 c 0,1.4732 1.27,2.794 2.7432,2.794 1.7272,0 2.7432,-1.4224 2.7432,-2.794 v -3.6576 h -2.7432 c -1.3716,0 -2.7432,0.9652 -2.7432,2.7432 z m 25.3492,-6.1468 c 2.3368,1.016 3.8608,3.4544 3.8608,6.35 0,3.9116 -3.1496,7.0612 -7.1628,7.0612 -3.556,0 -7.0612,-3.2004 -7.0612,-7.0612 0,-3.0988 4.4196,-3.048 4.4196,0 0,1.3716 1.27,2.6416 2.6416,2.6416 1.5748,0 2.7432,-1.1684 2.7432,-2.6416 0,-1.0668 -0.508,-2.032 -1.4732,-2.5908 -4.7244,-2.4892 -4.7244,-2.4892 -4.7244,-2.4892 -2.286,-1.27 -3.6068,-3.556 -3.6068,-6.1976 0,-3.9116 3.1496,-7.0612 7.0612,-7.0612 4.1148,0 7.1628,3.048 7.1628,7.0612 0,2.794 -4.4196,2.7432 -4.4196,0 0,-1.5748 -1.0668,-2.6416 -2.7432,-2.6416 -1.27,0 -2.6416,0.9652 -2.6416,2.6416 0,0.8636 0.508,1.8288 1.27,2.3876 z m 8.4328,-4.826 c 0,-3.9624 3.0988,-7.1628 7.0612,-7.1628 3.6068,0 7.1628,3.2512 7.1628,7.1628 v 0.8636 c 0,4.0132 -3.2512,7.0612 -7.1628,7.0612 h -2.6924 v 3.1496 c 0,1.6764 1.016,2.7432 2.6924,2.7432 1.524,0 2.7432,-1.1684 2.7432,-2.7432 0,-2.6416 4.4196,-2.6416 4.4196,0 0,3.9624 -3.2512,7.1628 -7.1628,7.1628 -4.0132,0 -7.0612,-2.8448 -7.0612,-7.1628 z m 9.8044,0 c 0,-1.4732 -1.3208,-2.7432 -2.7432,-2.7432 -1.7272,0 -2.6924,1.3716 -2.6924,2.7432 v 3.6068 h 2.6924 c 1.3208,0 2.7432,-0.9652 2.7432,-2.7432 z"
       style="fill:#006ea0;"/>
  </g>
</svg>
