<svg width="30" height="30" viewBox="0 0 30 30" fill="none" xmlns="http://www.w3.org/2000/svg">
<g clip-path="url(#clip0_871_79)">
<path d="M4.282 7.39502L2.66962 29.1433H0.640137L2.14958 10.7766L4.282 7.39502Z" fill="#DCE8E8"/>
<path d="M27.3313 10.9338L28.5282 29.1432H29.8803L28.6061 13.3276L27.3313 10.9338Z" fill="#DCE8E8"/>
<path d="M10.4717 5.31429L6.51782 29.1432H14.9984V1.15186L10.4717 5.31429ZM14.1664 24.6682L7.78031 27.0609L8.14461 24.5637L14.1669 22.1187V24.6682H14.1664ZM14.1664 20.9229L8.23528 23.3673L8.59904 20.8701L14.1664 18.3728V20.9229ZM14.1664 17.1776L8.78145 19.518L9.14575 17.0202L14.1664 14.628V17.1776ZM14.1664 13.4829L9.43217 15.9284L9.79593 13.4306L14.1658 10.9328L14.1664 13.4829ZM14.1664 9.68421L9.97781 12.1825L10.3421 9.68528L14.1664 7.13522V9.68421ZM14.1664 5.99061L10.524 8.43505L11.044 5.99061L14.1664 3.44109V5.99061Z" fill="#DCE8E8"/>
<path d="M19.1107 4.27315L15.4683 1.15186V29.1432H23.6886L19.1107 4.27315ZM15.9894 3.44109L18.6941 5.36603L19.1891 7.60353L15.9894 5.72979V3.44109ZM15.9894 7.13522L19.1891 8.68307L19.5784 10.8288L15.9894 9.42446V7.13522ZM15.9894 10.8288L19.5784 12.1831L20.0713 14.5235L15.9894 13.1186V10.8288ZM15.9894 14.5224L20.0713 15.9284L20.594 18.6715L15.9894 17.0725V14.5224ZM15.9894 18.2166L20.7236 19.9084L21.2351 22.4649L15.9899 20.701L15.9894 18.2166ZM15.9894 21.9107L21.2351 23.81L21.8239 26.1953L15.9899 24.4474V21.9107H15.9894Z" fill="#DCE8E8"/>
<path d="M4.7003 7.60352L3.03564 29.1432H6.15694L6.5879 26.4892L3.70769 25.7344L3.8117 24.5114L6.76285 25.4144L6.89993 24.569L3.86664 23.6884L3.97065 22.4654L7.07381 23.5071L7.21195 22.6499L4.00372 21.7101L4.10772 20.4871L7.3837 21.5987L7.52504 20.7314L4.18026 19.7004L4.28427 18.4768L7.69518 19.6903L7.83866 18.8113L4.2848 17.6853L4.38934 16.4623L7.9256 17.7504V18.2731L8.60298 14.1075V9.2687L4.7003 7.60352ZM8.00294 16.8383L4.51842 15.5892L4.62243 14.3656L8.00294 15.7454V16.8383ZM8.08188 14.8355L4.69283 13.6194L4.79737 12.3964L8.08188 13.7432V14.8355ZM8.16028 12.8322L4.88271 11.6619L4.98672 10.4389L8.16082 11.7398L8.16028 12.8322ZM8.23869 10.8288L4.96058 9.65913L5.06459 8.43558L8.23922 9.73647V10.8288H8.23869Z" fill="#DCE8E8"/>
<path d="M27.0702 10.6726L23.168 12.2333L22.4917 20.6616L22.8544 22.4537L27.2014 21.3795L27.2787 22.7972L23.1051 23.6912L23.2822 24.5648L27.3305 23.7584L27.4563 25.2859L23.5387 25.8353L24.2086 29.1422H28.059L27.0702 10.6726ZM23.5152 13.0813L26.7139 11.9063L26.7699 13.2483L23.4278 14.2569L23.5152 13.0813ZM23.3414 14.9567L26.8766 13.8622L26.9459 15.0665L23.2544 16.1311L23.3414 14.9567ZM23.1675 16.8315L26.947 15.6564L27.0046 16.9296L23.0805 18.0065L23.1675 16.8315ZM22.9941 18.7068L27.0622 17.5318L27.1091 18.8273L22.9072 19.8823L22.9941 18.7068ZM22.7338 21.7566L22.8197 20.5827L27.1091 19.4076L27.2014 20.6445L22.7338 21.7566Z" fill="#DCE8E8"/>
</g>
<defs>
<clipPath id="clip0_871_79">
<rect width="29.24" height="29.24" fill="white" transform="translate(0.638672 0.527832)"/>
</clipPath>
</defs>
</svg>
