<svg width="30" height="30" viewBox="0 0 30 30" fill="none" xmlns="http://www.w3.org/2000/svg">
<path d="M13.6408 24.5853C9.5385 22.5885 1.61572 18.5519 1.61572 17.5852C1.61572 15.3381 3.56166 15.3381 3.56166 15.3381L3.65653 15.3324C3.6151 15.7765 3.59178 16.2389 3.59178 16.7206C3.59178 16.8762 3.64086 17.0279 3.73205 17.154C3.78333 17.2249 4.23826 17.9118 5.42057 18.6606C9.84697 21.4638 15.3381 21.6494 15.3381 21.6494C15.3381 21.6494 15.627 21.7903 15.7308 21.8456C16.0334 22.0068 16.5716 22.2771 16.8983 22.38C17.1173 22.4492 17.2087 22.4088 17.4317 22.3885C17.8913 22.3466 18.5289 22.2678 19.409 22.0818C21.2327 21.6965 22.752 21.0884 23.9247 20.2745C24.1282 20.1333 24.2474 19.8996 24.2425 19.652C24.2418 19.6166 24.2354 19.3486 24.2024 18.9064C24.2765 18.8803 24.3469 18.8425 24.4105 18.7932C25.3665 18.0511 25.7554 16.8632 25.7966 16.7301C25.8317 16.6167 25.839 16.4966 25.8179 16.3797C25.7431 15.9658 25.665 15.5828 25.5845 15.2245C26.7069 16.5675 28.1418 18.4019 28.3306 19.2062C28.7084 20.8157 27.8856 22.4731 26.4805 22.9239L19.6022 25.0252C18.8046 25.2811 17.9859 25.4082 17.1688 25.4082C15.9646 25.4082 14.7641 25.1321 13.6408 24.5853ZM20.6929 8.14196C21.703 9.54139 22.5219 11.2432 23.1331 13.2233C23.7155 15.1102 23.9929 16.8668 24.1245 18.066C24.8032 17.4364 25.0901 16.5113 25.0901 16.5113C24.3619 12.4838 23.3826 11.4285 22.3865 9.96447C21.9168 9.27408 21.3389 8.68017 20.6929 8.14196ZM14.6332 4.8877C13.4457 4.8877 11.3259 5.15013 10.2935 5.7427C10.92 5.77709 11.9601 5.98045 13.0492 6.82103C14.4401 7.89461 15.5225 9.68914 16.2662 12.1548C16.2676 12.1594 16.269 12.1641 16.2703 12.1688C16.3337 12.3952 17.8129 17.7165 17.8373 21.5981C18.233 21.5475 18.7194 21.4716 19.2561 21.3582C20.5747 21.0795 22.1943 20.5751 23.503 19.6668C23.503 19.6668 23.4444 16.7396 22.4264 13.4415C21.7952 11.3968 20.795 9.21004 19.2118 7.48942C18.1788 6.36678 16.8503 5.39865 15.3802 4.95179C15.2415 4.9096 14.9762 4.8877 14.6332 4.8877ZM4.33137 16.7206C4.33137 16.7206 4.75694 17.3092 5.83868 18.0505C7.42271 19.1361 10.4138 20.5495 15.5367 20.9226L17.0983 21.6947C17.0982 17.8624 15.5581 12.3684 15.5581 12.3684C13.9368 6.99289 11.1092 6.47625 10.0823 6.47625C9.83983 6.47625 9.69778 6.50503 9.69557 6.5055C8.74612 7.02918 7.90177 7.71986 7.20187 8.53783L7.2018 8.53773C7.2018 8.53773 4.33137 11.456 4.33137 16.7206Z" fill="white"/>
</svg>
