<svg width="480" height="384" viewBox="0 0 480 384" fill="none" xmlns="http://www.w3.org/2000/svg">
<g clip-path="url(#clip0_840_21247)">
<path d="M191.642 178.992C186.788 183.565 180.495 184.768 177.586 181.679C174.676 178.591 176.251 172.381 181.105 167.808C183.229 165.807 185.629 164.451 187.901 163.818L208.709 144.701L217.472 154.657L196.029 172.445C195.262 174.675 193.766 176.991 191.642 178.992Z" fill="#F9E4D4"/>
<path d="M301.109 375.719L291.078 375.718L286.307 337.028L301.111 337.029L301.109 375.719Z" fill="#F9E4D4"/>
<path d="M266.743 375.491C266.43 376.017 266.266 377.715 266.266 378.326C266.266 380.207 267.79 381.731 269.67 381.731H300.734C302.016 381.731 303.056 380.691 303.056 379.408V378.115C303.056 378.115 304.593 374.228 301.429 369.437C301.429 369.437 297.497 373.189 291.621 367.313L289.889 364.174L277.346 373.347L270.394 374.202C268.874 374.39 267.525 374.173 266.743 375.491Z" fill="#2F2E41"/>
<path d="M371.479 370.021L361.617 371.852L349.861 334.684L364.416 331.981L371.479 370.021Z" fill="#F9E4D4"/>
<path d="M337.649 376.073C337.438 376.647 337.586 378.346 337.698 378.947C338.041 380.796 339.818 382.016 341.666 381.673L372.208 376.001C373.469 375.766 374.301 374.554 374.067 373.293L373.831 372.022C373.831 372.022 374.632 367.919 370.647 363.787C370.647 363.787 367.466 368.193 360.616 363.489L358.339 360.719L347.683 372.028L341.004 374.139C339.543 374.601 338.178 374.634 337.649 376.073Z" fill="#2F2E41"/>
<path d="M346.899 184.512L371.606 349.935L348.606 352.935L308.606 221.935L303.606 356.935H282.169C282.169 356.935 263.654 207.935 269.13 189.935C274.606 171.935 346.899 184.512 346.899 184.512Z" fill="#2F2E41"/>
<path d="M293.516 48.5002H317.516L321.016 57.0002C321.016 57.0002 335.016 65.0002 335.016 68.0002C335.016 71.0002 343.516 146.5 343.516 146.5L348.016 188C348.016 188 295.516 214.5 269.516 187.5L274.516 141.5C274.516 141.5 270.516 69.5002 272.516 66.5002C274.516 63.5002 289.516 56.5002 289.516 56.5002L293.516 48.5002Z" fill="#00A390"/>
<path d="M286.011 61.3999C286.011 61.3999 293.325 72.453 291.017 76.9999C288.709 81.5468 252.693 125.183 252.693 125.183L209.238 160.969L196.501 149.666L237.432 110.62L263.879 71.6165C268.088 63.5881 277.17 59.3952 286.011 61.3999Z" fill="#00A390"/>
<path d="M368.534 205.066C369.579 211.651 367.029 217.529 362.838 218.194C358.647 218.859 354.403 214.059 353.358 207.474C352.901 204.591 353.133 201.844 353.889 199.61L349.812 171.65L362.974 170.016L365.596 197.753C367.007 199.643 368.077 202.183 368.534 205.066Z" fill="#F9E4D4"/>
<path d="M317.345 62.4936C317.345 62.4936 338.039 57.8619 341.799 69.3384C345.559 80.815 368.151 189.674 368.151 189.674L350.941 191.58L338.016 117L317.345 62.4936Z" fill="#00A390"/>
<path d="M306.429 46.3685C317.825 46.3685 327.063 37.1303 327.063 25.7344C327.063 14.3384 317.825 5.10022 306.429 5.10022C295.033 5.10022 285.795 14.3384 285.795 25.7344C285.795 37.1303 295.033 46.3685 306.429 46.3685Z" fill="#F9E4D4"/>
<path d="M318.502 43.2547C317.179 43.319 315.433 43.067 315.211 41.7611C315.054 40.8398 315.831 40.0457 316.563 39.4639C317.582 38.6528 318.658 37.8966 319.534 36.9323C320.41 35.968 321.084 34.7485 321.101 33.4457C321.118 32.143 320.342 30.7838 319.095 30.4047C317.849 30.0255 316.294 30.9523 316.275 32.255C315.074 30.4301 314.914 28.1308 314.851 25.9468C314.814 24.6687 314.798 23.3901 314.802 22.1115C314.808 20.3648 314.852 18.6185 314.896 16.8724C314.037 16.8271 307.107 19.4352 306.107 19.4352C305.246 19.4352 298.337 18.0636 298.797 16.0953C298.661 17.3533 292.07 19.6193 291.936 18.9609C291.801 18.3024 291.31 17.6074 290.639 17.6467C289.931 17.6882 289.547 18.4721 289.309 19.1395C288.778 20.6296 287.488 23.2048 286.107 22.4352C275.647 16.6101 284.081 14.7958 285.32 12.4269C286.843 9.51485 288.467 6.48524 291.178 4.6275C293.889 2.76976 296.029 0.551566 298.164 3.04955C303.52 -0.855094 308.835 0.0867662 315.078 2.31333C321.322 4.53989 326.316 9.98772 327.994 16.4007C328.762 19.3402 330.822 20.63 329.287 23.2525C330.978 25.5206 330.062 24.2373 330.396 27.0467C330.66 29.2633 330.439 31.6029 329.34 33.5457C328.166 35.6212 326.088 37.0652 323.866 37.9306C321.644 38.796 321.259 43.1425 318.899 43.4828" fill="#2F2E41"/>
<path d="M421.011 365.983C423.077 366.112 424.219 363.546 422.656 362.05L422.5 361.432C422.521 361.382 422.541 361.333 422.562 361.283C424.651 356.301 431.732 356.336 433.803 361.325C435.642 365.753 437.983 370.189 438.559 374.871C438.817 376.938 438.701 379.043 438.243 381.071C442.551 371.661 444.818 361.385 444.818 351.051C444.818 348.454 444.676 345.858 444.385 343.268C444.146 341.149 443.817 339.044 443.39 336.957C441.084 325.68 436.092 314.939 428.89 305.968C425.428 304.075 422.541 301.117 420.797 297.571C420.171 296.292 419.68 294.917 419.447 293.515C419.841 293.567 420.933 287.566 420.636 287.198C421.185 286.365 422.167 285.951 422.767 285.138C425.749 281.094 429.858 281.8 432.003 287.295C436.586 289.608 436.63 293.443 433.818 297.132C432.029 299.479 431.784 302.654 430.214 305.167C430.376 305.373 430.544 305.574 430.705 305.78C433.666 309.578 436.227 313.66 438.386 317.949C437.776 313.183 438.677 307.441 440.213 303.739C441.961 299.522 445.237 295.97 448.123 292.324C451.589 287.945 458.696 289.856 459.307 295.408C459.313 295.461 459.319 295.515 459.324 295.569C458.896 295.811 458.476 296.068 458.066 296.339C455.726 297.886 456.535 301.513 459.307 301.941L459.37 301.95C459.214 303.494 458.95 305.025 458.562 306.53C462.264 320.845 454.272 326.059 442.861 326.294C442.609 326.423 442.363 326.552 442.111 326.675C443.268 329.93 444.191 333.269 444.876 336.654C445.489 339.644 445.916 342.667 446.155 345.703C446.452 349.533 446.426 353.382 446.103 357.206L446.122 357.07C446.943 352.859 449.229 348.926 452.549 346.2C457.495 342.137 464.482 340.641 469.817 337.376C472.386 335.804 475.677 337.835 475.228 340.813L475.207 340.955C474.412 341.278 473.637 341.653 472.888 342.073C472.459 342.315 472.039 342.571 471.629 342.843C469.29 344.39 470.098 348.017 472.87 348.444L472.933 348.454C472.978 348.461 473.017 348.467 473.062 348.473C471.699 351.709 469.801 354.713 467.424 357.303C465.109 369.8 455.168 370.986 444.534 367.346H444.527C443.364 372.41 441.666 377.358 439.483 382.072H421.462C421.398 381.872 421.34 381.666 421.282 381.465C422.948 381.569 424.627 381.472 426.268 381.168C424.931 379.528 423.594 377.874 422.257 376.234C422.225 376.201 422.199 376.169 422.173 376.137C421.495 375.297 420.81 374.464 420.132 373.624L420.132 373.623C420.089 371.046 420.399 368.476 421.011 365.983Z" fill="#51B5AC"/>
<path d="M0.665039 382.428C0.665039 383.088 1.19507 383.618 1.8551 383.618H478.145C478.805 383.618 479.335 383.088 479.335 382.428C479.335 381.768 478.805 381.238 478.145 381.238H1.8551C1.19507 381.238 0.665039 381.768 0.665039 382.428Z" fill="#CCCCCC"/>
<path d="M108.154 274.23L108.019 272.234C111.92 271.969 115.832 271.435 119.645 270.645L120.05 272.604C116.148 273.412 112.146 273.959 108.154 274.23ZM96.1348 274.052C92.0991 273.689 88.1099 273.111 84.2783 272.335L84.6758 270.374C88.4356 271.136 92.3516 271.704 96.3145 272.06L96.1348 274.052ZM131.614 269.366L130.943 267.481C134.619 266.174 138.238 264.597 141.703 262.798L142.625 264.573C139.08 266.415 135.375 268.027 131.614 269.366ZM72.6919 269.24C68.8608 267.955 65.126 266.421 61.5913 264.677L62.4751 262.884C65.9302 264.587 69.5811 266.088 73.3276 267.343L72.6919 269.24ZM51.2227 258.618C47.9209 256.354 44.7632 253.831 41.8379 251.117L43.1982 249.65C46.0518 252.298 49.1323 254.759 52.3535 256.967L51.2227 258.618ZM152.873 258.325L151.717 256.692C154.903 254.438 157.963 251.944 160.814 249.28L162.179 250.741C159.263 253.466 156.132 256.018 152.873 258.325ZM33.6499 242.308C31.1616 239.203 28.8677 235.872 26.8325 232.409L28.5571 231.395C30.5435 234.776 32.7822 238.027 35.2104 241.058L33.6499 242.308ZM170.376 241.967L168.826 240.704C171.293 237.674 173.573 234.448 175.602 231.118L177.31 232.159C175.234 235.566 172.901 238.866 170.376 241.967ZM21.4839 221.654C19.9658 217.986 18.6753 214.158 17.6484 210.275L19.582 209.763C20.5859 213.56 21.8477 217.303 23.3315 220.888L21.4839 221.654ZM182.844 221.498L181.01 220.699C182.567 217.121 183.89 213.398 184.941 209.634L186.867 210.174C185.791 214.024 184.438 217.835 182.844 221.498ZM15.3413 198.493C14.8301 194.541 14.5688 190.51 14.5654 186.515L16.5654 186.513C16.5688 190.424 16.8242 194.369 17.3247 198.237L15.3413 198.493ZM189.298 198.414L187.316 198.144C187.841 194.29 188.106 190.35 188.106 186.435L188.106 186.255H190.106L190.106 186.427C190.106 190.44 189.834 194.47 189.298 198.414ZM17.3047 174.789L15.3203 174.535C15.8276 170.561 16.5967 166.596 17.6064 162.75L19.541 163.258C18.5532 167.02 17.8008 170.9 17.3047 174.789ZM187.292 174.549C186.758 170.68 185.95 166.816 184.894 163.063L186.818 162.521C187.9 166.361 188.726 170.316 189.274 174.276L187.292 174.549ZM23.27 152.128L21.4204 151.366C22.9502 147.652 24.7422 144.031 26.7461 140.606L28.4727 141.616C26.5146 144.962 24.7642 148.498 23.27 152.128ZM180.942 152.014C179.381 148.446 177.557 144.948 175.52 141.617L177.226 140.573C179.311 143.982 181.178 147.562 182.774 151.214L180.942 152.014ZM168.73 132.049C166.261 129.029 163.561 126.148 160.704 123.487L162.067 122.024C164.99 124.746 167.752 127.694 170.278 130.784L168.73 132.049ZM35.104 131.944L33.5405 130.697C36.0391 127.565 38.7852 124.598 41.7017 121.879L43.0659 123.342C40.2202 125.995 37.5415 128.889 35.104 131.944ZM151.591 116.09C148.396 113.838 145.02 111.788 141.556 109.997L142.475 108.22C146.019 110.053 149.474 112.151 152.743 114.455L151.591 116.09ZM52.2041 116.004L51.0694 114.357C54.3364 112.107 57.8203 110.06 61.4243 108.274L62.313 110.066C58.7935 111.81 55.3926 113.808 52.2041 116.004ZM73.1558 105.583L72.5161 103.688C76.23 102.435 80.1265 101.386 84.0972 100.573L84.4986 102.532C80.6084 103.329 76.792 104.356 73.1558 105.583ZM130.782 105.332C127.103 104.03 123.296 102.973 119.468 102.188L119.87 100.229C123.788 101.032 127.684 102.114 131.449 103.446L130.782 105.332ZM96.1333 100.826L95.9507 98.8351C97.9526 98.6515 100.011 98.5172 102.068 98.4362C104.014 98.4132 106.031 98.4997 107.97 98.6271L107.839 100.623C105.943 100.498 104.015 100.435 102.107 100.435C100.124 100.514 98.1011 100.647 96.1333 100.826Z" fill="#3F3D56"/>
<path d="M35.5393 268.257C50.451 268.257 62.5393 256.169 62.5393 241.257C62.5393 226.346 50.451 214.257 35.5393 214.257C20.6276 214.257 8.53931 226.346 8.53931 241.257C8.53931 256.169 20.6276 268.257 35.5393 268.257Z" fill="url(#paint0_linear_840_21247)"/>
<path d="M24.9724 232.204C24.9724 231.368 25.6672 230.69 26.5244 230.69H44.5544C45.4117 230.69 46.1064 231.368 46.1064 232.204V250.311C46.1064 251.147 45.4117 251.824 44.5544 251.824H26.5244C25.6672 251.824 24.9724 251.147 24.9724 250.311V232.204ZM31.5015 248.382V238.839H28.3301V248.382H31.5015ZM29.9165 237.535C31.022 237.535 31.7102 236.803 31.7102 235.887C31.6904 234.95 31.0233 234.238 29.9376 234.238C28.8518 234.238 28.1425 234.952 28.1425 235.887C28.1425 236.803 28.8307 237.535 29.8953 237.535H29.9165ZM36.3993 248.382V243.053C36.3993 242.767 36.4204 242.482 36.505 242.278C36.7335 241.709 37.2552 241.119 38.1323 241.119C39.2801 241.119 39.7385 241.993 39.7385 243.277V248.382H42.9099V242.909C42.9099 239.976 41.346 238.613 39.259 238.613C37.5762 238.613 36.822 239.538 36.3993 240.189V240.222H36.3782L36.3993 240.189V238.839H33.2292C33.2688 239.734 33.2292 248.382 33.2292 248.382H36.3993Z" fill="white"/>
<path d="M115.501 126.5C130.413 126.5 142.501 114.412 142.501 99.5002C142.501 84.5886 130.413 72.5002 115.501 72.5002C100.589 72.5002 88.501 84.5886 88.501 99.5002C88.501 114.412 100.589 126.5 115.501 126.5Z" fill="url(#paint1_linear_840_21247)"/>
<path fill-rule="evenodd" clip-rule="evenodd" d="M115.616 95.0054C117.093 93.0078 118.727 91.4352 120.815 91.4352C124.757 91.4352 128.005 96.4538 128.006 102.429C128.006 106.074 126.437 108.358 123.618 108.358C121.162 108.358 119.806 106.98 117.372 102.908L116.31 101.121L116.123 100.807C115.846 100.339 115.564 99.8739 115.279 99.4112L113.404 102.722C110.741 107.378 109.242 108.358 107.16 108.358C104.266 108.358 102.537 106.106 102.537 102.534C102.537 96.8279 105.713 91.4352 109.856 91.4352C110.364 91.4352 110.851 91.4973 111.327 91.6294C111.82 91.7663 112.299 91.9795 112.78 92.2772C113.698 92.8486 114.617 93.7336 115.616 95.0054ZM118.029 98.5453C117.628 97.8927 117.243 97.2926 116.872 96.7419L116.863 96.7292C118.208 94.652 119.319 93.619 120.638 93.619C123.381 93.619 125.576 97.6571 125.576 102.617C125.576 104.508 124.955 105.604 123.674 105.604C122.443 105.604 121.856 104.793 119.519 101.036L118.028 98.5453H118.029ZM110.251 94.2302C111.405 94.3894 112.455 95.2394 113.975 97.4152C113.098 98.7582 112.231 100.108 111.373 101.463C109.213 104.847 108.466 105.606 107.265 105.606C106.028 105.606 105.291 104.521 105.291 102.582C105.291 98.4403 107.357 94.2032 109.821 94.2032C109.966 94.2032 110.109 94.2127 110.251 94.2318V94.2302Z" fill="white"/>
<path d="M28.3848 169.604C43.2965 169.604 55.3848 157.516 55.3848 142.604C55.3848 127.692 43.2965 115.604 28.3848 115.604C13.4731 115.604 1.38477 127.692 1.38477 142.604C1.38477 157.516 13.4731 169.604 28.3848 169.604Z" fill="url(#paint2_linear_840_21247)"/>
<path d="M24.0272 152.129C32.8741 152.129 37.7137 144.798 37.7137 138.452C37.7137 138.247 37.7137 138.039 37.7049 137.834C38.6471 137.152 39.4603 136.307 40.1064 135.34C39.2263 135.728 38.2936 135.984 37.3386 136.099C38.3445 135.498 39.0979 134.552 39.4588 133.437C38.5137 133.997 37.4793 134.39 36.4009 134.599C34.5807 132.66 31.5337 132.564 29.5953 134.385C28.3435 135.56 27.8124 137.313 28.2016 138.986C24.3339 138.792 20.7302 136.966 18.2865 133.961C17.0135 136.16 17.6661 138.97 19.7781 140.382C19.0155 140.356 18.2697 140.151 17.6008 139.784V139.85C17.6035 142.138 19.2152 144.109 21.4572 144.565C21.0444 144.679 20.618 144.736 20.1898 144.734C19.888 144.735 19.5867 144.707 19.2902 144.65C19.9204 146.609 21.7267 147.95 23.784 147.986C22.0793 149.325 19.9736 150.051 17.8059 150.048C17.424 150.05 17.0423 150.028 16.6631 149.982C18.8631 151.385 21.4181 152.129 24.0272 152.129Z" fill="white"/>
<path d="M125.591 297.917C140.503 297.917 152.591 285.829 152.591 270.917C152.591 256.006 140.503 243.917 125.591 243.917C110.679 243.917 98.5908 256.006 98.5908 270.917C98.5908 285.829 110.679 297.917 125.591 297.917Z" fill="url(#paint3_linear_840_21247)"/>
<path d="M125.591 259.402C122.466 259.402 122.073 259.416 120.845 259.471C119.617 259.529 118.781 259.721 118.048 260.006C117.28 260.295 116.584 260.749 116.009 261.335C115.423 261.91 114.969 262.606 114.68 263.375C114.395 264.106 114.201 264.944 114.145 266.167C114.09 267.398 114.075 267.789 114.075 270.919C114.075 274.045 114.09 274.437 114.145 275.665C114.202 276.891 114.395 277.727 114.68 278.46C114.975 279.217 115.368 279.859 116.009 280.5C116.648 281.14 117.29 281.535 118.047 281.828C118.781 282.113 119.616 282.308 120.842 282.364C122.071 282.418 122.463 282.433 125.591 282.433C128.719 282.433 129.109 282.418 130.338 282.364C131.563 282.306 132.402 282.113 133.135 281.828C133.903 281.539 134.599 281.086 135.173 280.5C135.814 279.859 136.207 279.217 136.502 278.46C136.785 277.727 136.98 276.891 137.037 275.665C137.092 274.437 137.106 274.045 137.106 270.917C137.106 267.789 137.092 267.398 137.037 266.169C136.98 264.944 136.785 264.106 136.502 263.375C136.212 262.606 135.759 261.91 135.173 261.335C134.598 260.749 133.902 260.295 133.134 260.006C132.399 259.721 131.562 259.527 130.337 259.471C129.107 259.416 128.717 259.402 125.588 259.402H125.591ZM124.559 261.478H125.592C128.667 261.478 129.031 261.488 130.245 261.544C131.367 261.594 131.978 261.783 132.384 261.94C132.921 262.148 133.305 262.399 133.708 262.802C134.111 263.205 134.36 263.588 134.569 264.126C134.727 264.531 134.914 265.141 134.965 266.264C135.021 267.477 135.032 267.841 135.032 270.914C135.032 273.988 135.021 274.353 134.965 275.567C134.914 276.689 134.726 277.298 134.569 277.704C134.384 278.204 134.089 278.656 133.706 279.027C133.303 279.43 132.921 279.679 132.382 279.888C131.979 280.046 131.369 280.233 130.245 280.285C129.031 280.34 128.667 280.353 125.592 280.353C122.518 280.353 122.152 280.34 120.939 280.285C119.816 280.233 119.207 280.046 118.801 279.888C118.301 279.703 117.848 279.409 117.477 279.027C117.094 278.656 116.798 278.203 116.613 277.703C116.456 277.298 116.268 276.688 116.217 275.565C116.163 274.352 116.151 273.988 116.151 270.912C116.151 267.837 116.163 267.474 116.217 266.261C116.269 265.138 116.456 264.528 116.615 264.122C116.823 263.585 117.074 263.2 117.477 262.797C117.88 262.394 118.263 262.145 118.801 261.937C119.207 261.778 119.816 261.591 120.939 261.539C122.001 261.49 122.413 261.476 124.559 261.475L124.559 261.478ZM131.739 263.389C130.976 263.389 130.357 264.008 130.357 264.771C130.357 265.534 130.976 266.153 131.739 266.153C132.502 266.153 133.121 265.534 133.121 264.771C133.121 264.008 132.502 263.389 131.739 263.389ZM125.592 265.004C122.326 264.953 119.637 267.56 119.586 270.826C119.535 274.092 122.142 276.781 125.408 276.832C125.469 276.833 125.531 276.833 125.592 276.832C128.859 276.781 131.465 274.092 131.414 270.826C131.364 267.631 128.787 265.054 125.592 265.004ZM125.592 267.078C127.713 267.077 129.432 268.795 129.433 270.916C129.434 273.036 127.716 274.755 125.596 274.756H125.592C123.472 274.756 121.753 273.038 121.753 270.917C121.753 268.797 123.472 267.078 125.592 267.078Z" fill="white"/>
</g>
<defs>
<linearGradient id="paint0_linear_840_21247" x1="35.5393" y1="214.257" x2="35.5393" y2="268.257" gradientUnits="userSpaceOnUse">
<stop stop-color="#00A390" stop-opacity="0.6"/>
<stop offset="0.817308" stop-color="#004F58" stop-opacity="0.8"/>
</linearGradient>
<linearGradient id="paint1_linear_840_21247" x1="96.7314" y1="76.6038" x2="126.731" y2="121.604" gradientUnits="userSpaceOnUse">
<stop stop-color="#41A240" stop-opacity="0.5"/>
<stop offset="0.989634" stop-color="#004F58" stop-opacity="0.8"/>
</linearGradient>
<linearGradient id="paint2_linear_840_21247" x1="28.3848" y1="115.604" x2="28.3848" y2="169.604" gradientUnits="userSpaceOnUse">
<stop stop-color="#1CA461" stop-opacity="0.6"/>
<stop offset="1" stop-color="#004C55" stop-opacity="0.8"/>
</linearGradient>
<linearGradient id="paint3_linear_840_21247" x1="125.591" y1="243.917" x2="125.591" y2="297.917" gradientUnits="userSpaceOnUse">
<stop stop-color="#00ABBE" stop-opacity="0.6"/>
<stop offset="1" stop-color="#004F58"/>
</linearGradient>
<clipPath id="clip0_840_21247">
<rect width="478.67" height="383.237" fill="white" transform="translate(0.665039 0.381592)"/>
</clipPath>
</defs>
</svg>
