<svg width="1440" height="432" viewBox="0 0 1440 432" fill="none" xmlns="http://www.w3.org/2000/svg">
<mask id="mask0_869_309" style="mask-type:alpha" maskUnits="userSpaceOnUse" x="0" y="104" width="1442" height="197">
<rect y="104" width="1442" height="197" fill="#D9D9D9"/>
</mask>
<g mask="url(#mask0_869_309)">
<path d="M845.461 239.736C883.213 264.033 943.991 296.334 1035.53 296.334C1122.26 296.334 1184.95 264.406 1224.55 240.389C1267.86 214.122 1304.1 202.408 1342.06 202.408C1386.9 202.408 1427.94 214.987 1454.64 236.919L1536 200.492C1490.71 163.29 1419.58 141.079 1342.06 141.079C1264.53 141.079 1192.64 173.007 1153.03 197.024C1109.72 223.292 1073.48 235.005 1035.53 235.005C994.549 235.005 959.718 223.843 919.067 197.68C860.718 160.123 796.77 141.08 729 141.08C642.256 141.08 579.576 173.009 539.978 197.025C496.668 223.292 460.427 235.005 422.472 235.005C384.794 235.005 349.556 223.589 304.648 196.833C261.079 170.874 200.256 141.079 115.946 141.079C39.7971 141.079 -32.7061 163.29 -78 200.492L3.36032 236.919C30.0616 214.987 71.0962 202.408 115.943 202.408C154.123 202.408 188.261 213.468 233.769 240.58C277.338 266.538 338.159 296.334 422.472 296.334C509.215 296.334 571.896 264.406 611.494 240.389C654.806 214.122 691.047 202.409 729.003 202.409C768.344 202.409 806.437 214.618 845.461 239.736Z" fill="url(#paint0_linear_869_309)" fill-opacity="0.3"/>
<path d="M1342.06 143.208C1416.57 143.208 1487.54 164.615 1532.45 200.547L1455.16 235.023C1427.95 213.535 1386.87 201.246 1342.06 201.246C1303.38 201.246 1266.59 213.052 1222.76 239.528C1183.47 263.257 1121.32 294.807 1035.53 294.807C944.968 294.807 884.73 262.904 847.301 238.908C807.774 213.565 769.078 201.246 729.001 201.246C690.321 201.246 653.53 213.052 609.707 239.526C570.427 263.257 508.281 294.807 422.473 294.807C339.081 294.807 278.769 265.36 235.544 239.707C189.512 212.387 154.864 201.244 115.945 201.244C71.1304 201.244 30.0534 213.533 2.84695 235.021L-74.4524 200.547C-29.5421 164.613 41.4398 143.208 115.945 143.208C199.34 143.208 259.65 172.655 302.878 198.308C348.304 225.268 384.068 236.771 422.473 236.771C461.153 236.771 497.945 224.964 541.768 198.491C581.048 174.759 643.197 143.21 729.001 143.21C796.047 143.21 859.375 162.018 917.227 199.111C958.405 225.509 993.783 236.772 1035.53 236.772C1074.2 236.772 1111 224.966 1154.82 198.491C1194.11 174.758 1256.27 143.208 1342.06 143.208ZM1342.06 141.681C1255.32 141.681 1192.64 173.486 1153.04 197.409C1109.72 223.576 1073.48 235.243 1035.53 235.243C994.55 235.243 959.719 224.122 919.068 198.062C860.719 160.651 796.771 141.682 729.001 141.682C642.257 141.682 579.58 173.487 539.979 197.41C496.667 223.576 460.429 235.243 422.471 235.243C384.791 235.243 349.555 223.871 304.647 197.219C261.078 171.362 200.255 141.681 115.945 141.681C39.7969 141.681 -32.7061 163.806 -78 200.864L3.36018 237.15C30.064 215.302 71.0986 202.772 115.943 202.772C154.123 202.772 188.261 213.787 233.769 240.796C277.338 266.653 338.158 296.334 422.471 296.334C509.214 296.334 571.895 264.529 611.493 240.606C654.805 214.441 691.043 202.773 729.001 202.773C768.343 202.773 806.436 214.936 845.46 239.956C883.211 264.159 943.989 296.334 1035.53 296.334C1122.26 296.334 1184.95 264.529 1224.55 240.608C1267.86 214.443 1304.1 202.773 1342.06 202.773C1386.9 202.773 1427.94 215.304 1454.64 237.151L1536 200.865C1490.71 163.806 1418.21 141.681 1342.06 141.681Z" fill="url(#paint1_linear_869_309)"/>
<g opacity="0.15">
<path d="M551.625 227.11L538.556 227.577C537.647 227.608 537.054 228.304 537.215 229.133C537.374 229.96 538.234 230.604 539.135 230.571L548.46 230.239C533.319 246.659 515.858 256.661 495.091 260.807C474.157 264.986 451.739 262.729 426.558 253.905C425.671 253.596 424.771 253.966 424.547 254.733C424.323 255.501 424.859 256.373 425.747 256.685C451.59 265.738 474.64 268.046 496.216 263.739C517.689 259.452 535.702 249.125 551.28 232.171L553.715 240.719C553.948 241.539 554.855 242.125 555.74 242.024C555.787 242.019 555.833 242.012 555.879 242.003C556.678 241.843 557.138 241.132 556.916 240.354L553.516 228.424C553.294 227.652 552.473 227.079 551.625 227.11Z" fill="black"/>
</g>
<path d="M550.918 225.272L537.849 225.739C536.94 225.77 536.347 226.466 536.508 227.295C536.667 228.122 537.527 228.766 538.428 228.733L547.753 228.401C532.612 244.821 515.151 254.823 494.384 258.969C473.45 263.148 451.032 260.891 425.851 252.069C424.965 251.76 424.064 252.13 423.84 252.896C423.617 253.664 424.153 254.537 425.041 254.848C450.884 263.902 473.933 266.21 495.51 261.902C516.983 257.616 534.996 247.288 550.573 230.334L553.008 238.882C553.242 239.703 554.149 240.288 555.033 240.188C555.081 240.183 555.127 240.175 555.172 240.166C555.971 240.007 556.432 239.295 556.209 238.517L552.81 226.587C552.587 225.814 551.766 225.241 550.918 225.272Z" fill="white"/>
<g opacity="0.15">
<path d="M235.022 196.915C235.119 196.077 234.49 195.316 233.612 195.199C232.736 195.091 231.949 195.68 231.854 196.52L230.907 204.787C214.222 188.113 195.132 177.117 174.146 172.12C152.487 166.962 130.188 168.621 105.973 177.192C105.153 177.481 104.746 178.362 105.066 179.156C105.264 179.651 105.701 179.997 106.198 180.115C106.498 180.187 106.822 180.177 107.128 180.067C130.73 171.714 152.422 170.088 173.439 175.092C193.961 179.979 212.639 190.79 228.97 207.219L219.31 206.785C218.431 206.747 217.698 207.399 217.676 208.244C217.655 208.985 218.188 209.628 218.914 209.801C219.015 209.825 219.119 209.84 219.228 209.844L232.003 210.417C232.832 210.453 233.54 209.876 233.63 209.086L235.022 196.915Z" fill="black"/>
</g>
<path d="M235.465 195.048C235.562 194.21 234.933 193.449 234.055 193.332C233.179 193.224 232.392 193.814 232.297 194.653L231.349 202.921C214.665 186.246 195.575 175.25 174.589 170.253C152.93 165.096 130.631 166.755 106.416 175.325C105.596 175.615 105.189 176.495 105.509 177.289C105.707 177.785 106.144 178.13 106.641 178.249C106.941 178.32 107.264 178.31 107.571 178.201C131.173 169.847 152.865 168.221 173.882 173.225C194.404 178.112 213.082 188.923 229.412 205.354L219.753 204.92C218.873 204.882 218.141 205.534 218.118 206.379C218.098 207.12 218.631 207.763 219.356 207.936C219.457 207.96 219.562 207.975 219.671 207.979L232.446 208.552C233.274 208.588 233.982 208.011 234.072 207.221L235.465 195.048Z" fill="white"/>
<g opacity="0.15">
<path d="M1341.88 173.714C1341.42 172.935 1340.4 172.528 1339.58 172.794C1338.76 173.067 1338.47 173.919 1338.93 174.7L1343.46 182.393C1318.52 174.704 1295.19 173.037 1274.13 177.462C1252.39 182.028 1234.5 192.878 1219.44 210.633C1218.93 211.233 1219.15 212.181 1219.93 212.747C1220.42 213.101 1221.01 213.222 1221.51 213.117C1221.81 213.054 1222.08 212.909 1222.27 212.684C1236.95 195.379 1254.35 184.813 1275.44 180.382C1296.04 176.055 1318.9 177.732 1343.38 185.354L1334.89 189.037C1334.12 189.373 1333.91 190.257 1334.44 191.012C1334.9 191.674 1335.77 192.017 1336.5 191.864C1336.6 191.843 1336.7 191.812 1336.79 191.77L1348.02 186.898C1348.75 186.582 1348.98 185.774 1348.55 185.039L1341.88 173.714Z" fill="black"/>
</g>
<path d="M1341.05 171.88C1340.6 171.1 1339.57 170.694 1338.75 170.96C1337.93 171.233 1337.64 172.084 1338.11 172.865L1342.63 180.559C1317.69 172.87 1294.37 171.203 1273.3 175.627C1251.56 180.194 1233.67 191.044 1218.61 208.798C1218.1 209.399 1218.32 210.347 1219.11 210.913C1219.59 211.267 1220.19 211.388 1220.69 211.283C1220.99 211.22 1221.26 211.075 1221.45 210.849C1236.13 193.544 1253.52 182.979 1274.62 178.548C1295.22 174.221 1318.07 175.898 1342.56 183.521L1334.06 187.204C1333.29 187.54 1333.09 188.424 1333.61 189.179C1334.07 189.842 1334.94 190.184 1335.67 190.031C1335.77 190.01 1335.87 189.979 1335.97 189.938L1347.2 185.066C1347.92 184.749 1348.15 183.942 1347.72 183.207L1341.05 171.88Z" fill="white"/>
<g opacity="0.15">
<path d="M1005.7 258.462L995.347 252.136C994.624 251.701 993.492 251.889 992.797 252.555C992.1 253.224 992.115 254.117 992.828 254.553L1000.77 259.404C1000.76 259.406 1000.75 259.401 1000.73 259.403C971.48 264.006 947.227 262.376 926.583 254.423C906.552 246.705 891.975 234.659 882.022 217.596C881.635 216.932 880.577 216.758 879.659 217.203C878.74 217.648 878.309 218.545 878.694 219.208C888.925 236.744 903.921 249.13 924.539 257.073C945.636 265.201 970.337 266.919 1000.02 262.339L993.853 269.168C993.22 269.869 993.327 270.745 994.098 271.125C994.138 271.145 994.181 271.164 994.224 271.18C994.987 271.474 996.037 271.204 996.638 270.54L1005.84 260.354C1006.43 259.696 1006.38 258.871 1005.7 258.462Z" fill="black"/>
</g>
<path d="M1006.99 256.8L996.629 250.474C995.905 250.039 994.773 250.227 994.078 250.893C993.381 251.561 993.396 252.454 994.109 252.891L1002.05 257.741C1002.04 257.743 1002.03 257.739 1002.01 257.741C972.761 262.344 948.508 260.714 927.864 252.76C907.833 245.043 893.256 232.997 883.303 215.933C882.917 215.27 881.858 215.096 880.94 215.541C880.022 215.986 879.59 216.883 879.975 217.546C890.206 235.081 905.202 247.467 925.82 255.411C946.917 263.539 971.619 265.257 1001.3 260.678L995.133 267.507C994.499 268.209 994.608 269.084 995.378 269.464C995.419 269.485 995.461 269.503 995.505 269.52C996.267 269.813 997.317 269.543 997.918 268.879L1007.12 258.693C1007.71 258.034 1007.66 257.209 1006.99 256.8Z" fill="white"/>
</g>
<path d="M172.402 212.56H171.102V309.627H172.402V212.56Z" fill="url(#paint2_linear_869_309)"/>
<path d="M171.279 360.102C198.35 360.102 220.296 337.357 220.296 309.299C220.296 281.241 198.35 258.495 171.279 258.495C144.207 258.495 122.262 281.241 122.262 309.299C122.262 337.357 144.207 360.102 171.279 360.102Z" fill="url(#paint3_linear_869_309)"/>
<path d="M171.281 358.744C197.629 358.744 218.988 336.607 218.988 309.299C218.988 281.991 197.629 259.853 171.281 259.853C144.933 259.853 123.574 281.991 123.574 309.299C123.574 336.607 144.933 358.744 171.281 358.744Z" fill="url(#paint4_linear_869_309)"/>
<path opacity="0.2" d="M171.276 352.751C193.679 352.751 211.84 333.666 211.84 310.124C211.84 286.581 193.679 267.496 171.276 267.496C148.872 267.496 130.711 286.581 130.711 310.124C130.711 333.666 148.872 352.751 171.276 352.751Z" fill="url(#paint5_linear_869_309)"/>
<path d="M171.281 351.101C193.556 351.101 211.614 332.385 211.614 309.299C211.614 286.212 193.556 267.496 171.281 267.496C149.007 267.496 130.949 286.212 130.949 309.299C130.949 332.385 149.007 351.101 171.281 351.101Z" fill="url(#paint6_linear_869_309)"/>
<path d="M171.282 349.984C192.961 349.984 210.536 331.768 210.536 309.299C210.536 286.829 192.961 268.613 171.282 268.613C149.602 268.613 132.027 286.829 132.027 309.299C132.027 331.768 149.602 349.984 171.282 349.984Z" fill="url(#paint7_linear_869_309)"/>
<path d="M178.054 213.022C178.054 209.143 175.02 206 171.279 206C167.537 206 164.504 209.144 164.504 213.022C164.504 216.9 167.538 220.044 171.279 220.044C175.021 220.045 178.054 216.9 178.054 213.022Z" fill="url(#paint8_linear_869_309)"/>
<path d="M162.56 323.48C160.267 323.48 158.213 322.92 156.4 321.8C154.587 320.653 153.16 319 152.12 316.84C151.08 314.68 150.56 312.067 150.56 309C150.56 305.933 151.08 303.32 152.12 301.16C153.16 299 154.587 297.36 156.4 296.24C158.213 295.093 160.267 294.52 162.56 294.52C164.88 294.52 166.933 295.093 168.72 296.24C170.533 297.36 171.96 299 173 301.16C174.04 303.32 174.56 305.933 174.56 309C174.56 312.067 174.04 314.68 173 316.84C171.96 319 170.533 320.653 168.72 321.8C166.933 322.92 164.88 323.48 162.56 323.48ZM162.56 318C163.653 318 164.6 317.693 165.4 317.08C166.227 316.467 166.867 315.493 167.32 314.16C167.8 312.827 168.04 311.107 168.04 309C168.04 306.893 167.8 305.173 167.32 303.84C166.867 302.507 166.227 301.533 165.4 300.92C164.6 300.307 163.653 300 162.56 300C161.493 300 160.547 300.307 159.72 300.92C158.92 301.533 158.28 302.507 157.8 303.84C157.347 305.173 157.12 306.893 157.12 309C157.12 311.107 157.347 312.827 157.8 314.16C158.28 315.493 158.92 316.467 159.72 317.08C160.547 317.693 161.493 318 162.56 318ZM181.872 323V297.4L184.672 300.2H176.272V295H188.352V323H181.872Z" fill="#1CA461"/>
<path d="M924.062 278.906H922.621V387.308H924.062V278.906Z" fill="url(#paint9_linear_869_309)"/>
<path d="M915.159 431.716C942.229 431.716 964.174 408.97 964.174 380.911C964.174 352.853 942.229 330.106 915.159 330.106C888.089 330.106 866.144 352.853 866.144 380.911C866.144 408.97 888.089 431.716 915.159 431.716Z" fill="url(#paint10_linear_869_309)"/>
<path d="M915.161 430.358C941.508 430.358 962.866 408.22 962.866 380.911C962.866 353.603 941.508 331.464 915.161 331.464C888.815 331.464 867.457 353.603 867.457 380.911C867.457 408.22 888.815 430.358 915.161 430.358Z" fill="url(#paint11_linear_869_309)"/>
<path opacity="0.3" d="M915.156 424.365C937.559 424.365 955.719 405.279 955.719 381.736C955.719 358.193 937.559 339.108 915.156 339.108C892.754 339.108 874.593 358.193 874.593 381.736C874.593 405.279 892.754 424.365 915.156 424.365Z" fill="url(#paint12_linear_869_309)"/>
<path d="M915.162 422.715C937.436 422.715 955.492 403.999 955.492 380.911C955.492 357.824 937.436 339.108 915.162 339.108C892.888 339.108 874.832 357.824 874.832 380.911C874.832 403.999 892.888 422.715 915.162 422.715Z" fill="url(#paint13_linear_869_309)"/>
<path d="M915.159 421.598C936.837 421.598 954.411 403.382 954.411 380.911C954.411 358.441 936.837 340.225 915.159 340.225C893.48 340.225 875.906 358.441 875.906 380.911C875.906 403.382 893.48 421.598 915.159 421.598Z" fill="url(#paint14_linear_869_309)"/>
<path d="M931.252 278.906C931.252 274.539 927.711 271 923.346 271C918.979 271 915.439 274.541 915.439 278.906C915.439 283.273 918.98 286.813 923.346 286.813C927.711 286.814 931.252 283.273 931.252 278.906Z" fill="url(#paint15_linear_869_309)"/>
<path d="M902.56 396.48C900.266 396.48 898.213 395.92 896.4 394.8C894.586 393.653 893.16 392 892.12 389.84C891.08 387.68 890.56 385.067 890.56 382C890.56 378.933 891.08 376.32 892.12 374.16C893.16 372 894.586 370.36 896.4 369.24C898.213 368.093 900.266 367.52 902.56 367.52C904.88 367.52 906.933 368.093 908.72 369.24C910.533 370.36 911.96 372 913 374.16C914.04 376.32 914.56 378.933 914.56 382C914.56 385.067 914.04 387.68 913 389.84C911.96 392 910.533 393.653 908.72 394.8C906.933 395.92 904.88 396.48 902.56 396.48ZM902.56 391C903.653 391 904.6 390.693 905.4 390.08C906.226 389.467 906.866 388.493 907.32 387.16C907.8 385.827 908.04 384.107 908.04 382C908.04 379.893 907.8 378.173 907.32 376.84C906.866 375.507 906.226 374.533 905.4 373.92C904.6 373.307 903.653 373 902.56 373C901.493 373 900.546 373.307 899.72 373.92C898.92 374.533 898.28 375.507 897.8 376.84C897.346 378.173 897.12 379.893 897.12 382C897.12 384.107 897.346 385.827 897.8 387.16C898.28 388.493 898.92 389.467 899.72 390.08C900.546 390.693 901.493 391 902.56 391ZM926.397 396.48C924.451 396.48 922.517 396.227 920.597 395.72C918.677 395.187 917.051 394.44 915.717 393.48L918.237 388.52C919.304 389.293 920.544 389.907 921.957 390.36C923.371 390.813 924.797 391.04 926.237 391.04C927.864 391.04 929.144 390.72 930.077 390.08C931.011 389.44 931.477 388.56 931.477 387.44C931.477 386.373 931.064 385.533 930.237 384.92C929.411 384.307 928.077 384 926.237 384H923.277V379.72L931.077 370.88L931.797 373.2H917.117V368H936.717V372.2L928.957 381.04L925.677 379.16H927.557C930.997 379.16 933.597 379.933 935.357 381.48C937.117 383.027 937.997 385.013 937.997 387.44C937.997 389.013 937.584 390.493 936.757 391.88C935.931 393.24 934.664 394.347 932.957 395.2C931.251 396.053 929.064 396.48 926.397 396.48Z" fill="#004563"/>
<path d="M1280 49.4207H1278.69V147.536H1280V49.4207Z" fill="url(#paint16_linear_869_309)"/>
<path d="M1276.59 101.61C1303.66 101.61 1325.6 78.8638 1325.6 50.805C1325.6 22.7462 1303.66 0 1276.59 0C1249.52 0 1227.57 22.7462 1227.57 50.805C1227.57 78.8638 1249.52 101.61 1276.59 101.61Z" fill="url(#paint17_linear_869_309)"/>
<path d="M1276.59 100.252C1302.93 100.252 1324.29 78.1139 1324.29 50.8051C1324.29 23.4963 1302.93 1.35815 1276.59 1.35815C1250.24 1.35815 1228.88 23.4963 1228.88 50.8051C1228.88 78.1139 1250.24 100.252 1276.59 100.252Z" fill="url(#paint18_linear_869_309)"/>
<path opacity="0.3" d="M1276.58 94.2584C1298.98 94.2584 1317.15 75.1731 1317.15 51.6301C1317.15 28.0871 1298.98 9.00171 1276.58 9.00171C1254.18 9.00171 1236.02 28.0871 1236.02 51.6301C1236.02 75.1731 1254.18 94.2584 1276.58 94.2584Z" fill="url(#paint19_linear_869_309)"/>
<path d="M1276.59 92.6084C1298.86 92.6084 1316.92 73.8924 1316.92 50.805C1316.92 27.7177 1298.86 9.00171 1276.59 9.00171C1254.31 9.00171 1236.26 27.7177 1236.26 50.805C1236.26 73.8924 1254.31 92.6084 1276.59 92.6084Z" fill="url(#paint20_linear_869_309)"/>
<path d="M1276.58 91.4912C1298.26 91.4912 1315.84 73.2753 1315.84 50.8049C1315.84 28.3345 1298.26 10.1186 1276.58 10.1186C1254.91 10.1186 1237.33 28.3345 1237.33 50.8049C1237.33 73.2753 1254.91 91.4912 1276.58 91.4912Z" fill="url(#paint21_linear_869_309)"/>
<path d="M1279.35 154.692C1283.3 154.692 1286.51 151.488 1286.51 147.536C1286.51 143.584 1283.3 140.38 1279.35 140.38C1275.4 140.38 1272.2 143.584 1272.2 147.536C1272.2 151.488 1275.4 154.692 1279.35 154.692Z" fill="url(#paint22_linear_869_309)"/>
<path d="M1262.56 65.4462C1260.27 65.4462 1258.21 64.8862 1256.4 63.7662C1254.59 62.6195 1253.16 60.9662 1252.12 58.8062C1251.08 56.6462 1250.56 54.0329 1250.56 50.9662C1250.56 47.8995 1251.08 45.2862 1252.12 43.1262C1253.16 40.9662 1254.59 39.3262 1256.4 38.2062C1258.21 37.0595 1260.27 36.4862 1262.56 36.4862C1264.88 36.4862 1266.93 37.0595 1268.72 38.2062C1270.53 39.3262 1271.96 40.9662 1273 43.1262C1274.04 45.2862 1274.56 47.8995 1274.56 50.9662C1274.56 54.0329 1274.04 56.6462 1273 58.8062C1271.96 60.9662 1270.53 62.6195 1268.72 63.7662C1266.93 64.8862 1264.88 65.4462 1262.56 65.4462ZM1262.56 59.9662C1263.65 59.9662 1264.6 59.6595 1265.4 59.0462C1266.23 58.4329 1266.87 57.4595 1267.32 56.1262C1267.8 54.7929 1268.04 53.0729 1268.04 50.9662C1268.04 48.8595 1267.8 47.1395 1267.32 45.8062C1266.87 44.4729 1266.23 43.4995 1265.4 42.8862C1264.6 42.2729 1263.65 41.9662 1262.56 41.9662C1261.49 41.9662 1260.55 42.2729 1259.72 42.8862C1258.92 43.4995 1258.28 44.4729 1257.8 45.8062C1257.35 47.1395 1257.12 48.8595 1257.12 50.9662C1257.12 53.0729 1257.35 54.7929 1257.8 56.1262C1258.28 57.4595 1258.92 58.4329 1259.72 59.0462C1260.55 59.6595 1261.49 59.9662 1262.56 59.9662ZM1277.39 59.0862V54.7262L1290.59 36.9662H1297.39L1284.47 54.7262L1281.31 53.8062H1303.35V59.0862H1277.39ZM1292.47 64.9662V59.0862L1292.67 53.8062V48.5662H1298.79V64.9662H1292.47Z" fill="#00686D"/>
<path d="M495.607 113.037H494.18V220.333H495.607V113.037Z" fill="url(#paint23_linear_869_309)"/>
<path d="M494.058 161.61C521.128 161.61 543.073 138.863 543.073 110.805C543.073 82.7458 521.128 59.9996 494.058 59.9996C466.988 59.9996 445.043 82.7458 445.043 110.805C445.043 138.863 466.988 161.61 494.058 161.61Z" fill="url(#paint24_linear_869_309)"/>
<path d="M494.056 160.251C520.403 160.251 541.761 138.113 541.761 110.804C541.761 83.4957 520.403 61.3575 494.056 61.3575C467.71 61.3575 446.352 83.4957 446.352 110.804C446.352 138.113 467.71 160.251 494.056 160.251Z" fill="url(#paint25_linear_869_309)"/>
<path opacity="0.3" d="M494.055 154.258C516.458 154.258 534.618 135.173 534.618 111.63C534.618 88.0865 516.458 69.0012 494.055 69.0012C471.653 69.0012 453.492 88.0865 453.492 111.63C453.492 135.173 471.653 154.258 494.055 154.258Z" fill="url(#paint26_linear_869_309)"/>
<path d="M494.057 152.608C516.331 152.608 534.388 133.892 534.388 110.804C534.388 87.7172 516.331 69.0012 494.057 69.0012C471.783 69.0012 453.727 87.7172 453.727 110.804C453.727 133.892 471.783 152.608 494.057 152.608Z" fill="url(#paint27_linear_869_309)"/>
<path d="M494.05 151.491C515.728 151.491 533.303 133.275 533.303 110.804C533.303 88.334 515.728 70.1181 494.05 70.1181C472.371 70.1181 454.797 88.334 454.797 110.804C454.797 133.275 472.371 151.491 494.05 151.491Z" fill="url(#paint28_linear_869_309)"/>
<path d="M502.722 220.333C502.722 216.01 499.217 212.507 494.896 212.507C490.573 212.507 487.07 216.012 487.07 220.333C487.07 224.655 490.575 228.158 494.896 228.158C499.217 228.158 502.722 224.655 502.722 220.333Z" fill="url(#paint29_linear_869_309)"/>
<path d="M481.767 123.919C479.474 123.919 477.42 123.359 475.607 122.239C473.794 121.093 472.367 119.439 471.327 117.279C470.287 115.119 469.767 112.506 469.767 109.439C469.767 106.373 470.287 103.759 471.327 101.599C472.367 99.4393 473.794 97.7993 475.607 96.6793C477.42 95.5327 479.474 94.9593 481.767 94.9593C484.087 94.9593 486.14 95.5327 487.927 96.6793C489.74 97.7993 491.167 99.4393 492.207 101.599C493.247 103.759 493.767 106.373 493.767 109.439C493.767 112.506 493.247 115.119 492.207 117.279C491.167 119.439 489.74 121.093 487.927 122.239C486.14 123.359 484.087 123.919 481.767 123.919ZM481.767 118.439C482.86 118.439 483.807 118.133 484.607 117.519C485.434 116.906 486.074 115.933 486.527 114.599C487.007 113.266 487.247 111.546 487.247 109.439C487.247 107.333 487.007 105.613 486.527 104.279C486.074 102.946 485.434 101.973 484.607 101.359C483.807 100.746 482.86 100.439 481.767 100.439C480.7 100.439 479.754 100.746 478.927 101.359C478.127 101.973 477.487 102.946 477.007 104.279C476.554 105.613 476.327 107.333 476.327 109.439C476.327 111.546 476.554 113.266 477.007 114.599C477.487 115.933 478.127 116.906 478.927 117.519C479.754 118.133 480.7 118.439 481.767 118.439ZM496.519 123.439V119.239L507.319 109.039C508.173 108.266 508.799 107.573 509.199 106.959C509.599 106.346 509.866 105.786 509.999 105.279C510.159 104.773 510.239 104.306 510.239 103.879C510.239 102.759 509.853 101.906 509.079 101.319C508.333 100.706 507.226 100.399 505.759 100.399C504.586 100.399 503.493 100.626 502.479 101.079C501.493 101.533 500.653 102.239 499.959 103.199L495.239 100.159C496.306 98.5593 497.799 97.2927 499.719 96.3593C501.639 95.426 503.853 94.9593 506.359 94.9593C508.439 94.9593 510.253 95.306 511.799 95.9993C513.373 96.666 514.586 97.6127 515.439 98.8393C516.319 100.066 516.759 101.533 516.759 103.239C516.759 104.146 516.639 105.053 516.399 105.959C516.186 106.839 515.733 107.773 515.039 108.759C514.373 109.746 513.386 110.853 512.079 112.079L503.119 120.519L501.879 118.159H517.679V123.439H496.519Z" fill="#00ABBE"/>
<mask id="mask1_869_309" style="mask-type:alpha" maskUnits="userSpaceOnUse" x="664" y="6" width="122" height="198">
<path d="M664 6H786V203L762 204L736.5 202.5H722.5H707.5L664 203V6Z" fill="#D9D9D9"/>
</mask>
<g mask="url(#mask1_869_309)">
<mask id="mask2_869_309" style="mask-type:alpha" maskUnits="userSpaceOnUse" x="652" y="5" width="149" height="200">
<rect x="652" y="5" width="149" height="199.422" fill="#D9D9D9"/>
</mask>
<g mask="url(#mask2_869_309)">
<path d="M775.413 100.32C772.735 108.519 758.137 122.691 756.12 124.104C756.12 124.104 752.724 118.443 753.403 115.273C753.957 112.685 759.641 103.461 761.586 98.9279C761.688 98.6924 761.778 98.4683 761.857 98.26C762.124 97.5648 762.265 97.0259 762.233 96.7067C762.136 95.7216 759.041 93.3262 755.443 90.4843C750.767 86.7893 745.243 82.3444 744.346 79.2718C742.761 73.8377 737.27 52.3207 737.27 52.3207C737.27 52.3207 750.912 55.2709 754.761 58.667C758.61 62.0633 775.139 90.3666 775.819 97.6121C775.893 98.4019 775.744 99.3165 775.413 100.32Z" fill="#014E6F"/>
<path d="M775.415 100.32C772.736 108.519 758.139 122.69 756.121 124.103C756.121 124.103 752.725 118.443 753.404 115.273C753.988 112.551 760.247 102.485 761.859 98.2597C764.284 97.8379 769.978 97.3216 775.415 100.32Z" fill="#FFB3B2"/>
<path d="M737.274 50.4294L737.265 52.1003C737.265 52.1003 737.72 57.3261 731.285 58.0894C724.85 58.8545 720.005 56.5202 720.179 52.4877C720.759 49.3651 721.366 46.7524 721.409 44.169C721.425 43.2089 721.359 42.19 721.18 41.0399L733.649 40.7905L737.322 41.3908L737.274 50.4294Z" fill="#FFB3B2"/>
<path d="M737.321 41.3908L737.273 50.4294C735.948 51.0453 734.454 51.421 732.779 51.421C727.048 51.421 723.344 47.2187 721.408 44.169C721.424 43.2089 721.358 42.19 721.179 41.0399L733.648 40.7905L737.321 41.3908Z" fill="#EA8888"/>
<path d="M736.442 201.528C736.84 203.718 737.092 205.515 737.159 206.803C738.067 224.511 752.065 265 754.569 265.945C758.443 267.407 764.544 264.299 767.736 263.282C769.059 262.86 769.951 261.526 769.657 260.172C762.724 228.303 760.177 182.413 759.25 155.243C758.781 141.559 756.432 132.105 756.432 132.105C756.432 132.105 722.29 122.996 722.088 134.519C721.909 144.716 733.398 184.706 736.442 201.528Z" fill="#0C0B2F"/>
<path d="M736.442 201.528L759.25 155.243C758.781 141.559 756.432 132.105 756.432 132.105C756.432 132.105 722.29 122.996 722.088 134.519C721.909 144.716 733.397 184.706 736.442 201.528Z" fill="#060632"/>
<path d="M744.041 134.56L725.992 265.371C725.992 265.371 718.067 267.283 711.902 265.754C711.902 265.754 706.618 196.182 707.058 179.363C707.499 162.543 703.266 134.357 708.024 131.248C712.783 128.14 744.041 134.56 744.041 134.56Z" fill="#0C0B2F"/>
<path d="M757.414 134.802C757.414 134.802 748.192 140.179 734.833 140.027C729.625 139.969 725.094 139.579 721.249 139.006C710.535 137.417 705.128 134.426 705.171 133.312C705.207 132.306 705.277 128.966 705.404 127.531C707.107 107.895 706.226 92.6233 708.518 81.1502C708.545 81.0119 708.572 80.8738 708.602 80.7382C711.633 66.1519 716.386 57.772 718.745 54.3352C719.608 53.0808 720.149 52.4875 720.177 52.4875C720.177 55.2092 725.973 57.5594 730.698 57.2513C734.679 56.9911 737.263 53.9639 737.263 52.3245L737.267 52.3201C737.593 52.3201 755.223 64.5741 755.238 75.9608C755.299 126.992 758.392 134.819 757.414 134.802Z" fill="#014E6F"/>
<path d="M721.274 138.839C721.265 138.895 721.259 138.952 721.249 139.006C710.535 137.417 705.128 134.426 705.171 133.312C705.207 132.307 705.277 128.967 705.404 127.531C707.107 107.896 706.226 92.6237 708.518 81.1506C714.142 88.6681 725.703 108.356 721.274 138.839Z" fill="#043F58"/>
<path d="M750.622 114.431L749.182 119.222L747.752 123.977L685.598 105.281C685.51 105.286 685.424 105.276 685.342 105.251C685.256 105.226 685.177 105.186 685.102 105.134C684.319 104.579 684.176 102.548 684.778 100.259C684.81 100.132 684.846 100.005 684.885 99.8761C685.612 97.4149 686.934 95.5946 687.948 95.5787C688.032 95.5764 688.111 95.5875 688.191 95.6101C688.272 95.6351 688.347 95.6712 688.419 95.7212L750.622 114.431Z" fill="#ED6966"/>
<path d="M749.182 119.222L747.752 123.977L685.598 105.281C685.51 105.286 685.424 105.277 685.342 105.252C685.256 105.227 685.177 105.186 685.102 105.134C684.319 104.579 684.176 102.548 684.778 100.259C687.319 102.166 699.453 110.6 720.164 114.703C741.572 118.944 748.197 119.209 749.182 119.222Z" fill="#ED6966"/>
<path d="M750.741 114.404C749.701 114.096 748.221 116.006 747.435 118.669C746.648 121.331 746.853 123.739 747.893 124.046C748.932 124.353 750.412 122.443 751.199 119.781C751.985 117.118 751.78 114.711 750.741 114.404Z" fill="#BED2FA"/>
<path d="M688.874 93.9662L681.546 92.7773C681.467 92.7388 681.39 92.7115 681.304 92.698C681.222 92.6868 681.143 92.6845 681.062 92.698C680.056 92.8475 678.986 94.8241 678.587 97.3602C678.564 97.4935 678.546 97.6227 678.53 97.754C678.388 98.8771 678.408 99.9162 678.558 100.747C678.721 101.637 679.036 102.285 679.465 102.527C679.475 102.534 679.484 102.538 679.49 102.543C679.572 102.586 679.656 102.615 679.744 102.629C679.828 102.643 679.914 102.64 680.002 102.624L744.069 113.02L744.863 108.12L745.663 103.182L688.874 93.9662Z" fill="#ED6966"/>
<path d="M715.503 107.438C701.8 106.558 694.536 99.3118 688.874 93.9662L681.546 92.7773C681.467 92.7388 681.39 92.7115 681.304 92.698C681.222 92.6868 681.143 92.6845 681.062 92.698C680.056 92.8475 678.986 94.8241 678.587 97.3602C678.564 97.4935 678.546 97.6227 678.53 97.754C678.388 98.8771 678.408 99.9162 678.558 100.747C678.902 101.721 679.255 102.382 679.465 102.527C679.475 102.534 679.484 102.538 679.49 102.543C679.572 102.586 679.656 102.615 679.744 102.629C679.828 102.643 679.914 102.64 680.002 102.624L744.069 113.02L744.863 108.12C743.885 108.235 737.283 108.84 715.503 107.438Z" fill="#ED6966"/>
<path d="M745.781 103.137C744.71 102.969 743.493 105.056 743.062 107.799C742.631 110.542 743.15 112.902 744.22 113.07C745.291 113.238 746.508 111.151 746.939 108.408C747.37 105.666 746.851 103.305 745.781 103.137Z" fill="#BED2FA"/>
<path d="M722.988 121.991C708.128 119.627 698.306 113.4 694.273 110.389C692.896 109.361 692.195 108.706 692.195 108.706C684.58 92.6982 698.356 64.6308 700.873 59.8735C703.59 54.7425 720.181 52.4878 720.181 52.4878C720.181 52.4878 717.532 60.2811 716.497 70.4408C715.462 80.6004 704.422 100.404 704.875 102.065C704.988 102.484 706.321 103.363 708.266 104.472C714.033 107.755 725.178 113.049 725.855 114.292C726.76 115.952 722.988 121.991 722.988 121.991Z" fill="#FFB3B2"/>
<path d="M725.85 114.292C725.85 114.292 734.152 110.971 736.19 112.329C738.228 113.688 741.624 115.725 741.624 117.084C741.624 118.442 737.322 122.065 733.699 123.197C730.077 124.329 722.982 121.99 722.982 121.99L725.85 114.292Z" fill="#FFB3B2"/>
<path d="M716.497 70.4407C715.462 80.6004 704.421 100.404 704.874 102.065C704.987 102.484 706.321 103.363 708.266 104.472C708.144 104.481 708.019 104.483 707.892 104.479C699.207 104.096 695.276 108.901 694.273 110.389C692.896 109.36 692.195 108.706 692.195 108.706C684.58 92.6979 698.356 64.6305 700.873 59.8731C703.59 54.7422 720.181 52.4875 720.181 52.4875C720.181 52.4875 717.531 60.2811 716.497 70.4407Z" fill="#014E6F"/>
<path d="M738.049 45.7829C738.049 45.7829 722.079 49.0089 720.223 39.0331C718.367 29.057 715.056 22.7545 725.174 20.273C735.292 17.7915 737.986 21.2287 739.416 24.408C740.845 27.5867 742.155 44.6868 738.049 45.7829Z" fill="#FFB3B2"/>
<path d="M720.543 41.9092C720.543 41.9092 717.455 35.3201 714.88 32.3945C712.305 29.4684 713.71 14.8392 724.829 15.3071C735.947 15.7755 739.926 23.7336 740.043 25.2553C740.16 26.7766 731.148 25.6062 728.691 27.596C726.233 29.5856 728.573 32.8627 725.765 34.0328C722.956 35.2032 720.732 35.2032 721.2 37.778C721.669 40.3526 720.543 41.9092 720.543 41.9092Z" fill="#060632"/>
<path d="M723.971 8.51399C720.79 9.31344 718.403 10.5902 716.621 12.1277C716.445 12.2795 716.273 12.4358 716.107 12.5944L716.105 12.5967C709.512 18.8845 712.143 28.892 712.143 28.892C712.143 28.892 713.021 31.4205 713.625 32.4018C714.228 33.383 722.983 32.2508 723.436 30.3641C723.889 28.4771 725.625 26.5148 725.625 26.5148C725.625 26.5148 734.854 25.8807 735.475 25.8355C737.56 25.6843 743.509 23.6143 743.509 23.6143C743.442 23.0298 740.093 4.46534 723.971 8.51399Z" fill="#014E6F"/>
<path d="M748.98 21.6532C747.872 21.3827 745.985 21.0814 742.874 20.9674C742.874 20.9674 740.262 23.1311 735.069 24.78C732.629 21.7049 725.677 14.2949 716.625 12.1274C716.598 12.1209 716.573 12.1139 716.545 12.1071C716.353 12.3494 716.244 12.4311 716.111 12.5941L716.108 12.5964C716.068 12.6437 716.025 12.7004 715.977 12.7706C723.346 14.0546 730.351 22.3311 732.755 25.4296C730.692 25.9368 728.319 26.3375 725.628 26.5146C725.628 26.5146 741.757 26.8156 749.129 22.9338C749.691 22.638 749.596 21.8039 748.98 21.6532Z" fill="#043F58"/>
<path d="M765.399 94.8945C765.1 96.5886 764.188 98.3702 761.582 98.9273C761.684 98.6918 761.774 98.4677 761.854 98.2595C762.121 97.5643 762.261 97.0253 762.229 96.7061C762.132 95.721 759.037 93.3256 755.439 90.4838C755.142 88.8716 754.418 84.0876 755.437 80.2903C756.682 75.649 765.739 92.9699 765.399 94.8945Z" fill="#043F58"/>
<path d="M706.528 103.329C706.528 103.329 695.433 102.423 691.81 108.876C691.81 108.876 692.12 111.052 694.267 110.389C694.267 110.389 703.652 103.974 708.26 104.472C708.26 104.472 707.546 103.348 706.528 103.329Z" fill="#043F58"/>
<path d="M761.582 98.9271C761.582 98.9271 767.338 99.1679 774.583 102.324C774.583 102.324 776.192 100.743 775.55 99.8379C774.909 98.9324 764.707 95.6765 761.582 98.9271Z" fill="#043F58"/>
</g>
</g>
<mask id="mask3_869_309" style="mask-type:alpha" maskUnits="userSpaceOnUse" x="1066" y="54" width="128" height="236">
<path d="M1066 54H1194L1189.5 260L1175 266.5L1158.5 273.5L1156.5 274L1145.5 277.5L1140 279.5L1136 281L1133.5 282L1131.5 282.5L1124.5 284.5L1115 286.5L1100.34 290H1066V54Z" fill="#D9D9D9"/>
</mask>
<g mask="url(#mask3_869_309)">
<path d="M1119.98 153.372C1124.33 131.104 1128.31 109.785 1128.31 109.785C1128.31 109.785 1115.94 111.659 1110.62 116.096C1105.29 120.533 1104.75 148.787 1102.98 156.774C1102.63 158.342 1102.32 160.874 1102.05 163.958C1101.04 175.445 1102.29 192.647 1103.24 197.47C1103.18 197.934 1102.79 200.21 1100.69 204.577C1100.69 204.577 1099.61 207.929 1106.71 212.958C1111.23 216.164 1115.26 177.578 1119.98 153.372Z" fill="#FFB3B2"/>
<path d="M1128.31 109.786C1128.31 109.786 1126.02 122.072 1123.01 137.732C1122.06 142.702 1121.03 148.009 1119.98 153.373C1115.73 161.714 1112.08 167.386 1110.95 166.319C1108.65 164.146 1104.61 163.878 1102.05 163.959C1102.32 160.874 1102.63 158.342 1102.98 156.774C1103.12 156.143 1103.25 155.386 1103.38 154.524C1104.87 144.474 1105.71 120.182 1110.62 116.096C1115.94 111.659 1128.31 109.786 1128.31 109.786Z" fill="#016E74"/>
<path d="M1123.01 137.732C1122.06 142.702 1121.03 148.009 1119.98 153.373C1115.73 161.714 1112.08 167.386 1110.95 166.319C1108.65 164.146 1104.61 163.878 1102.05 163.959C1102.32 160.874 1102.63 158.342 1102.98 156.774C1103.12 156.143 1103.25 155.386 1103.38 154.524L1116.14 123.722L1123.01 137.732Z" fill="#00747B"/>
<path d="M1145.97 109.472C1146.06 105.173 1145.99 100.039 1145.41 95.7017L1128.25 98.5063C1128.25 98.5063 1128.25 103.743 1128.32 109.554C1128.31 109.555 1128.31 109.556 1128.31 109.556C1128.31 109.556 1127.84 114.947 1134.48 115.736C1141.12 116.524 1146.15 113.632 1145.97 109.472Z" fill="#FFB3B2"/>
<path d="M1128.2 99.5644C1128.2 99.5644 1132.24 107.847 1136.88 107.847C1141.51 107.847 1145.85 100.057 1145.85 100.057L1128.2 99.5644Z" fill="#EA8888"/>
<path d="M1147.6 90.7528C1147.6 90.7528 1159.06 72.6903 1137.06 71.4949C1137.06 71.4949 1128.81 72.4662 1126.94 70.5983C1126.94 70.5983 1120.54 80.325 1126.52 90.7528C1132.49 101.18 1147.6 90.7528 1147.6 90.7528Z" fill="#060632"/>
<path d="M1128.76 100.178C1130.43 101.49 1135.31 102.793 1136.73 102.946C1136.73 102.946 1143.98 101.329 1145.3 100.534C1147.34 99.2966 1147.21 96.7923 1147.31 93.3108C1147.44 89.1896 1147.85 85.9532 1147.39 83.5773C1146.84 80.7353 1145.04 79.1184 1140 78.6792C1130.74 77.8752 1126.88 80.1943 1126.72 83.2992C1126.67 84.1332 1126.64 84.9279 1126.61 85.681C1126.24 95.3639 1127 98.7978 1128.76 100.178Z" fill="#FFB3B2"/>
<path d="M1129.16 263.734C1128.75 265.994 1128.49 267.848 1128.42 269.177C1127.48 287.448 1113.04 329.224 1110.45 330.199C1106.46 331.707 1100.16 328.501 1096.87 327.452C1095.5 327.016 1094.58 325.639 1094.89 324.243C1102.04 291.361 1104.67 244.011 1105.63 215.978C1106.11 201.858 1108.53 192.104 1108.53 192.104C1108.53 192.104 1143.76 182.706 1143.97 194.595C1144.15 205.116 1132.3 246.377 1129.16 263.734Z" fill="#030035"/>
<path d="M1129.15 263.734L1105.62 215.978C1106.11 201.858 1108.53 192.104 1108.53 192.104C1108.53 192.104 1143.76 182.706 1143.96 194.595C1144.15 205.116 1132.3 246.377 1129.15 263.734Z" fill="#060632"/>
<path d="M1121.32 194.637L1139.94 329.607C1139.94 329.607 1148.12 331.579 1154.48 330.001C1154.48 330.001 1159.93 258.218 1159.48 240.864C1159.02 223.509 1163.39 194.427 1158.48 191.219C1153.57 188.012 1121.32 194.637 1121.32 194.637Z" fill="#030035"/>
<path d="M1161.16 191.219C1161.22 192.782 1159.98 194.086 1158.42 194.11L1129.07 194.557L1107.52 194.887C1106.51 194.904 1109.7 186.829 1109.76 134.174C1109.78 122.425 1127.97 109.782 1128.3 109.782L1128.31 109.786C1128.31 111.478 1130.97 114.601 1135.08 114.87C1139.96 115.189 1145.94 112.763 1145.94 109.955C1145.94 109.923 1146.5 110.537 1147.42 111.862C1149.85 115.408 1154.75 124.053 1157.88 139.104C1160.35 150.99 1159.4 166.881 1161.18 187.385C1161.31 188.866 1161.12 190.182 1161.16 191.219Z" fill="white"/>
<path d="M1160.07 194.274C1160.07 194.274 1156.17 196.021 1148.88 197.533C1143.45 198.659 1136.15 199.657 1127.18 199.713C1112.92 199.803 1107.52 194.887 1107.52 194.887C1106.51 194.905 1109.7 186.829 1109.76 134.175C1109.78 122.425 1127.97 109.782 1128.3 109.782L1128.31 109.786C1128.31 109.786 1127.84 125.432 1132.57 130.033C1132.57 130.033 1139.21 124.906 1147.82 110.312C1150.26 113.858 1154.75 124.054 1157.88 139.105C1158.52 142.167 1158.93 145.494 1159.21 149.097C1160.04 159.482 1159.86 172.162 1161.18 187.385C1161.31 188.866 1161.12 190.182 1161.16 191.219C1161.22 192.783 1161.64 194.25 1160.07 194.274Z" fill="#016E74"/>
<path d="M1160.08 194.274C1160.08 194.274 1156.17 196.021 1148.88 197.533C1146.58 194.033 1143.69 187.714 1143.29 177.757C1142.61 160.92 1158.61 139.236 1158.61 139.236L1159.22 149.097C1160.05 159.482 1159.86 172.162 1161.18 187.385C1161.31 188.866 1161.12 190.182 1161.16 191.219C1161.22 192.783 1161.64 194.25 1160.08 194.274Z" fill="#00747B"/>
<path d="M1146.21 137.251L1118.94 152.991L1140.54 190.389L1167.8 174.648L1146.21 137.251Z" fill="#E86E6B"/>
<path d="M1163.21 115.44C1159.87 112.915 1152.02 111.125 1148.16 110.363C1146.8 110.095 1145.94 109.955 1145.94 109.955C1146.34 111.811 1147.25 114.722 1148.43 118.216C1153.39 132.863 1163.21 157.768 1161.23 158.299C1159.62 158.73 1157.56 159.111 1155.29 159.443C1146.67 160.705 1135.08 161.263 1133.86 161.319C1133.77 161.23 1129.64 157.379 1128.03 157.379C1126.4 157.379 1121.71 159.088 1121.23 160.403C1120.75 161.717 1120.56 164.084 1121.9 164.61C1123.24 165.136 1128.79 166.451 1130.23 166.582C1130.43 166.6 1130.66 166.6 1130.92 166.576C1141.23 169.608 1150.11 171.096 1156.95 171.8C1166.5 172.78 1172.08 172.235 1172.08 172.235C1178.99 157.354 1167.72 118.853 1163.21 115.44Z" fill="#FFB3B2"/>
<path d="M1172.08 172.235C1172.08 172.235 1166.5 172.78 1156.95 171.8C1157.48 169.206 1157.97 164.142 1155.29 159.443C1157.56 159.111 1159.62 158.731 1161.23 158.299C1163.21 157.768 1153.39 132.863 1148.43 118.216C1148.03 113.481 1147.82 110.312 1147.82 110.312L1148.16 110.363C1152.02 111.125 1159.87 112.915 1163.2 115.439C1167.72 118.853 1178.99 157.355 1172.08 172.235Z" fill="#016E74"/>
<path d="M1132.57 130.033C1132.57 130.033 1145.85 124.182 1146.05 123.723C1146.25 123.262 1145.39 119.713 1144.47 118.661C1144.47 118.661 1150.85 119.253 1151.24 118.464C1151.64 117.675 1151.93 111.185 1151.93 111.185C1151.93 111.185 1149.28 108.437 1145.99 108.174C1145.99 108.174 1143.11 115.345 1142.04 117.478C1139.21 123.131 1132.57 130.033 1132.57 130.033Z" fill="#005B60"/>
<path d="M1129.42 118.464C1129.42 118.464 1130.27 125.3 1132.57 130.033C1132.57 130.033 1125.64 125.201 1125.05 123.624C1124.46 122.046 1126.72 118.989 1126.72 118.989C1126.72 118.989 1122.58 118.891 1122.48 117.51C1122.39 116.13 1123.77 110.707 1123.77 110.707C1123.77 110.707 1127.33 108.106 1128.31 108.205L1129.42 118.464Z" fill="#005B60"/>
<path d="M1151.9 80.6904L1122.41 81.0059C1122.41 81.0059 1121.97 72.1139 1127.08 66.444C1127.32 66.1818 1127.57 65.9278 1127.83 65.681C1128.93 64.6335 1130.26 63.7292 1131.85 63.0633C1137.75 60.6043 1142.64 62.8735 1145.69 65.198C1145.99 65.4252 1146.28 65.6546 1146.54 65.8818C1148.2 67.2933 1149.13 68.5523 1149.13 68.5523C1149.13 68.5523 1151.99 72.4582 1151.9 80.6904Z" fill="#093A3D"/>
<path d="M1143.62 80.7793C1143.54 79.5816 1143.02 69.3843 1146.6 65.9271C1146.33 65.7 1146.41 65.746 1146.11 65.5191C1142.29 69.494 1141.98 79.5302 1142 80.7967L1132.57 80.8972C1132.29 73.6751 1128.31 66.4835 1127.83 65.681C1127.57 65.9279 1127.52 65.9765 1127.29 66.2389C1127.98 67.4561 1130.58 74.4187 1130.83 80.9159L1122.41 81.0059C1122.41 81.0059 1130.26 83.0365 1136.18 82.9628C1142.1 82.8892 1151.9 80.6905 1151.9 80.6905L1143.62 80.7793Z" fill="#00767D"/>
</g>
<path d="M334.554 113.885C333.106 114.934 319.996 121.777 319.996 121.777L306.171 111.92C306.171 111.92 310.37 111.309 310.481 111.276C311.729 110.928 311.672 107.583 311.829 104.02C311.853 103.471 311.883 102.917 311.924 102.368L325.461 101.876L325.472 102.044C325.483 102.215 325.496 102.395 325.51 102.582L325.537 102.968C325.545 103.102 325.556 103.235 325.567 103.373C325.811 106.504 326.333 110.925 327.333 111.442C327.902 111.735 331.755 111.689 334.554 113.885Z" fill="#FFB3B2"/>
<path d="M325.569 103.373C324.452 105.607 321.965 109.496 318.277 109.368C314.755 109.243 312.75 106.042 311.831 104.02C311.855 103.471 311.885 102.917 311.926 102.367L325.463 101.875L325.474 102.044L325.512 102.582L325.539 102.968C325.547 103.102 325.558 103.235 325.569 103.373Z" fill="#EA8888"/>
<path d="M310.316 72.1874C310.316 72.1874 316.845 65.686 324.549 72.3192C324.549 72.3192 319.968 71.3685 310.316 72.1874Z" fill="#0B0754"/>
<path d="M307.891 96.1034C307.891 96.1034 305.825 91.8218 304.548 86.8369C303.637 83.2776 304.471 69.7689 318.052 70.6865C318.052 70.6865 321.983 70.7785 325.837 72.9806C328.902 74.7323 333.432 78.6702 329.6 90.6913L328.673 94.7241L307.891 96.1034Z" fill="#9E332E"/>
<path d="M326.889 101.778C323.383 105.13 319.028 109.596 309.639 101.335C307.803 99.7196 307.927 97.2347 307.82 93.6662C307.691 89.442 306.675 86.856 307.146 84.4205C307.707 81.5069 310.198 80.1913 315.368 79.7412C324.861 78.917 329.659 81.0557 329.021 85.7664C327.6 96.2797 330.454 98.3688 326.889 101.778Z" fill="#FFB3B2"/>
<path d="M319.157 79.5684C319.157 79.5684 324.784 79.4499 326.069 81.3309C327.354 83.2123 327.532 85.3175 328.179 86.3779C328.827 87.4382 328.72 88.629 328.72 88.629L329.968 80.2301L322.352 78.716L319.157 79.5684Z" fill="#9E332E"/>
<path d="M351.978 125.9C351.978 125.9 349.575 132.982 339.833 134.279C339.569 134.314 339.297 134.344 339.023 134.371H299.345C299.345 134.371 299.271 134.349 299.133 134.306C297.592 133.816 288.112 130.569 287.115 124.495C287.115 124.495 292.099 114.26 295.904 112.991C297.013 112.619 298.549 112.341 300.163 112.132C301.813 111.92 303.549 111.779 305.005 111.686C307.011 111.562 308.484 111.529 308.484 111.529C308.484 111.529 311.574 117.793 319.094 117.701C326.614 117.611 328.355 111.621 328.355 111.621C328.355 111.621 330.467 111.681 333.272 111.985C334.818 112.151 336.574 112.39 338.304 112.735C341.237 113.32 344.093 114.2 345.727 115.527C350.076 119.059 351.978 125.9 351.978 125.9Z" fill="#060632"/>
<mask id="mask4_869_309" style="mask-type:alpha" maskUnits="userSpaceOnUse" x="268" y="58" width="104" height="230">
<path d="M268 58H353L372 171.5L353 288L325.5 281L319.5 279L304 273.5L272 260L268 58Z" fill="#D9D9D9"/>
</mask>
<g mask="url(#mask4_869_309)">
<path d="M342.537 180.674C342.115 178.328 341.487 174.758 340.993 171.618C340.997 171.575 342.464 153.888 343.007 150.902C343.55 147.913 339.857 131.647 339.857 131.647C338.999 129.158 337.542 128.397 336.425 128.397L338.303 112.735C336.572 112.39 334.816 112.151 333.27 111.985L332.37 128.397L332.356 128.633C330.299 128.748 327.734 128.886 325.345 128.992C322.956 129.101 320.744 129.18 319.383 129.18C316.614 129.18 310.259 128.862 306.039 128.631L306.022 128.397L305.003 111.686C303.546 111.779 301.81 111.92 300.16 112.132L301.954 128.397V128.4C300.771 128.4 299.413 130.498 299.225 131.664L299.042 136.753C298.149 139.315 296.299 145.006 295.991 149C295.585 154.281 297.791 172.652 297.806 172.779C297.725 174.969 297.57 177.768 297.271 180.476C295.613 184.968 288.542 205.859 289.262 233.948C289.933 260.171 290.33 304.977 293.42 326.732C293.923 330.262 294.495 333.186 295.151 335.325C295.482 336.403 296.414 337.184 297.531 337.339C301.074 337.83 309.061 338.735 312.498 337.485C314.145 336.885 315.325 327.74 316.159 315.951C316.958 304.648 317.439 290.913 317.705 279.95C317.708 279.95 317.708 279.947 317.708 279.945C317.922 271.204 318.004 264.229 318.004 261.647C318.004 255.803 319.385 238.661 319.842 228.578C319.855 228.293 320.271 228.29 320.29 228.572C320.29 228.575 320.29 228.575 320.29 228.575C320.983 240.546 323.401 258.7 323.44 262.733C323.53 272.517 322.961 335.374 327.237 337.485C330.506 339.1 338.21 337.879 341.891 337.381C343.222 337.201 344.316 336.252 344.691 334.962C349.29 319.146 349.696 264.191 350.472 233.948C351.182 206.252 344.32 185.555 342.537 180.674Z" fill="#197167"/>
</g>
<path d="M306.499 191.985C305.141 193.072 300.703 192.618 298.983 191.17C297.259 189.718 293.819 190.172 293.004 189.628C292.947 189.591 276.923 170.602 275.187 162.612C273.434 154.549 284.524 132.359 287.664 126.31C289.987 131.218 297.727 133.868 299.108 134.306C299.247 134.349 299.32 134.371 299.32 134.371H299.749C297.138 141.431 289.33 154.142 286.322 158.93C285.574 160.12 285.479 161.61 286.071 162.887C289.936 171.174 293.716 178.163 295.371 183.006C295.7 183.544 296.407 184.506 297.26 184.376C298.439 184.194 302.244 183.379 304.146 186.186C306.049 188.996 307.858 190.898 306.499 191.985Z" fill="#FFB3B2"/>
<path d="M330.889 72.3782C330.889 72.3782 329.844 70.9604 327.974 69.3709C327.677 69.115 327.359 68.857 327.019 68.6011C323.58 65.9833 318.073 63.4279 311.436 66.1973C309.637 66.9471 308.142 67.9655 306.9 69.145C306.606 69.4231 306.328 69.7087 306.065 70.0044C300.31 76.3891 300.797 86.4027 300.797 86.4027L334.005 86.0477C334.113 76.7769 330.889 72.3782 330.889 72.3782Z" fill="#093A3D"/>
<path d="M324.676 86.1475C324.583 84.7505 323.947 73.2931 327.973 69.3749C327.677 69.1172 327.748 69.162 327.408 68.9043C323.116 73.4091 322.84 84.6923 322.857 86.1669L312.242 86.2804C311.927 78.1476 307.438 70.0489 306.899 69.1454C306.605 69.4235 306.55 69.4778 306.288 69.7736C307.066 71.1441 309.997 78.9848 310.277 86.3015L300.796 86.4027C300.796 86.4027 309.641 88.6891 316.302 88.6066C322.964 88.5238 334.004 86.0477 334.004 86.0477L324.676 86.1475Z" fill="#017B6C"/>
<path d="M307.752 130.112C304.355 136.635 294.708 137.858 294.708 137.858C297.833 130.248 291.536 127.849 287.642 120.057C283.747 112.265 290.631 107.102 290.631 107.102C286.372 107.917 285.557 113.624 285.557 113.624C285.196 109.82 288.367 103.39 298.422 102.121C305.785 101.191 307.562 98.7098 307.986 97.4464C308.151 99.0848 308.548 100.368 309.649 101.335C310.426 102.02 311.171 102.615 311.88 103.134C311.864 103.431 311.85 103.727 311.837 104.02C311.793 105.023 311.766 106.01 311.72 106.914C310.404 108.482 310.442 110.152 310.666 111.2C310.804 111.853 311.013 112.265 311.013 112.265C312.068 113.73 312.603 115.17 312.758 116.611C313.226 120.921 310.299 125.223 307.752 130.112Z" fill="#9E332E"/>
<path d="M342.461 180.248L340.993 171.619C333.848 174.27 327.092 175.425 321.128 175.743C320.427 174.449 319.145 173.499 317.591 173.274L312.322 172.512C310.242 172.211 308.284 173.294 307.37 175.062C302.309 174.279 298.892 173.131 297.81 172.736L297.807 172.782L297.283 180.359V180.378C300.326 181.187 303.246 181.816 306.036 182.295L305.88 183.35C305.493 185.97 307.3 188.409 309.92 188.802L315.76 189.677C318.545 190.095 321.091 188.037 321.266 185.227L321.368 183.601C332.5 183.545 339.898 181.204 342.461 180.248Z" fill="#060632"/>
<path d="M363.813 162.613C362.077 170.602 346.053 189.591 345.996 189.629C345.858 189.721 345.64 189.786 345.369 189.836C345.358 189.838 345.349 189.838 345.339 189.841C344.015 190.069 341.433 189.974 340.018 191.17C338.297 192.618 333.856 193.072 332.498 191.986C331.139 190.898 332.952 188.996 334.854 186.186C336.756 183.379 340.561 184.194 341.738 184.376C342.439 184.482 343.045 183.852 343.417 183.325C343.425 183.314 343.431 183.305 343.44 183.295C343.51 183.191 343.576 183.094 343.627 183.007C345.247 178.27 348.896 171.486 352.668 163.439C353.424 161.831 353.312 159.945 352.369 158.436C349.85 154.412 344.735 146.049 341.444 139.339C341.061 137.399 340.678 135.576 340.382 134.195C347.61 133.031 350.603 128.635 351.57 126.759C354.986 133.387 365.526 154.737 363.813 162.613Z" fill="#FFB3B2"/>
<defs>
<linearGradient id="paint0_linear_869_309" x1="-77.9995" y1="218.707" x2="1536" y2="218.707" gradientUnits="userSpaceOnUse">
<stop stop-color="#1CA461"/>
<stop offset="0.379808" stop-color="#00686D" stop-opacity="0.7"/>
<stop offset="0.692308" stop-color="#004E52" stop-opacity="0.7"/>
<stop offset="1" stop-opacity="0.5"/>
</linearGradient>
<linearGradient id="paint1_linear_869_309" x1="-77.9992" y1="219.008" x2="1536" y2="219.008" gradientUnits="userSpaceOnUse">
<stop stop-color="#CCCCCC"/>
<stop offset="0.514423" stop-color="white" stop-opacity="0"/>
<stop offset="1" stop-color="#CCCCCC" stop-opacity="0"/>
</linearGradient>
<linearGradient id="paint2_linear_869_309" x1="171.74" y1="260.313" x2="171.198" y2="221.717" gradientUnits="userSpaceOnUse">
<stop stop-color="#1CA461" stop-opacity="0.5"/>
<stop offset="1" stop-color="#1CA461"/>
</linearGradient>
<linearGradient id="paint3_linear_869_309" x1="179.543" y1="354.013" x2="163.368" y2="272.551" gradientUnits="userSpaceOnUse">
<stop stop-color="#1CA461"/>
<stop offset="1" stop-color="#1CA461"/>
</linearGradient>
<linearGradient id="paint4_linear_869_309" x1="137.645" y1="342.775" x2="205.359" y2="280.039" gradientUnits="userSpaceOnUse">
<stop stop-color="#1CA461"/>
<stop offset="1" stop-color="#00A390"/>
</linearGradient>
<linearGradient id="paint5_linear_869_309" x1="171.275" y1="351.799" x2="171.275" y2="316.66" gradientUnits="userSpaceOnUse">
<stop stop-color="white"/>
<stop offset="1"/>
</linearGradient>
<linearGradient id="paint6_linear_869_309" x1="178.082" y1="346.091" x2="164.772" y2="279.062" gradientUnits="userSpaceOnUse">
<stop stop-color="#F2F2F2"/>
<stop offset="1" stop-color="white"/>
</linearGradient>
<linearGradient id="paint7_linear_869_309" x1="143.606" y1="336.844" x2="199.322" y2="285.223" gradientUnits="userSpaceOnUse">
<stop stop-color="#F2F2F2"/>
<stop offset="1" stop-color="white"/>
</linearGradient>
<linearGradient id="paint8_linear_869_309" x1="168.045" y1="218.347" x2="175.122" y2="207.497" gradientUnits="userSpaceOnUse">
<stop stop-color="#1CA461"/>
<stop offset="1" stop-color="#1CA461"/>
</linearGradient>
<linearGradient id="paint9_linear_869_309" x1="923.163" y1="328.475" x2="921.698" y2="290.493" gradientUnits="userSpaceOnUse">
<stop stop-color="#004563"/>
<stop offset="1" stop-color="#0474A5"/>
</linearGradient>
<linearGradient id="paint10_linear_869_309" x1="923.424" y1="425.627" x2="907.247" y2="344.164" gradientUnits="userSpaceOnUse">
<stop stop-color="#004563"/>
<stop offset="1" stop-color="#0474A5"/>
</linearGradient>
<linearGradient id="paint11_linear_869_309" x1="881.528" y1="414.389" x2="949.243" y2="351.655" gradientUnits="userSpaceOnUse">
<stop stop-color="#004563"/>
<stop offset="1" stop-color="#0474A5"/>
</linearGradient>
<linearGradient id="paint12_linear_869_309" x1="915.157" y1="423.412" x2="915.157" y2="388.273" gradientUnits="userSpaceOnUse">
<stop stop-color="white"/>
<stop offset="1"/>
</linearGradient>
<linearGradient id="paint13_linear_869_309" x1="921.963" y1="417.704" x2="908.652" y2="350.674" gradientUnits="userSpaceOnUse">
<stop stop-color="#F2F2F2"/>
<stop offset="1" stop-color="white"/>
</linearGradient>
<linearGradient id="paint14_linear_869_309" x1="887.485" y1="408.457" x2="943.202" y2="356.839" gradientUnits="userSpaceOnUse">
<stop stop-color="#F2F2F2"/>
<stop offset="1" stop-color="white"/>
</linearGradient>
<linearGradient id="paint15_linear_869_309" x1="919.572" y1="284.903" x2="927.421" y2="272.429" gradientUnits="userSpaceOnUse">
<stop stop-color="#004563"/>
<stop offset="1" stop-color="#0474A5"/>
</linearGradient>
<linearGradient id="paint16_linear_869_309" x1="1278.86" y1="138.475" x2="1279.26" y2="105.591" gradientUnits="userSpaceOnUse">
<stop stop-color="#00686D"/>
<stop offset="1" stop-color="#00AFC1"/>
</linearGradient>
<linearGradient id="paint17_linear_869_309" x1="1284.85" y1="95.5207" x2="1268.67" y2="14.0568" gradientUnits="userSpaceOnUse">
<stop stop-color="#00686D"/>
<stop offset="1" stop-color="#00AFC1"/>
</linearGradient>
<linearGradient id="paint18_linear_869_309" x1="1242.95" y1="84.2823" x2="1310.67" y2="21.5487" gradientUnits="userSpaceOnUse">
<stop stop-color="#00686D"/>
<stop offset="1" stop-color="#00AFC1"/>
</linearGradient>
<linearGradient id="paint19_linear_869_309" x1="1276.58" y1="93.3059" x2="1276.58" y2="58.1668" gradientUnits="userSpaceOnUse">
<stop stop-color="white"/>
<stop offset="1"/>
</linearGradient>
<linearGradient id="paint20_linear_869_309" x1="1283.39" y1="87.5979" x2="1270.08" y2="20.568" gradientUnits="userSpaceOnUse">
<stop stop-color="#F2F2F2"/>
<stop offset="1" stop-color="white"/>
</linearGradient>
<linearGradient id="paint21_linear_869_309" x1="1248.91" y1="78.3505" x2="1304.63" y2="26.7323" gradientUnits="userSpaceOnUse">
<stop stop-color="#F2F2F2"/>
<stop offset="1" stop-color="white"/>
</linearGradient>
<linearGradient id="paint22_linear_869_309" x1="1275.94" y1="152.963" x2="1283.04" y2="141.673" gradientUnits="userSpaceOnUse">
<stop stop-color="#00686D"/>
<stop offset="1" stop-color="#00AFC1"/>
</linearGradient>
<linearGradient id="paint23_linear_869_309" x1="494.763" y1="209.246" x2="494.873" y2="173.02" gradientUnits="userSpaceOnUse">
<stop stop-color="#00ABBE"/>
<stop offset="1" stop-color="#005E68"/>
</linearGradient>
<linearGradient id="paint24_linear_869_309" x1="502.323" y1="155.52" x2="486.146" y2="74.0564" gradientUnits="userSpaceOnUse">
<stop stop-color="#00ABBE"/>
<stop offset="1" stop-color="#007C89"/>
</linearGradient>
<linearGradient id="paint25_linear_869_309" x1="460.423" y1="144.282" x2="528.138" y2="81.5481" gradientUnits="userSpaceOnUse">
<stop stop-color="#00ABBE"/>
<stop offset="1" stop-color="#008897"/>
</linearGradient>
<linearGradient id="paint26_linear_869_309" x1="494.056" y1="153.305" x2="494.056" y2="118.166" gradientUnits="userSpaceOnUse">
<stop stop-color="white"/>
<stop offset="1"/>
</linearGradient>
<linearGradient id="paint27_linear_869_309" x1="500.858" y1="147.597" x2="487.547" y2="80.5675" gradientUnits="userSpaceOnUse">
<stop stop-color="#F2F2F2"/>
<stop offset="1" stop-color="white"/>
</linearGradient>
<linearGradient id="paint28_linear_869_309" x1="466.376" y1="138.35" x2="522.093" y2="86.7318" gradientUnits="userSpaceOnUse">
<stop stop-color="#F2F2F2"/>
<stop offset="1" stop-color="white"/>
</linearGradient>
<linearGradient id="paint29_linear_869_309" x1="491.161" y1="226.268" x2="498.93" y2="213.921" gradientUnits="userSpaceOnUse">
<stop stop-color="#00ABBE"/>
<stop offset="1" stop-color="#00ABBE"/>
</linearGradient>
</defs>
</svg>
