<svg width="388" height="388" viewBox="0 0 388 388" fill="none" xmlns="http://www.w3.org/2000/svg">
<g clip-path="url(#clip0_840_21737)">
<path d="M194.868 369.136C297.096 369.136 379.968 320.451 379.968 260.395C379.968 200.339 297.096 151.654 194.868 151.654C92.6408 151.654 9.76904 200.339 9.76904 260.395C9.76904 320.451 92.6408 369.136 194.868 369.136Z" fill="#F5F5F5"/>
<path d="M26.1594 288.369L138.439 353.189C139.874 353.916 141.459 354.294 143.068 354.294C144.676 354.294 146.262 353.916 147.697 353.189L359.125 231.116C361.686 229.642 361.686 227.236 359.125 225.777L246.854 160.95C245.419 160.223 243.833 159.845 242.225 159.845C240.617 159.845 239.031 160.223 237.596 160.95L26.1594 283.023C23.6064 284.497 23.6064 286.895 26.1594 288.369Z" fill="#E0E0E0"/>
<path opacity="0.1" d="M226.592 204.274C239.021 204.274 249.096 198.458 249.096 191.284C249.096 184.11 239.021 178.294 226.592 178.294C214.164 178.294 204.088 184.11 204.088 191.284C204.088 198.458 214.164 204.274 226.592 204.274Z" fill="black"/>
<path d="M13.0181 266.762C11.4661 267.98 11.6135 269.711 13.5225 270.805L118.065 331.17C119.244 331.765 120.547 332.075 121.868 332.075C123.188 332.075 124.491 331.765 125.67 331.17L325.451 215.818C327.383 214.7 327.546 212.939 325.901 211.72C326.881 212.466 327.687 213.414 328.266 214.5C328.845 215.586 329.182 216.785 329.254 218.014V223.042C329.186 224.363 328.806 225.648 328.145 226.793C327.484 227.939 326.561 228.911 325.451 229.63L125.686 344.975C124.507 345.576 123.202 345.889 121.879 345.889C120.556 345.889 119.252 345.576 118.073 344.975L13.4992 284.625C12.3907 283.905 11.4683 282.933 10.8075 281.788C10.1466 280.643 9.76602 279.357 9.69678 278.037V273.001C9.7692 271.783 10.1034 270.596 10.6766 269.519C11.2497 268.442 12.0484 267.502 13.0181 266.762Z" fill="#263238"/>
<path d="M13.4987 270.805L118.041 331.17C119.221 331.765 120.523 332.075 121.844 332.075C123.165 332.075 124.467 331.765 125.646 331.17L325.451 215.817C327.554 214.607 327.554 212.636 325.451 211.433L220.908 151.06C219.73 150.465 218.429 150.156 217.11 150.156C215.79 150.156 214.489 150.465 213.311 151.06L13.4987 266.42C11.4268 267.631 11.4191 269.602 13.4987 270.805ZM197.24 166.673C199.033 165.634 200.903 166.231 202.672 167.279L297.732 222.165C299.525 223.197 299.532 224.881 297.732 225.929L142.206 315.735C141.194 316.246 140.077 316.512 138.943 316.512C137.81 316.512 136.692 316.246 135.68 315.735L40.6587 260.849C38.8507 259.809 38.8507 258.125 40.6587 257.093L197.24 166.673Z" fill="#455A64"/>
<path d="M325.909 211.72C326.888 212.466 327.695 213.414 328.273 214.5C328.852 215.586 329.189 216.785 329.261 218.014V223.042C329.192 224.362 328.812 225.648 328.151 226.793C327.49 227.938 326.568 228.91 325.459 229.63L125.685 344.975C124.512 345.602 123.197 345.918 121.867 345.891V332.109C123.194 332.137 124.506 331.824 125.677 331.201L325.451 215.818C327.391 214.7 327.554 212.939 325.909 211.72Z" fill="#37474F"/>
<path d="M263.161 187.175C261.757 186.399 261.757 185.041 263.161 184.234C263.951 183.833 264.825 183.624 265.71 183.624C266.596 183.624 267.47 183.833 268.26 184.234C269.672 185.01 269.672 186.361 268.26 187.175C267.47 187.577 266.596 187.786 265.71 187.786C264.825 187.786 263.951 187.577 263.161 187.175Z" fill="black"/>
<path d="M75.6726 299.517C73.495 299.56 71.3422 299.047 69.418 298.027C67.6565 297.003 66.6865 295.621 66.6865 294.147C66.6865 292.672 67.6565 291.276 69.418 290.267C72.8635 288.28 78.474 288.28 81.9194 290.267C83.6887 291.291 84.6587 292.672 84.6587 294.147C84.6587 295.621 83.6887 297.026 81.9194 298.027C79.9976 299.046 77.8477 299.559 75.6726 299.517ZM75.6726 289.724C73.6677 289.684 71.6859 290.157 69.9147 291.097C68.4791 291.928 67.6798 293.006 67.6798 294.124C67.6798 295.241 68.4558 296.327 69.9147 297.158C71.6984 298.061 73.6695 298.531 75.6687 298.531C77.6679 298.531 79.639 298.061 81.4228 297.158C82.8661 296.327 83.6576 295.249 83.6576 294.124C83.6576 292.998 82.8816 291.928 81.4228 291.097C79.6572 290.146 77.6777 289.663 75.6726 289.693V289.724Z" fill="#E6E6E6"/>
<path d="M265.698 196.937L246.026 185.577C244.846 184.902 244.792 183.831 245.894 183.195C246.539 182.886 247.248 182.732 247.964 182.745C248.679 182.759 249.381 182.939 250.015 183.272L269.694 194.633C270.866 195.316 270.92 196.379 269.818 197.015C269.173 197.326 268.464 197.481 267.749 197.467C267.033 197.454 266.33 197.272 265.698 196.937Z" fill="black"/>
<path d="M197.24 166.674C199.033 165.634 200.903 166.231 202.672 167.279L297.732 222.165C299.525 223.197 299.532 224.881 297.732 225.929L142.206 315.735C141.194 316.246 140.077 316.512 138.943 316.512C137.81 316.512 136.692 316.246 135.68 315.735L40.6588 260.849C38.8507 259.809 38.8507 258.125 40.6588 257.093L197.24 166.674Z" fill="#A3C8C3"/>
<path d="M197.994 106.048L196.022 107.048L208.265 131.171L210.237 130.17L197.994 106.048Z" fill="#37474F"/>
<path d="M220.728 104.112L208.785 123.404L210.666 124.569L222.609 105.276L220.728 104.112Z" fill="#37474F"/>
<path d="M207.403 101.811V189.111C207.416 189.277 207.473 189.437 207.569 189.573C207.664 189.71 207.795 189.818 207.947 189.887C208.353 190.09 208.8 190.196 209.254 190.196C209.708 190.196 210.156 190.09 210.562 189.887C210.714 189.82 210.846 189.712 210.941 189.575C211.037 189.438 211.094 189.278 211.105 189.111V101.811H207.403Z" fill="#37474F"/>
<path d="M205.779 92.0736C207.212 80.4315 198.936 69.8316 187.294 68.398C175.652 66.9644 165.052 75.24 163.619 86.8821C162.185 98.5242 170.461 109.124 182.103 110.558C193.745 111.991 204.345 103.716 205.779 92.0736Z" fill="#51B5AC"/>
<path opacity="0.15" d="M177.739 91.9559C171.64 81.5187 173.401 73.0215 174.231 71.0039C175.582 67.7214 180.89 68.2491 184.7 68.2491C188.278 68.2503 191.798 69.1556 194.933 70.8809C198.068 72.6062 200.716 75.0956 202.632 78.1179C204.547 81.1403 205.668 84.5976 205.891 88.1691C206.113 91.7405 205.429 95.3101 203.903 98.5467C202.377 101.783 200.058 104.582 197.161 106.682C194.264 108.783 190.883 110.118 187.333 110.563C183.782 111.007 180.177 110.548 176.851 109.227C173.526 107.906 170.588 105.766 168.311 103.006C174.604 104.853 183.66 102.09 177.739 91.9559Z" fill="black"/>
<path d="M240.252 108.886C249.933 104.876 254.53 93.7777 250.52 84.0967C246.51 74.4158 235.411 69.8185 225.73 73.8285C216.049 77.8385 211.452 88.9372 215.462 98.6182C219.472 108.299 230.571 112.896 240.252 108.886Z" fill="#51B5AC"/>
<path opacity="0.15" d="M232.989 72.3853C236.97 72.3798 240.85 73.6318 244.078 75.9626C244.59 87.5561 234.766 98.8546 237.497 102.657C240.229 106.459 247.026 104.124 249.386 100.896C247.713 103.773 245.312 106.159 242.425 107.816C239.538 109.472 236.267 110.34 232.938 110.332C229.61 110.324 226.343 109.44 223.464 107.771C220.585 106.101 218.196 103.703 216.536 100.818C214.877 97.9325 214.006 94.6616 214.01 91.3334C214.015 88.0051 214.895 84.7366 216.561 81.8559C218.228 78.9752 220.624 76.5836 223.507 74.9213C226.39 73.259 229.66 72.3844 232.989 72.3853Z" fill="black"/>
<path d="M209.259 105.707C228.484 105.707 244.07 90.1211 244.07 70.8953C244.07 51.6696 228.484 36.084 209.259 36.084C190.033 36.084 174.447 51.6696 174.447 70.8953C174.447 90.1211 190.033 105.707 209.259 105.707Z" fill="#51B5AC"/>
<path opacity="0.1" d="M234.542 46.9868C235.153 49.589 235.465 52.2523 235.473 54.9253C235.473 74.1546 225.858 94.7108 200.165 94.7108C190.209 94.7108 178.437 88.2545 175.387 78.8494C176.166 82.1693 177.429 85.3566 179.135 88.3088C179.376 88.7123 179.616 89.0848 179.911 89.5116V89.5659C181.154 91.5151 182.589 93.3349 184.195 94.9979L184.381 95.1997C184.637 95.4635 184.909 95.7274 185.157 95.9757L185.467 96.2706C185.724 96.5111 185.987 96.7439 186.243 96.9767L186.608 97.2949C186.864 97.5199 187.128 97.7372 187.384 97.9545L187.772 98.2571L188.595 98.8935L188.828 99.0564C189.402 99.4755 189.984 99.8712 190.581 100.251L191.031 100.539C191.28 100.694 191.536 100.833 191.807 100.981L192.413 101.33L193.15 101.726L193.809 102.067L194.547 102.416L195.253 102.735L195.982 103.053L196.758 103.355C196.991 103.449 197.224 103.542 197.457 103.619L198.473 103.968L199.381 104.248C199.73 104.349 200.08 104.457 200.436 104.55L201.119 104.713L202.004 104.915L202.733 105.063L203.603 105.218L204.379 105.334L205.263 105.443L206.039 105.528L206.986 105.598L207.692 105.645H208.941H209.337C216.121 105.621 222.75 103.615 228.408 99.8739C234.067 96.1324 238.508 90.8185 241.186 84.5859C243.864 78.3532 244.662 71.4737 243.482 64.7936C242.301 58.1134 239.194 51.924 234.542 46.9868Z" fill="black"/>
<path d="M123.052 95.2526C122.572 94.9226 122.011 94.7283 121.429 94.6901C120.847 94.6519 120.266 94.7711 119.746 95.0353C116.642 96.3933 113.926 101.243 113.725 105.946C113.601 108.724 114.392 110.796 115.703 111.735L119.118 114.195C119.596 114.52 120.154 114.711 120.731 114.746C121.309 114.782 121.886 114.661 122.4 114.397C125.504 113.046 128.22 108.189 128.43 103.486C128.546 100.731 127.77 98.667 126.474 97.7203L123.052 95.2526Z" fill="#7EB68E"/>
<path opacity="0.3" d="M123.052 95.2526C122.572 94.9226 122.011 94.7283 121.429 94.6901C120.847 94.6519 120.266 94.7711 119.746 95.0353C116.642 96.3933 113.926 101.243 113.725 105.946C113.601 108.724 114.392 110.796 115.703 111.735L119.118 114.195C119.596 114.52 120.154 114.711 120.731 114.746C121.309 114.782 121.886 114.661 122.4 114.397C125.504 113.046 128.22 108.189 128.43 103.486C128.546 100.731 127.77 98.667 126.474 97.7203L123.052 95.2526Z" fill="black"/>
<path d="M127.233 82.9529C124.905 81.2612 121.879 80.9586 118.55 82.4019C112.854 84.8619 107.686 91.7915 104.877 99.893C104.31 101.538 104.489 103.199 105.296 103.827C106.242 104.557 107.872 105.635 108.679 106.256C109.703 107.032 111.302 105.899 112.016 103.82C113.987 98.0849 117.634 93.1961 121.638 91.4656C122.965 90.8353 124.464 90.666 125.898 90.9845C126.412 91.7212 126.827 92.5222 127.132 93.3668C127.238 93.6749 127.432 93.9448 127.691 94.1428L131.098 96.595C131.827 97.1149 132.929 96.6648 133.783 95.3611C134.217 94.7175 134.511 93.9895 134.644 93.2246C134.778 92.4597 134.749 91.6752 134.559 90.9224C133.84 88.7378 132.489 86.8152 130.679 85.3973L127.233 82.9529Z" fill="#7EB68E"/>
<path opacity="0.3" d="M127.233 82.9529C124.905 81.2612 121.879 80.9586 118.55 82.4019C112.854 84.8619 107.686 91.7915 104.877 99.893C104.31 101.538 104.489 103.199 105.296 103.827C106.242 104.557 107.872 105.635 108.679 106.256C109.703 107.032 111.302 105.899 112.016 103.82C113.987 98.0849 117.634 93.1961 121.638 91.4656C122.965 90.8353 124.464 90.666 125.898 90.9845C126.412 91.7212 126.827 92.5222 127.132 93.3668C127.238 93.6749 127.432 93.9448 127.691 94.1428L131.098 96.595C131.827 97.1149 132.929 96.6648 133.783 95.3611C134.217 94.7175 134.511 93.9895 134.644 93.2246C134.778 92.4597 134.749 91.6752 134.559 90.9224C133.84 88.7378 132.489 86.8152 130.679 85.3973L127.233 82.9529Z" fill="black"/>
<path d="M140.419 78.2581C139.228 75.5297 137.358 73.1519 134.987 71.3517C134.405 70.9249 132.1 69.272 131.534 68.8685C127.739 66.137 121.407 65.4231 116.014 67.7356C106.554 71.8406 100.385 77.8236 94.6813 92.1097C93.9907 93.848 94.2545 95.625 95.1236 96.3079L95.8298 96.8511C96.8153 97.6271 98.344 98.5971 99.2132 99.28C100.199 100.056 101.712 98.9851 102.488 97.014C106.306 87.3451 113.686 80.0041 120.607 77.0088C124.185 75.4568 127.475 75.4568 130.245 76.7294C131.431 77.9914 132.399 79.4416 133.109 81.0207C133.224 81.285 133.406 81.5149 133.637 81.688C134.133 82.0372 136.818 84.016 137.02 84.1247C137.757 84.6524 138.851 84.2256 139.705 82.9219C140.714 81.463 140.993 79.4609 140.419 78.2581Z" fill="#7EB68E"/>
<path opacity="0.3" d="M140.419 78.2581C139.228 75.5297 137.358 73.1519 134.987 71.3517C134.405 70.9249 132.1 69.272 131.534 68.8685C127.739 66.137 121.407 65.4231 116.014 67.7356C106.554 71.8406 100.385 77.8236 94.6813 92.1097C93.9907 93.848 94.2545 95.625 95.1236 96.3079L95.8298 96.8511C96.8153 97.6271 98.344 98.5971 99.2132 99.28C100.199 100.056 101.712 98.9851 102.488 97.014C106.306 87.3451 113.686 80.0041 120.607 77.0088C124.185 75.4568 127.475 75.4568 130.245 76.7294C131.431 77.9914 132.399 79.4416 133.109 81.0207C133.224 81.285 133.406 81.5149 133.637 81.688C134.133 82.0372 136.818 84.016 137.02 84.1247C137.757 84.6524 138.851 84.2256 139.705 82.9219C140.714 81.463 140.993 79.4609 140.419 78.2581Z" fill="black"/>
<path d="M128.428 103.486C128.219 108.142 125.526 113.046 122.399 114.396C119.271 115.747 116.912 113.062 117.114 108.39C117.316 103.719 120.04 98.8299 123.144 97.4796C126.248 96.1294 128.63 98.8143 128.428 103.486Z" fill="#7EB68E"/>
<path d="M121.941 84.8385C116.245 87.3062 111.077 94.2281 108.276 102.337C107.701 103.975 107.88 105.643 108.687 106.264C109.711 107.04 111.31 105.907 112.024 103.827C113.995 98.0926 117.642 93.2038 121.646 91.4733C125.65 89.7428 129.003 91.5974 130.531 95.8111C131.09 97.3631 132.658 97.1303 133.791 95.3998C134.225 94.7562 134.519 94.0282 134.652 93.2633C134.786 92.4984 134.757 91.7139 134.567 90.9611C132.386 85.0092 127.645 82.3708 121.941 84.8385Z" fill="#7EB68E"/>
<path d="M120.173 70.3819C113.965 72.8651 109.705 76.0079 106.089 80.5475C102.817 84.7293 100.258 89.4225 98.5148 94.4379C97.8707 96.1916 97.5293 98.054 99.2442 99.2801C100.23 100.056 101.743 98.9852 102.519 97.0142C106.337 87.3452 113.717 80.0043 120.639 77.0089C127.56 74.0136 133.435 76.7916 136.531 83.4575C137.167 84.8232 138.642 84.5904 139.736 82.922C140.698 81.4476 140.962 79.4456 140.403 78.266C136.616 70.118 128.228 67.1615 120.173 70.3819Z" fill="#7EB68E"/>
<path opacity="0.1" d="M213.053 227.505L180.709 208.835C180.109 208.525 179.444 208.364 178.769 208.364C178.094 208.364 177.429 208.525 176.829 208.835L72.0693 269.308C70.9984 269.929 70.9984 270.922 72.0693 271.543L104.413 290.214C105.014 290.52 105.679 290.679 106.353 290.679C107.027 290.679 107.692 290.52 108.293 290.214L119.522 283.758C120.15 288.514 123.611 293.178 129.912 296.818C143.88 304.896 166.625 304.896 180.624 296.818C194.623 288.739 194.631 275.617 180.624 267.531C174.323 263.892 166.26 261.898 158.011 261.533L213.107 229.717C214.124 229.119 214.124 228.118 213.053 227.505Z" fill="black"/>
<path d="M152.609 229.484C152.219 229.483 151.836 229.378 151.5 229.181L127.599 215.384C126.314 214.635 125.248 213.564 124.505 212.277C123.762 210.989 123.368 209.53 123.362 208.043V180.441C123.362 179.852 123.596 179.288 124.012 178.872C124.428 178.455 124.993 178.222 125.581 178.222C126.17 178.222 126.734 178.455 127.151 178.872C127.567 179.288 127.801 179.852 127.801 180.441V208.043C127.801 208.752 127.988 209.448 128.342 210.063C128.696 210.677 129.205 211.187 129.818 211.543L153.719 225.34C154.143 225.584 154.475 225.961 154.663 226.413C154.851 226.865 154.884 227.366 154.757 227.839C154.631 228.312 154.352 228.729 153.963 229.027C153.575 229.324 153.099 229.485 152.609 229.484Z" fill="#1F786E"/>
<path d="M103.813 257.032C103.423 257.031 103.04 256.926 102.704 256.729L78.8029 242.932C77.5185 242.183 76.452 241.112 75.7089 239.825C74.9657 238.537 74.5717 237.078 74.5659 235.591V207.989C74.5659 207.4 74.7997 206.836 75.216 206.42C75.6322 206.003 76.1967 205.77 76.7853 205.77C77.3739 205.77 77.9384 206.003 78.3546 206.42C78.7708 206.836 79.0046 207.4 79.0046 207.989V235.591C79.0053 236.3 79.192 236.996 79.546 237.611C79.9001 238.225 80.4091 238.735 81.0222 239.091L104.923 252.888C105.347 253.132 105.679 253.509 105.867 253.961C106.055 254.413 106.088 254.914 105.961 255.387C105.835 255.86 105.556 256.277 105.167 256.575C104.779 256.872 104.303 257.033 103.813 257.032Z" fill="#1F786E"/>
<path d="M199.728 201.726C199.341 201.724 198.961 201.62 198.627 201.424L174.718 187.642C173.435 186.892 172.37 185.821 171.628 184.533C170.887 183.246 170.494 181.787 170.489 180.301V152.722C170.522 152.157 170.77 151.626 171.182 151.238C171.594 150.85 172.138 150.634 172.704 150.634C173.27 150.634 173.815 150.85 174.226 151.238C174.638 151.626 174.886 152.157 174.92 152.722V180.324C174.933 181.023 175.126 181.707 175.481 182.309C175.836 182.912 176.34 183.412 176.945 183.762L200.846 197.559C201.27 197.803 201.602 198.18 201.79 198.632C201.978 199.084 202.011 199.585 201.884 200.058C201.758 200.531 201.478 200.948 201.09 201.246C200.702 201.543 200.226 201.704 199.736 201.703L199.728 201.726Z" fill="#1F786E"/>
<path d="M107.949 254.277V285.868C107.926 286.094 107.841 286.308 107.704 286.489C107.567 286.669 107.384 286.809 107.173 286.893C106.621 287.172 106.011 287.318 105.392 287.318C104.774 287.318 104.163 287.172 103.611 286.893C103.401 286.809 103.217 286.669 103.081 286.489C102.944 286.308 102.859 286.094 102.835 285.868V254.277H107.949Z" fill="#1F786E"/>
<path d="M86.8656 242.272V273.856C86.8408 274.082 86.7557 274.297 86.6192 274.478C86.4826 274.66 86.2997 274.801 86.0896 274.888C85.5375 275.167 84.9274 275.313 84.3086 275.313C83.6899 275.313 83.0798 275.167 82.5277 274.888C82.3239 274.797 82.1481 274.654 82.0184 274.472C81.8888 274.291 81.8101 274.078 81.7905 273.856V242.272H86.8656Z" fill="#1F786E"/>
<path d="M203.784 198.949V230.532C203.763 230.753 203.684 230.966 203.555 231.147C203.425 231.328 203.25 231.472 203.047 231.564C202.494 231.844 201.882 231.989 201.262 231.989C200.642 231.989 200.031 231.844 199.478 231.564C199.268 231.477 199.085 231.336 198.948 231.154C198.811 230.973 198.726 230.758 198.702 230.532V198.949H203.784Z" fill="#1F786E"/>
<path d="M182.702 186.936V218.527C182.682 218.748 182.603 218.96 182.474 219.14C182.344 219.32 182.168 219.462 181.965 219.551C181.412 219.831 180.8 219.977 180.18 219.977C179.56 219.977 178.949 219.831 178.396 219.551C178.185 219.468 178.002 219.328 177.865 219.147C177.728 218.967 177.643 218.752 177.62 218.527V186.936H182.702Z" fill="#1F786E"/>
<g opacity="0.65">
<path d="M152.609 229.484C152.219 229.483 151.836 229.379 151.5 229.182L127.599 215.384C126.314 214.636 125.248 213.564 124.505 212.277C123.762 210.989 123.368 209.53 123.362 208.043V180.441C123.362 179.852 123.596 179.288 124.012 178.872C124.428 178.456 124.993 178.222 125.581 178.222C126.17 178.222 126.734 178.456 127.151 178.872C127.567 179.288 127.801 179.852 127.801 180.441V208.043C127.801 208.752 127.988 209.449 128.342 210.063C128.696 210.677 129.205 211.187 129.818 211.543L153.719 225.34C154.143 225.584 154.475 225.961 154.663 226.413C154.851 226.865 154.884 227.366 154.757 227.839C154.631 228.312 154.352 228.729 153.963 229.027C153.575 229.324 153.099 229.485 152.609 229.484Z" fill="black"/>
<path d="M103.813 257.032C103.423 257.031 103.04 256.927 102.703 256.73L78.8024 242.932C77.5181 242.184 76.4515 241.112 75.7084 239.825C74.9652 238.537 74.5713 237.078 74.5654 235.591V207.989C74.5654 207.4 74.7993 206.836 75.2155 206.42C75.6317 206.003 76.1962 205.77 76.7848 205.77C77.3734 205.77 77.9379 206.003 78.3541 206.42C78.7703 206.836 79.0042 207.4 79.0042 207.989V235.591C79.0048 236.3 79.1915 236.997 79.5455 237.611C79.8996 238.225 80.4086 238.735 81.0217 239.091L104.923 252.888C105.347 253.132 105.679 253.509 105.867 253.961C106.054 254.413 106.088 254.914 105.961 255.387C105.834 255.86 105.555 256.277 105.167 256.575C104.778 256.872 104.302 257.033 103.813 257.032Z" fill="black"/>
<path d="M199.728 201.726C199.341 201.724 198.961 201.62 198.627 201.424L174.718 187.642C173.435 186.892 172.37 185.821 171.628 184.533C170.887 183.246 170.494 181.787 170.489 180.301V152.722C170.522 152.157 170.77 151.626 171.182 151.238C171.594 150.85 172.138 150.634 172.704 150.634C173.27 150.634 173.815 150.85 174.226 151.238C174.638 151.626 174.886 152.157 174.92 152.722V180.324C174.933 181.023 175.126 181.707 175.481 182.309C175.836 182.912 176.34 183.412 176.945 183.762L200.846 197.559C201.27 197.803 201.602 198.18 201.79 198.632C201.978 199.084 202.011 199.585 201.884 200.058C201.758 200.531 201.478 200.948 201.09 201.246C200.702 201.543 200.226 201.704 199.736 201.703L199.728 201.726Z" fill="black"/>
<path d="M107.949 254.277V285.868C107.926 286.094 107.841 286.308 107.704 286.489C107.567 286.669 107.384 286.809 107.173 286.893C106.621 287.172 106.011 287.318 105.392 287.318C104.774 287.318 104.163 287.172 103.611 286.893C103.401 286.809 103.217 286.669 103.081 286.489C102.944 286.308 102.859 286.094 102.835 285.868V254.277H107.949Z" fill="black"/>
<path d="M86.8656 242.273V273.856C86.8408 274.082 86.7557 274.297 86.6192 274.478C86.4826 274.66 86.2997 274.801 86.0896 274.888C85.5375 275.167 84.9274 275.313 84.3086 275.313C83.6899 275.313 83.0798 275.167 82.5277 274.888C82.3239 274.797 82.1481 274.654 82.0184 274.472C81.8888 274.291 81.8101 274.078 81.7905 273.856V242.273H86.8656Z" fill="black"/>
<path d="M203.784 198.949V230.532C203.763 230.753 203.684 230.966 203.555 231.147C203.425 231.328 203.25 231.472 203.047 231.564C202.494 231.844 201.882 231.989 201.262 231.989C200.642 231.989 200.031 231.844 199.478 231.564C199.268 231.477 199.085 231.336 198.948 231.154C198.811 230.973 198.726 230.758 198.702 230.532V198.949H203.784Z" fill="black"/>
<path d="M182.702 186.936V218.527C182.682 218.748 182.603 218.96 182.474 219.14C182.344 219.32 182.168 219.462 181.965 219.551C181.412 219.831 180.8 219.977 180.18 219.977C179.56 219.977 178.949 219.831 178.396 219.551C178.185 219.468 178.002 219.328 177.865 219.147C177.728 218.967 177.643 218.752 177.62 218.527V186.936H182.702Z" fill="black"/>
</g>
<path d="M69.6255 214.251L69.1832 213.995C68.8106 213.754 68.5003 213.427 68.2778 213.043C68.0553 212.659 67.9268 212.227 67.9028 211.784V207.818C67.9274 207.374 68.0561 206.941 68.2785 206.556C68.5009 206.17 68.8108 205.843 69.1832 205.599L174.541 144.753C174.938 144.554 175.377 144.45 175.821 144.45C176.266 144.45 176.704 144.554 177.102 144.753L177.544 145.009C177.916 145.252 178.226 145.58 178.449 145.966C178.671 146.351 178.8 146.784 178.824 147.228V151.209C178.8 151.653 178.671 152.086 178.449 152.471C178.226 152.857 177.916 153.185 177.544 153.428L72.1863 214.251C71.7901 214.454 71.3512 214.56 70.9059 214.56C70.4607 214.56 70.0218 214.454 69.6255 214.251Z" fill="#1F786E"/>
<path opacity="0.5" d="M177.543 146.514L72.1857 207.314C71.8133 207.557 71.5034 207.885 71.281 208.271C71.0586 208.656 70.9299 209.089 70.9053 209.533V213.514C70.9053 214.329 71.4795 214.662 72.1857 214.29L177.543 153.467C177.916 153.223 178.225 152.895 178.448 152.51C178.67 152.124 178.799 151.692 178.824 151.248V147.267C178.824 146.413 178.249 146.079 177.543 146.514Z" fill="black"/>
<path opacity="0.4" d="M177.542 145.009L177.099 144.753C176.702 144.554 176.263 144.45 175.819 144.45C175.375 144.45 174.936 144.554 174.539 144.753L69.1811 205.583C68.8113 205.82 68.5092 206.149 68.3042 206.538L71.2996 208.268C71.523 207.883 71.834 207.556 72.2075 207.314L177.542 146.514C178.248 146.103 178.822 146.437 178.822 147.251C178.801 146.803 178.674 146.366 178.452 145.976C178.229 145.586 177.917 145.255 177.542 145.009Z" fill="black"/>
<path opacity="0.6" d="M70.9051 209.541C70.9225 209.095 71.0505 208.66 71.2776 208.276L68.3055 206.538C68.2081 206.703 68.1275 206.877 68.065 207.058C67.9755 207.307 67.9283 207.569 67.9253 207.834V211.815C67.9529 212.258 68.0828 212.69 68.305 213.075C68.5271 213.46 68.8354 213.788 69.2057 214.034L69.3764 214.135L69.648 214.282L69.8498 214.383H69.9041L70.0826 214.445H70.1912L70.3697 214.484H70.5016H70.6801H71.1302H71.3397H71.3863C71.5661 214.458 71.7428 214.413 71.9139 214.352H71.7277C71.6607 214.36 71.5929 214.36 71.5259 214.352H71.4639C71.4202 214.344 71.3782 214.328 71.3397 214.306H71.2931L71.1845 214.22C71.1532 214.175 71.1247 214.129 71.0991 214.081V214.042C71.0728 213.974 71.052 213.904 71.037 213.832C71.0284 213.739 71.0284 213.646 71.037 213.553L70.9051 209.541Z" fill="black"/>
<path d="M69.6255 226.442L69.1832 226.186C68.8108 225.942 68.5009 225.615 68.2785 225.229C68.0561 224.844 67.9274 224.411 67.9028 223.967V219.986C67.9268 219.542 68.0553 219.111 68.2778 218.727C68.5003 218.342 68.8106 218.016 69.1832 217.774L174.541 156.92C174.937 156.717 175.376 156.612 175.821 156.612C176.266 156.612 176.705 156.717 177.102 156.92L177.544 157.176C177.916 157.42 178.226 157.748 178.449 158.134C178.671 158.519 178.8 158.951 178.824 159.396V163.369C178.802 163.814 178.674 164.247 178.451 164.633C178.228 165.018 177.918 165.346 177.544 165.588L72.1863 226.442C71.7901 226.645 71.3512 226.751 70.9059 226.751C70.4607 226.751 70.0218 226.645 69.6255 226.442Z" fill="#1F786E"/>
<path opacity="0.5" d="M177.543 158.659L72.1857 219.458C71.8133 219.702 71.5034 220.03 71.281 220.415C71.0586 220.801 70.9299 221.233 70.9053 221.678V225.666C70.9053 226.481 71.4795 226.815 72.1857 226.442L177.543 165.619C177.916 165.376 178.225 165.048 178.448 164.662C178.67 164.277 178.799 163.844 178.824 163.4V159.396C178.824 158.581 178.249 158.247 177.543 158.659Z" fill="black"/>
<path opacity="0.4" d="M177.542 157.176L177.099 156.92C176.702 156.722 176.263 156.618 175.819 156.618C175.375 156.618 174.936 156.722 174.539 156.92L69.1811 217.751C68.8143 217.982 68.5125 218.302 68.3042 218.682L71.2996 220.413C71.5164 220.03 71.8192 219.703 72.1842 219.458L177.542 158.635C178.248 158.224 178.822 158.558 178.822 159.372C178.794 158.932 178.664 158.504 178.441 158.123C178.219 157.742 177.911 157.418 177.542 157.176Z" fill="black"/>
<path opacity="0.6" d="M70.9051 221.701C70.9225 221.255 71.0505 220.82 71.2776 220.436L68.3055 218.682C68.2067 218.846 68.126 219.021 68.065 219.202C67.9746 219.451 67.9274 219.713 67.9253 219.978V223.951C67.9428 224.408 68.0792 224.852 68.321 225.239C68.5298 225.622 68.8347 225.943 69.2057 226.171L69.3764 226.271L69.648 226.427L69.8498 226.52H69.9041L70.0826 226.582L70.1912 226.621H70.3697C70.4136 226.624 70.4577 226.624 70.5016 226.621H70.6801H71.1302H71.3397H71.3863C71.5663 226.592 71.7431 226.545 71.9139 226.481C71.8537 226.501 71.7911 226.514 71.7277 226.52C71.6607 226.528 71.5929 226.528 71.5259 226.52H71.4639L71.3397 226.473L71.2931 226.434C71.252 226.413 71.2152 226.384 71.1845 226.349V226.31C71.1498 226.268 71.1211 226.221 71.0991 226.171C71.0728 226.102 71.052 226.032 71.037 225.961C71.0287 225.868 71.0287 225.775 71.037 225.682L70.9051 221.701Z" fill="black"/>
<path d="M69.6255 238.579L69.1832 238.33C68.8108 238.087 68.5009 237.759 68.2785 237.373C68.0561 236.988 67.9274 236.555 67.9028 236.111V232.13C67.9274 231.686 68.0561 231.253 68.2785 230.868C68.5009 230.482 68.8108 230.155 69.1832 229.911L174.541 169.088C174.937 168.885 175.376 168.779 175.821 168.779C176.266 168.779 176.705 168.885 177.102 169.088L177.544 169.336C177.916 169.58 178.226 169.908 178.449 170.293C178.671 170.679 178.8 171.111 178.824 171.556V175.537C178.8 175.981 178.671 176.413 178.449 176.799C178.226 177.184 177.916 177.512 177.544 177.756L72.1863 238.579C71.7901 238.782 71.3512 238.888 70.9059 238.888C70.4607 238.888 70.0218 238.782 69.6255 238.579Z" fill="#1F786E"/>
<path opacity="0.5" d="M177.543 170.818L72.1857 231.641C71.8133 231.885 71.5034 232.213 71.281 232.598C71.0586 232.984 70.9299 233.416 70.9053 233.86V237.841C70.9053 238.656 71.4795 238.99 72.1857 238.579L177.543 177.756C177.916 177.512 178.225 177.184 178.448 176.799C178.67 176.413 178.799 175.981 178.824 175.536V171.555C178.824 170.741 178.249 170.407 177.543 170.818Z" fill="black"/>
<path opacity="0.4" d="M177.542 169.336L177.099 169.08C176.702 168.882 176.263 168.778 175.819 168.778C175.375 168.778 174.936 168.882 174.539 169.08L69.1811 229.911C68.8113 230.148 68.5092 230.477 68.3042 230.865L71.2996 232.596C71.5164 232.213 71.8192 231.887 72.1842 231.641L177.542 170.819C178.248 170.407 178.822 170.741 178.822 171.595C178.804 171.143 178.678 170.703 178.455 170.311C178.232 169.918 177.919 169.584 177.542 169.336Z" fill="black"/>
<path opacity="0.6" d="M70.9051 233.861C70.9238 233.415 71.0517 232.981 71.2776 232.596L68.3055 230.865C68.2081 231.03 68.1275 231.204 68.065 231.385C67.9746 231.634 67.9274 231.897 67.9253 232.161V236.142C67.9438 236.598 68.0802 237.042 68.321 237.43C68.5323 237.809 68.8368 238.127 69.2057 238.354L69.3764 238.455L69.648 238.61C69.7114 238.649 69.7791 238.68 69.8498 238.703H69.9041L70.0826 238.757L70.1912 238.796L70.3697 238.835H70.5016H70.6801H71.1302H71.3397H71.3863C71.567 238.809 71.7441 238.762 71.9139 238.695C71.8537 238.716 71.7911 238.729 71.7277 238.734C71.661 238.746 71.5927 238.746 71.5259 238.734H71.4639L71.3397 238.687H71.2931C71.2535 238.661 71.217 238.629 71.1845 238.594V238.555C71.1516 238.515 71.123 238.47 71.0991 238.424V238.385C71.0738 238.314 71.0531 238.241 71.037 238.167C71.0287 238.075 71.0287 237.981 71.037 237.888L70.9051 233.861Z" fill="black"/>
<path d="M94.9272 258.087V258.592C94.95 259.037 95.0779 259.47 95.3005 259.855C95.5231 260.241 95.834 260.569 96.2077 260.811L99.6609 262.805C100.058 263.004 100.497 263.108 100.941 263.108C101.386 263.108 101.824 263.004 102.222 262.805L207.571 201.975C207.946 201.733 208.257 201.405 208.479 201.02C208.702 200.634 208.83 200.2 208.852 199.755V199.282C208.83 198.838 208.702 198.406 208.479 198.021C208.257 197.637 207.945 197.311 207.571 197.07L204.103 195.037C203.705 194.839 203.267 194.735 202.822 194.735C202.378 194.735 201.939 194.839 201.542 195.037L96.2387 255.868C95.8592 256.107 95.5423 256.433 95.3142 256.819C95.0861 257.205 94.9534 257.64 94.9272 258.087Z" fill="#1F786E"/>
<path opacity="0.4" d="M102.225 259.337L207.574 198.506C207.73 198.455 207.865 198.356 207.961 198.224C208.057 198.092 208.108 197.932 208.108 197.769C208.108 197.605 208.057 197.446 207.961 197.314C207.865 197.181 207.73 197.083 207.574 197.032L204.106 195.037C203.708 194.839 203.27 194.735 202.825 194.735C202.381 194.735 201.942 194.839 201.545 195.037L96.2417 255.868C96.0864 255.919 95.9513 256.018 95.8554 256.15C95.7596 256.282 95.708 256.442 95.708 256.605C95.708 256.769 95.7596 256.928 95.8554 257.06C95.9513 257.193 96.0864 257.291 96.2417 257.342L99.6949 259.337C100.088 259.53 100.521 259.631 100.96 259.631C101.398 259.631 101.831 259.53 102.225 259.337Z" fill="black"/>
<path opacity="0.55" d="M207.706 197.109C208.28 197.52 208.234 198.126 207.582 198.506L102.224 259.337C101.827 259.544 101.384 259.648 100.936 259.639V263.108C101.384 263.116 101.827 263.012 102.224 262.805L207.582 201.975C207.953 201.73 208.262 201.402 208.485 201.017C208.707 200.631 208.836 200.199 208.862 199.755V199.282C208.844 198.856 208.731 198.44 208.531 198.064C208.331 197.688 208.049 197.362 207.706 197.109Z" fill="black"/>
<path opacity="0.6" d="M99.6562 259.337L96.2418 257.342C95.6288 256.985 95.5512 256.435 96.009 256.031C95.7006 256.282 95.448 256.594 95.2676 256.948C95.0872 257.303 94.9829 257.691 94.9614 258.087V258.592C94.9981 259.272 95.2728 259.917 95.7374 260.415C95.8844 260.569 96.0515 260.702 96.2341 260.811L99.6795 262.805C100.074 263.012 100.515 263.116 100.96 263.108V259.639C100.507 259.651 100.058 259.547 99.6562 259.337Z" fill="black"/>
<path d="M84.4209 252.05V252.554C84.4437 252.999 84.5716 253.432 84.7942 253.818C85.0167 254.204 85.3276 254.531 85.7013 254.774L89.1467 256.768C89.5443 256.967 89.9827 257.07 90.4271 257.07C90.8716 257.07 91.31 256.967 91.7075 256.768L197.065 195.938C197.437 195.694 197.747 195.366 197.97 194.98C198.192 194.595 198.321 194.163 198.345 193.718V193.206C198.322 192.763 198.193 192.331 197.971 191.947C197.748 191.562 197.438 191.236 197.065 190.994L193.62 189C193.222 188.801 192.784 188.698 192.339 188.698C191.895 188.698 191.456 188.801 191.059 189L85.7013 249.8C85.3235 250.045 85.01 250.377 84.7872 250.769C84.5644 251.161 84.4388 251.6 84.4209 252.05Z" fill="#1F786E"/>
<path opacity="0.4" d="M91.7099 253.268L197.067 192.438C197.223 192.387 197.358 192.288 197.454 192.156C197.549 192.023 197.601 191.864 197.601 191.7C197.601 191.537 197.549 191.378 197.454 191.245C197.358 191.113 197.223 191.014 197.067 190.963L193.622 188.969C193.224 188.77 192.786 188.667 192.342 188.667C191.897 188.667 191.459 188.77 191.061 188.969L85.7036 249.8C85.5484 249.851 85.4132 249.949 85.3174 250.082C85.2215 250.214 85.1699 250.373 85.1699 250.537C85.1699 250.7 85.2215 250.859 85.3174 250.992C85.4132 251.124 85.5484 251.223 85.7036 251.274L89.1491 253.268C89.5466 253.467 89.985 253.571 90.4295 253.571C90.8739 253.571 91.3123 253.467 91.7099 253.268Z" fill="black"/>
<path opacity="0.55" d="M197.199 191.041C197.766 191.452 197.727 192.058 197.067 192.438L91.7096 253.269C91.3147 253.475 90.8746 253.579 90.4292 253.571V257.04C90.8746 257.047 91.3147 256.943 91.7096 256.737L197.067 195.907C197.44 195.663 197.75 195.336 197.973 194.95C198.195 194.564 198.324 194.132 198.348 193.687V193.175C198.324 192.757 198.209 192.349 198.01 191.981C197.812 191.612 197.535 191.291 197.199 191.041Z" fill="black"/>
<path opacity="0.6" d="M89.1467 253.268L85.7013 251.274C85.0805 250.917 85.0029 250.366 85.4685 249.963C85.1593 250.213 84.9063 250.525 84.7258 250.879C84.5453 251.234 84.4414 251.622 84.4209 252.019V252.523C84.4563 253.204 84.7311 253.85 85.1969 254.347C85.3466 254.501 85.5163 254.634 85.7013 254.743L89.1467 256.737C89.5409 256.945 89.9816 257.049 90.4271 257.04V253.602C89.9788 253.602 89.538 253.487 89.1467 253.268Z" fill="black"/>
<path d="M73.9053 245.951V246.455C73.928 246.9 74.056 247.333 74.2785 247.719C74.5011 248.105 74.812 248.432 75.1857 248.674L78.6311 250.669C79.0287 250.867 79.467 250.971 79.9115 250.971C80.356 250.971 80.7944 250.867 81.1919 250.669L186.549 189.838C186.914 189.594 187.218 189.269 187.436 188.888C187.654 188.507 187.781 188.08 187.807 187.642V187.13C187.782 186.685 187.653 186.253 187.431 185.868C187.208 185.482 186.899 185.154 186.526 184.91L183.081 182.924C182.683 182.725 182.245 182.622 181.8 182.622C181.356 182.622 180.917 182.725 180.52 182.924L75.1857 243.731C74.812 243.974 74.5011 244.301 74.2785 244.687C74.056 245.073 73.928 245.506 73.9053 245.951Z" fill="#1F786E"/>
<path opacity="0.4" d="M75.1885 245.206L78.6339 247.2C79.0315 247.399 79.4698 247.502 79.9143 247.502C80.3588 247.502 80.7972 247.399 81.1947 247.2L186.552 186.369C186.71 186.32 186.849 186.222 186.947 186.088C187.045 185.955 187.098 185.794 187.098 185.628C187.098 185.463 187.045 185.301 186.947 185.168C186.849 185.035 186.71 184.936 186.552 184.887L183.107 182.901C182.709 182.702 182.271 182.598 181.826 182.598C181.382 182.598 180.944 182.702 180.546 182.901L75.1885 243.731C75.0332 243.782 74.898 243.881 74.8022 244.013C74.7064 244.146 74.6548 244.305 74.6548 244.468C74.6548 244.632 74.7064 244.791 74.8022 244.923C74.898 245.056 75.0332 245.155 75.1885 245.206Z" fill="black"/>
<path opacity="0.55" d="M186.683 184.973C187.25 185.384 187.211 185.989 186.552 186.37L81.194 247.2C80.7995 247.407 80.359 247.511 79.9136 247.503V250.972C80.359 250.98 80.7995 250.876 81.194 250.669L186.552 189.838C186.917 189.595 187.221 189.27 187.439 188.888C187.657 188.507 187.784 188.081 187.809 187.642V187.13C187.791 186.71 187.681 186.299 187.487 185.926C187.292 185.553 187.018 185.228 186.683 184.973Z" fill="black"/>
<path opacity="0.6" d="M78.6311 247.2L75.1857 245.206C74.5649 244.849 74.495 244.298 74.9529 243.894C74.6437 244.144 74.3906 244.457 74.2101 244.811C74.0296 245.165 73.9258 245.554 73.9053 245.951V246.455C73.9431 247.133 74.2178 247.775 74.6813 248.271C74.8304 248.428 75.0001 248.563 75.1857 248.674L78.6311 250.669C79.0256 250.876 79.466 250.98 79.9115 250.971V247.503C79.466 247.511 79.0256 247.407 78.6311 247.2Z" fill="black"/>
<path d="M83.6245 241.334C83.5358 241.361 83.4583 241.416 83.4032 241.491C83.3481 241.566 83.3184 241.656 83.3184 241.749C83.3184 241.842 83.3481 241.932 83.4032 242.007C83.4583 242.081 83.5358 242.137 83.6245 242.164C83.8471 242.281 84.0948 242.342 84.3462 242.342C84.5976 242.342 84.8453 242.281 85.0679 242.164C85.1566 242.137 85.2341 242.081 85.2892 242.007C85.3443 241.932 85.3741 241.842 85.3741 241.749C85.3741 241.656 85.3443 241.566 85.2892 241.491C85.2341 241.416 85.1566 241.361 85.0679 241.334C84.8442 241.22 84.5969 241.161 84.3462 241.161C84.0955 241.161 83.8483 241.22 83.6245 241.334Z" fill="black"/>
<path d="M94.1625 247.449C94.0749 247.478 93.9987 247.535 93.9448 247.61C93.8908 247.685 93.8618 247.775 93.8618 247.868C93.8618 247.96 93.8908 248.05 93.9448 248.125C93.9987 248.201 94.0749 248.257 94.1625 248.287C94.3873 248.401 94.6359 248.461 94.8881 248.461C95.1403 248.461 95.3889 248.401 95.6137 248.287C95.7013 248.257 95.7775 248.201 95.8314 248.125C95.8854 248.05 95.9144 247.96 95.9144 247.868C95.9144 247.775 95.8854 247.685 95.8314 247.61C95.7775 247.535 95.7013 247.478 95.6137 247.449C95.3889 247.334 95.1403 247.274 94.8881 247.274C94.6359 247.274 94.3873 247.334 94.1625 247.449Z" fill="black"/>
<path d="M104.706 253.602C104.617 253.629 104.54 253.685 104.485 253.759C104.43 253.834 104.4 253.924 104.4 254.017C104.4 254.11 104.43 254.2 104.485 254.275C104.54 254.35 104.617 254.405 104.706 254.432C104.929 254.549 105.176 254.61 105.428 254.61C105.679 254.61 105.927 254.549 106.149 254.432C106.238 254.405 106.316 254.35 106.371 254.275C106.426 254.2 106.456 254.11 106.456 254.017C106.456 253.924 106.426 253.834 106.371 253.759C106.316 253.685 106.238 253.629 106.149 253.602C105.926 253.489 105.678 253.43 105.428 253.43C105.177 253.43 104.93 253.489 104.706 253.602Z" fill="black"/>
<path d="M179.459 186.028C179.372 186.058 179.296 186.114 179.242 186.189C179.188 186.264 179.159 186.355 179.159 186.447C179.159 186.54 179.188 186.63 179.242 186.705C179.296 186.78 179.372 186.836 179.459 186.866C179.682 186.983 179.93 187.044 180.181 187.044C180.433 187.044 180.68 186.983 180.903 186.866C180.99 186.836 181.067 186.78 181.121 186.705C181.174 186.63 181.203 186.54 181.203 186.447C181.203 186.355 181.174 186.264 181.121 186.189C181.067 186.114 180.99 186.058 180.903 186.028C180.678 185.917 180.431 185.859 180.181 185.859C179.931 185.859 179.684 185.917 179.459 186.028Z" fill="black"/>
<path d="M189.997 192.151C189.91 192.18 189.834 192.237 189.78 192.312C189.726 192.387 189.697 192.477 189.697 192.57C189.697 192.662 189.726 192.753 189.78 192.828C189.834 192.903 189.91 192.959 189.997 192.989C190.223 193.1 190.471 193.158 190.723 193.158C190.975 193.158 191.223 193.1 191.449 192.989C191.536 192.959 191.612 192.903 191.666 192.828C191.72 192.753 191.749 192.662 191.749 192.57C191.749 192.477 191.72 192.387 191.666 192.312C191.612 192.237 191.536 192.18 191.449 192.151C191.224 192.036 190.975 191.977 190.723 191.977C190.471 191.977 190.222 192.036 189.997 192.151Z" fill="black"/>
<path d="M200.544 198.266C200.457 198.295 200.381 198.352 200.327 198.427C200.273 198.502 200.244 198.592 200.244 198.685C200.244 198.777 200.273 198.867 200.327 198.942C200.381 199.018 200.457 199.074 200.544 199.104C200.767 199.221 201.015 199.282 201.266 199.282C201.517 199.282 201.765 199.221 201.988 199.104C202.075 199.074 202.152 199.018 202.205 198.942C202.259 198.867 202.288 198.777 202.288 198.685C202.288 198.592 202.259 198.502 202.205 198.427C202.152 198.352 202.075 198.295 201.988 198.266C201.763 198.155 201.516 198.097 201.266 198.097C201.016 198.097 200.769 198.155 200.544 198.266Z" fill="black"/>
<path d="M132.332 213.786C132.245 213.815 132.169 213.872 132.115 213.947C132.061 214.022 132.032 214.112 132.032 214.205C132.032 214.297 132.061 214.387 132.115 214.462C132.169 214.538 132.245 214.594 132.332 214.624C132.557 214.738 132.806 214.798 133.058 214.798C133.31 214.798 133.559 214.738 133.784 214.624C133.871 214.594 133.947 214.538 134.001 214.462C134.055 214.387 134.084 214.297 134.084 214.205C134.084 214.112 134.055 214.022 134.001 213.947C133.947 213.872 133.871 213.815 133.784 213.786C133.558 213.675 133.31 213.617 133.058 213.617C132.806 213.617 132.558 213.675 132.332 213.786Z" fill="black"/>
<path d="M142.879 219.908C142.792 219.938 142.716 219.994 142.662 220.069C142.608 220.144 142.579 220.235 142.579 220.327C142.579 220.42 142.608 220.51 142.662 220.585C142.716 220.66 142.792 220.717 142.879 220.746C143.104 220.857 143.351 220.915 143.601 220.915C143.851 220.915 144.098 220.857 144.323 220.746C144.41 220.717 144.487 220.66 144.54 220.585C144.594 220.51 144.623 220.42 144.623 220.327C144.623 220.235 144.594 220.144 144.54 220.069C144.487 219.994 144.41 219.938 144.323 219.908C144.099 219.795 143.852 219.736 143.601 219.736C143.35 219.736 143.103 219.795 142.879 219.908Z" fill="black"/>
<path d="M153.417 226.023C153.33 226.053 153.254 226.109 153.2 226.184C153.146 226.259 153.117 226.35 153.117 226.442C153.117 226.535 153.146 226.625 153.2 226.7C153.254 226.775 153.33 226.831 153.417 226.861C153.642 226.976 153.891 227.035 154.143 227.035C154.395 227.035 154.644 226.976 154.869 226.861C154.956 226.831 155.032 226.775 155.086 226.7C155.14 226.625 155.169 226.535 155.169 226.442C155.169 226.35 155.14 226.259 155.086 226.184C155.032 226.109 154.956 226.053 154.869 226.023C154.643 225.912 154.395 225.854 154.143 225.854C153.891 225.854 153.643 225.912 153.417 226.023Z" fill="black"/>
<path d="M76.7874 207.042C76.5465 207.197 76.3462 207.408 76.2032 207.656C76.0601 207.905 75.9784 208.184 75.9648 208.47C75.9648 208.99 76.3296 209.246 76.7874 208.943C77.0265 208.786 77.2255 208.575 77.3683 208.327C77.5112 208.079 77.5939 207.801 77.61 207.515C77.6177 206.988 77.2375 206.778 76.7874 207.042Z" fill="black"/>
<path d="M76.7874 219.179C76.547 219.334 76.347 219.545 76.204 219.793C76.061 220.042 75.979 220.32 75.9648 220.606C75.9648 221.134 76.3296 221.344 76.7874 221.08C77.0265 220.923 77.2255 220.712 77.3683 220.464C77.5112 220.216 77.5939 219.938 77.61 219.652C77.6177 219.124 77.2375 218.915 76.7874 219.179Z" fill="black"/>
<path d="M76.7874 231.315C76.547 231.471 76.347 231.682 76.204 231.93C76.061 232.178 75.979 232.457 75.9648 232.743C75.9648 233.271 76.3296 233.48 76.7874 233.217C77.027 233.06 77.2263 232.849 77.3692 232.601C77.5121 232.353 77.5945 232.075 77.61 231.789C77.6177 231.269 77.2375 231.052 76.7874 231.315Z" fill="black"/>
<path d="M172.7 151.768C172.46 151.924 172.261 152.135 172.118 152.383C171.975 152.631 171.892 152.91 171.877 153.196C171.877 153.715 172.249 153.933 172.7 153.669C172.941 153.513 173.141 153.302 173.286 153.054C173.43 152.806 173.514 152.528 173.53 152.241C173.53 151.713 173.157 151.504 172.7 151.768Z" fill="black"/>
<path d="M172.7 163.904C172.46 164.062 172.261 164.273 172.119 164.521C171.976 164.768 171.893 165.046 171.877 165.332C171.877 165.86 172.249 166.069 172.7 165.806C172.943 165.648 173.145 165.435 173.289 165.184C173.433 164.933 173.516 164.651 173.53 164.362C173.53 163.85 173.157 163.64 172.7 163.904Z" fill="black"/>
<path d="M172.7 176.041C172.46 176.198 172.261 176.409 172.119 176.657C171.976 176.905 171.893 177.183 171.877 177.469C171.877 177.996 172.249 178.245 172.7 177.942C172.941 177.787 173.143 177.577 173.287 177.329C173.432 177.08 173.515 176.801 173.53 176.514C173.53 176.002 173.157 175.777 172.7 176.041Z" fill="black"/>
<path d="M125.581 179.517C125.341 179.674 125.142 179.885 124.999 180.133C124.856 180.381 124.774 180.659 124.758 180.945C124.758 181.473 125.123 181.721 125.581 181.426C125.821 181.271 126.021 181.06 126.164 180.812C126.307 180.563 126.389 180.285 126.403 179.998C126.403 179.471 126.039 179.261 125.581 179.517Z" fill="black"/>
<path d="M125.581 191.662C125.34 191.818 125.14 192.028 124.997 192.277C124.854 192.525 124.772 192.803 124.758 193.09C124.758 193.61 125.123 193.827 125.581 193.563C125.821 193.407 126.021 193.196 126.164 192.948C126.307 192.7 126.389 192.421 126.403 192.135C126.403 191.607 126.039 191.398 125.581 191.662Z" fill="black"/>
<path d="M125.581 203.798C125.34 203.954 125.14 204.165 124.997 204.413C124.854 204.661 124.772 204.94 124.758 205.226C124.758 205.754 125.123 206.002 125.581 205.7C125.821 205.544 126.021 205.333 126.164 205.085C126.307 204.837 126.389 204.558 126.403 204.272C126.403 203.752 126.039 203.535 125.581 203.798Z" fill="black"/>
<path d="M117.967 168.498C125.945 167.955 128.164 170.376 133.425 174.38C137.158 177.22 143.281 181.574 143.281 181.574C143.281 181.574 147.37 168.265 147.277 166.496C147.168 164.37 146.229 163.695 145.725 161.475C145.221 159.256 145.182 157.727 144.561 156.819C143.94 155.912 145.795 155.547 146.656 156.656C147.518 157.766 147.727 159.411 148.208 159.07C148.689 158.728 148.798 155.19 148.146 152.645C147.494 150.099 148.876 149.347 149.465 150.115C149.788 150.524 150.066 150.966 150.296 151.434C150.851 151.209 151.457 151.138 152.05 151.228C152.642 151.318 153.2 151.566 153.663 151.946C155.091 153.304 156.457 155.384 156.767 159.171C157.078 162.958 155.386 165.961 154.998 167.652C154.432 170.167 153.834 183.948 150.823 191.359C149.45 194.735 146.509 194.696 143.839 193.206L126.814 183.685C121.723 181.209 115.244 172.215 117.967 168.498Z" fill="#FFA8A7"/>
<path d="M119.155 168.436C120.533 168.089 121.967 168.025 123.37 168.248C124.773 168.47 126.116 168.975 127.319 169.732C131.47 172.301 142.986 181.031 142.986 181.031C142.986 181.031 145.151 175.149 145.469 174.047C145.469 174.047 149.831 176.739 154.044 175.785C154.044 175.785 153.268 185.803 151.716 190.288C150.164 194.774 148.535 194.905 145.407 194.168C142.28 193.431 124.828 183.809 124.828 183.809L119.155 168.436Z" fill="#1F786E"/>
<path opacity="0.1" d="M119.155 168.436C120.533 168.089 121.967 168.025 123.37 168.248C124.773 168.47 126.116 168.975 127.319 169.732C131.47 172.301 142.986 181.031 142.986 181.031C142.986 181.031 145.151 175.149 145.469 174.047C145.469 174.047 149.831 176.739 154.044 175.785C154.044 175.785 153.268 185.803 151.716 190.288C150.164 194.774 148.535 194.905 145.407 194.168C142.28 193.431 124.828 183.809 124.828 183.809L119.155 168.436Z" fill="black"/>
<path d="M140.519 272.777C140.519 272.777 142.684 281.313 144.143 283.944C145.709 286.988 147.643 289.828 149.901 292.402C150.452 293.015 151.693 294.148 152.143 294.637C152.248 294.734 152.33 294.853 152.384 294.986C152.438 295.118 152.462 295.261 152.454 295.404C152.447 295.547 152.408 295.686 152.341 295.812C152.274 295.939 152.18 296.049 152.066 296.135C150.987 297.205 146.347 297.531 143.708 295.63C141.07 293.729 138.85 290.555 137.267 289.011C136.491 288.235 135.715 287.505 135.188 286.962C134.931 286.704 134.745 286.385 134.647 286.034C134.549 285.684 134.543 285.314 134.629 284.96C134.683 284.758 134.738 284.518 134.8 284.239C135.351 281.724 132.34 275.361 132.34 275.361C134.528 272.226 137.694 272.319 140.519 272.777Z" fill="#FFA8A7"/>
<path d="M134.488 287.498C134.426 287.925 134.477 288.361 134.636 288.763C134.892 289.337 136.537 290.315 137.383 290.741C138.356 291.239 139.148 292.028 139.649 293C140.699 294.867 142.275 296.383 144.181 297.361C146.761 298.411 149.601 298.65 152.321 298.044C155.704 297.368 155.937 295.359 155.937 295.359C155.937 295.359 156.085 293.473 155.231 293.194C154.377 292.914 134.488 287.498 134.488 287.498Z" fill="#263238"/>
<path d="M134.358 281.686C134.379 281.989 134.366 282.293 134.319 282.593C134.234 283.525 134.156 284.145 134.125 285.185C134.069 285.979 134.194 286.775 134.49 287.513C135.514 288.887 137.889 289.29 139.294 291.161C140.698 293.031 142.398 295.917 146.844 296.717C151.29 297.516 154.658 296.026 155.458 294.746C156.257 293.465 155.458 292.286 152.594 290.804C149.537 289.252 145.858 284.937 145.851 284.929C145.486 284.502 145.16 284.014 144.826 283.556C144.411 283.049 144.076 282.481 143.833 281.872C143.621 281.227 143.501 280.556 143.476 279.877C143.477 279.82 143.461 279.763 143.43 279.715C143.385 279.681 143.33 279.662 143.274 279.66C141.61 279.503 139.94 279.893 138.518 280.77C138.365 280.848 138.233 280.959 138.13 281.096C138.059 281.217 138.006 281.347 137.974 281.484C137.881 281.841 137.78 282.198 137.687 282.555C137.669 282.7 137.619 282.84 137.541 282.965C137.464 283.089 137.36 283.196 137.237 283.276C136.911 283.424 136.546 283.191 136.267 282.974C135.988 282.756 135.794 282.244 135.491 282.004C135.17 281.753 134.763 281.639 134.358 281.686Z" fill="#455A64"/>
<path d="M143.932 295.692C143.971 294.662 144.29 293.661 144.854 292.799C145.419 291.936 146.208 291.243 147.137 290.796C150.458 289.019 152.515 290.082 153.562 290.796C154.796 291.649 156.581 293.45 155.549 294.808C154.517 296.166 152.608 296.988 149.186 297.097C147.326 297.241 145.472 296.745 143.932 295.692Z" fill="#FAFAFA"/>
<path d="M95.395 211.962C95.395 215.702 95.7675 228.017 99.6242 232.829C102.146 235.933 104.125 237.213 110.193 241.365C116.813 245.92 117.682 246.75 119.304 247.906C120.236 248.501 121.041 249.275 121.671 250.184C122.301 251.092 122.744 252.117 122.974 253.199C123.541 256.163 124.076 259.089 126.97 265.227C129.244 270.053 131.774 274.469 133.054 276.913C134.979 277.247 139.782 276.323 141.039 274.694C140.341 271.039 136.383 245.136 134.653 241.326C132.922 237.516 119.451 225.961 119.451 225.961C119.451 225.961 118.388 218.977 119.451 214.453L95.395 211.962Z" fill="#37474F"/>
<path d="M162 261.843C162 261.843 164.165 270.34 165.624 273.01C167.19 276.045 169.124 278.875 171.382 281.437C171.925 282.05 173.166 283.183 173.617 283.672C173.723 283.769 173.806 283.888 173.86 284.02C173.915 284.153 173.939 284.296 173.932 284.439C173.925 284.583 173.885 284.722 173.817 284.849C173.75 284.975 173.654 285.085 173.539 285.17C172.46 286.241 167.82 286.574 165.181 284.665C162.543 282.756 160.324 279.59 158.748 278.046C157.972 277.27 157.196 276.541 156.669 275.997C156.41 275.741 156.223 275.421 156.125 275.07C156.027 274.719 156.022 274.349 156.11 273.995L156.273 273.274C156.832 270.759 153.821 264.396 153.821 264.396C155.994 261.261 159.175 261.362 162 261.843Z" fill="#FFA8A7"/>
<path d="M155.992 276.564C155.934 276.991 155.985 277.426 156.14 277.829C156.396 278.403 158.049 279.381 158.887 279.808C159.861 280.306 160.655 281.095 161.16 282.066C162.209 283.933 163.782 285.452 165.684 286.435C168.267 287.478 171.105 287.713 173.825 287.11C177.208 286.435 177.449 284.425 177.449 284.425C177.449 284.425 177.588 282.539 176.735 282.26C175.881 281.98 155.992 276.564 155.992 276.564Z" fill="#263238"/>
<path d="M155.831 270.752C155.865 271.054 155.865 271.358 155.831 271.66C155.737 272.599 155.668 273.212 155.629 274.252C155.573 275.045 155.697 275.841 155.993 276.58C157.018 277.953 159.392 278.364 160.797 280.227C162.201 282.089 163.901 284.984 168.347 285.783C172.794 286.582 176.162 285.1 176.961 283.812C177.76 282.524 176.961 281.352 174.105 279.87C171.001 278.318 167.362 274.003 167.362 273.995C166.989 273.569 166.664 273.08 166.33 272.622C165.919 272.113 165.587 271.545 165.344 270.938C165.13 270.294 165.007 269.622 164.98 268.944C164.984 268.886 164.968 268.828 164.933 268.781C164.888 268.747 164.834 268.728 164.778 268.726C163.114 268.575 161.446 268.964 160.021 269.836C159.871 269.914 159.741 270.026 159.641 270.162C159.567 270.281 159.514 270.413 159.485 270.55C159.385 270.907 159.291 271.264 159.191 271.629C159.09 271.993 159.012 272.226 158.741 272.343C158.469 272.459 158.058 272.257 157.771 272.04C157.483 271.823 157.297 271.311 156.995 271.078C156.832 270.948 156.646 270.853 156.446 270.797C156.246 270.741 156.036 270.726 155.831 270.752Z" fill="#455A64"/>
<path d="M165.41 284.759C165.446 283.728 165.762 282.728 166.326 281.864C166.889 281.001 167.678 280.309 168.607 279.862C171.929 278.085 173.993 279.148 175.033 279.862C176.274 280.716 178.059 282.516 177.019 283.874C175.979 285.232 174.078 286.055 170.656 286.202C168.794 286.336 166.942 285.827 165.41 284.759Z" fill="#FAFAFA"/>
<path d="M97.0172 214.523C96.2412 219.078 117.581 228.25 117.581 228.25C117.581 228.25 120.507 229.344 126.482 232.262C131.248 234.504 135.883 237.014 140.365 239.782C142.049 240.821 143.368 241.403 143.857 243.941C144.423 246.905 144.167 248.217 147.923 255.201C150.445 259.903 153.262 263.566 154.542 266.01C156.467 266.344 161.27 265.421 162.527 263.791C161.837 260.136 157.871 234.233 156.141 230.423C154.41 226.613 128.275 211.566 128.275 211.566L97.0172 214.523Z" fill="#37474F"/>
<path d="M126.612 232.332L121.366 225.239C121.366 225.239 127.054 221.809 128.249 215.702C128.241 217.542 127.827 219.358 127.037 221.02C126.247 222.681 125.1 224.149 123.679 225.317L126.612 232.332Z" fill="#263238"/>
<path d="M107.103 168.328C100.429 169.561 95.9829 170.997 94.7258 172.208C91.8934 178.02 96.1071 201.408 96.1071 201.408L95.1991 206.6L93.6006 215.695C100.81 221.786 124.291 220.056 128.226 211.528C128.226 211.528 128.226 184.631 127.69 179.712C127.124 174.054 124.051 168.134 116.493 167.691L107.103 168.328Z" fill="#F5F5F5"/>
<path d="M102.276 213.25C100.344 210.286 100.011 202.735 100.011 202.735C100.011 202.735 100.212 183.103 99.4363 178.423L93.9655 185.772C94.4185 191.013 95.1437 196.227 96.1383 201.393L95.2304 206.584L94.1673 212.645L93.6318 215.679C93.8414 215.858 94.0742 216.021 94.307 216.191L94.5475 216.339C94.7105 216.447 94.8812 216.556 95.0597 216.657L95.3623 216.828L95.89 217.099L96.2237 217.254L96.8057 217.503L97.1316 217.635L97.9076 217.898L98.1249 217.976L99.1492 218.271L99.4363 218.341L100.212 218.535L100.624 218.612C100.856 218.667 101.097 218.713 101.338 218.752L101.78 218.83L102.517 218.938L102.959 219C103.231 219.039 103.51 219.062 103.782 219.094L104.162 219.132C104.566 219.171 104.938 219.202 105.38 219.225H105.551C105.9 219.225 106.25 219.264 106.607 219.272H108.376H109.152H109.672L110.448 219.225H110.937L111.883 219.148H112.202C112.613 219.148 113.024 219.055 113.435 219L113.87 218.938L114.685 218.822L115.189 218.729L115.911 218.597L116.431 218.488L117.129 218.333L117.634 218.217L118.363 218.023L118.798 217.906C119.162 217.805 119.527 217.689 119.884 217.573L120.202 217.464L120.978 217.192L121.405 217.022L122.01 216.773L122.445 216.579L123.003 216.315L123.407 216.114L123.95 215.811L124.307 215.609C124.532 215.477 124.742 215.338 124.943 215.198L125.145 215.074C114.537 218.512 104.201 216.238 102.276 213.25Z" fill="#EBEBEB"/>
<path d="M106.095 148.594C106.043 151.198 107.027 153.717 108.832 155.595C110.636 157.474 113.113 158.559 115.717 158.612C121.025 158.612 124.176 154.003 125.332 148.594C127.458 138.7 121.025 138.576 115.717 138.576C113.113 138.629 110.636 139.714 108.832 141.592C107.027 143.471 106.043 145.989 106.095 148.594Z" fill="#263238"/>
<path d="M101.193 152.645C101.193 152.645 102.667 159.869 103.257 161.056C103.636 161.791 104.288 162.348 105.073 162.608L104.972 157.526L101.193 152.645Z" fill="#263238"/>
<path d="M103.036 142.308C103.036 142.308 101.98 142.044 100.855 143.798C99.893 145.304 99.6757 148.679 101.189 152.644L103.967 152.978L103.036 142.308Z" fill="#263238"/>
<path d="M102.022 143.767L98.6159 143.829C98.5875 143.607 98.6063 143.381 98.6709 143.166C98.7355 142.952 98.8445 142.753 98.9908 142.583C99.1372 142.413 99.3176 142.276 99.5204 142.181C99.7232 142.085 99.9438 142.033 100.168 142.029C100.638 142.037 101.087 142.219 101.43 142.54C101.773 142.862 101.984 143.299 102.022 143.767Z" fill="#263238"/>
<path d="M101.603 142.96L99.0732 140.531C99.22 140.36 99.4004 140.222 99.6032 140.124C99.806 140.026 100.027 139.971 100.252 139.962C100.477 139.953 100.701 139.991 100.911 140.073C101.121 140.155 101.312 140.279 101.471 140.438C101.806 140.765 102.005 141.206 102.03 141.673C102.054 142.141 101.902 142.6 101.603 142.96Z" fill="#263238"/>
<path d="M104.776 152.986C104.217 153.327 103.425 152.21 102.735 151.434C102.044 150.658 99.8945 149.975 98.777 152.435C97.6596 154.895 99.553 157.316 101.167 158.115C104.031 159.543 104.946 157.463 104.946 157.463L105.179 168.902C106.607 172.859 117.424 173.628 115.081 168.599V165.138C116.434 165.363 117.808 165.436 119.178 165.355C121.421 164.991 122.825 163.152 123.508 160.63C124.595 156.579 125.014 153.304 124.082 145.335C123.074 136.597 113.312 136.504 108.042 139.957C102.773 143.41 104.776 152.986 104.776 152.986Z" fill="#FFA8A7"/>
<path d="M116.965 143.984C114.637 143.752 112.309 143.278 109.981 143.107C109.479 143.045 108.97 143.069 108.475 143.177C106.683 143.658 106.923 145.738 106.629 147.197C106.14 149.696 105.736 153.94 104.789 153.956C104.51 153.956 103.447 152.125 102.749 151.465C102.37 150.898 102.156 150.237 102.128 149.556C101.949 148.516 101.856 147.461 101.779 146.452C101.709 145.567 101.623 144.667 101.623 143.775C101.58 142.771 101.658 141.765 101.856 140.779C102.082 139.94 102.511 139.17 103.106 138.537L103.284 138.343C104.455 137.118 105.877 136.16 107.451 135.534C109.718 134.679 112.096 134.156 114.513 133.982C116.924 133.813 119.325 133.523 121.706 133.113C121.843 133.074 121.988 133.074 122.125 133.113C122.22 133.166 122.3 133.242 122.358 133.334C122.417 133.427 122.451 133.532 122.459 133.64C122.557 134.193 122.496 134.762 122.283 135.281C122.07 135.8 121.714 136.249 121.256 136.574C122.862 136.698 124.717 135.86 126.269 135.441C126.518 135.34 126.796 135.34 127.045 135.441C127.196 135.555 127.305 135.716 127.356 135.898C127.466 136.319 127.479 136.76 127.394 137.187C127.247 138.463 126.771 139.68 126.013 140.717C124.812 142.28 123.115 143.388 121.202 143.86C119.804 144.117 118.375 144.159 116.965 143.984Z" fill="#263238"/>
<path d="M115.098 165.138C115.098 165.138 110.101 164.09 108.355 163.12C107.317 162.551 106.474 161.683 105.934 160.63C106.199 161.686 106.665 162.682 107.307 163.563C108.588 165.27 115.067 166.519 115.067 166.519L115.098 165.138Z" fill="#F28F8F"/>
<path d="M113.892 151.682C113.875 151.876 113.803 152.06 113.683 152.213C113.564 152.366 113.402 152.481 113.219 152.544C113.035 152.607 112.837 152.615 112.649 152.567C112.46 152.52 112.29 152.418 112.158 152.275C112.027 152.133 111.94 151.954 111.907 151.763C111.875 151.571 111.899 151.375 111.977 151.197C112.055 151.019 112.182 150.867 112.345 150.761C112.507 150.654 112.697 150.597 112.891 150.596C113.028 150.601 113.163 150.633 113.288 150.69C113.413 150.748 113.525 150.829 113.618 150.93C113.711 151.031 113.783 151.15 113.83 151.279C113.877 151.408 113.898 151.545 113.892 151.682Z" fill="#263238"/>
<path d="M112.285 147.36L110.144 148.594C109.989 148.289 109.955 147.938 110.046 147.609C110.138 147.28 110.35 146.997 110.64 146.817C110.783 146.738 110.94 146.689 111.102 146.674C111.264 146.659 111.427 146.678 111.582 146.729C111.736 146.78 111.878 146.862 112 146.971C112.121 147.079 112.218 147.212 112.285 147.36Z" fill="#263238"/>
<path d="M114.639 158.883L116.928 159.776C116.882 159.932 116.805 160.077 116.7 160.201C116.596 160.326 116.466 160.428 116.321 160.501C116.175 160.574 116.016 160.616 115.854 160.624C115.692 160.633 115.529 160.608 115.376 160.552C115.067 160.416 114.82 160.17 114.684 159.861C114.547 159.552 114.531 159.203 114.639 158.883Z" fill="#F28F8F"/>
<path d="M123.08 148.283L121.124 146.731C121.212 146.595 121.328 146.478 121.464 146.39C121.6 146.301 121.753 146.242 121.913 146.216C122.073 146.191 122.237 146.199 122.394 146.241C122.551 146.283 122.697 146.357 122.823 146.46C123.08 146.681 123.247 146.988 123.295 147.323C123.342 147.659 123.265 148 123.08 148.283Z" fill="#263238"/>
<path d="M122.219 151.387C122.203 151.581 122.13 151.765 122.011 151.918C121.891 152.071 121.729 152.186 121.546 152.249C121.362 152.312 121.164 152.32 120.976 152.272C120.787 152.225 120.617 152.123 120.486 151.98C120.354 151.838 120.267 151.66 120.235 151.468C120.202 151.277 120.227 151.08 120.304 150.902C120.382 150.724 120.51 150.572 120.672 150.466C120.834 150.359 121.024 150.302 121.218 150.301C121.355 150.306 121.49 150.338 121.615 150.396C121.74 150.453 121.852 150.535 121.945 150.636C122.038 150.737 122.11 150.855 122.157 150.984C122.204 151.113 122.225 151.25 122.219 151.387Z" fill="#263238"/>
<path d="M116.856 150.549L116.972 156.874L120.565 156.051L116.856 150.549Z" fill="#F28F8F"/>
<path d="M97.7922 170.656C91.6851 171.711 89.0545 173.403 87.5102 180.154C86.6333 183.979 82.9163 198.778 82.5593 203.496C82.2955 206.934 89.4502 224.137 93.9122 230.594C97.8621 236.313 99.6934 237.733 102.681 238.354C105.669 238.975 110.526 236.344 108.998 234.28C107.469 232.216 103.48 229.337 103.418 229.15C103.356 228.964 105.808 230.097 107.337 230.26C108.866 230.423 109.603 229.934 109.704 229.15C109.805 228.367 109.067 228.499 107.601 227.971C106.134 227.443 103.946 225.255 102.417 224.58C100.633 223.921 99.1474 222.64 98.2345 220.971C97.1714 218.954 93.2681 202.735 93.2681 202.735L97.6215 187.526C97.6215 187.526 101.672 176.701 97.7922 170.656Z" fill="#FFA8A7"/>
<path d="M98.451 170.431C98.451 170.431 91.5446 170.244 89.0691 174.311C86.5937 178.377 81.5962 202.332 81.9144 204.117C82.2326 205.901 87.9517 219.295 87.9517 219.295C90.4041 217.263 93.4046 216.004 96.573 215.679L93.632 202.735L99.3046 183.335C99.3046 183.335 101.353 175.482 98.451 170.431Z" fill="#1F786E"/>
<path opacity="0.1" d="M98.451 170.431C98.451 170.431 91.5446 170.244 89.0691 174.311C86.5937 178.377 81.5962 202.332 81.9144 204.117C82.2326 205.901 87.9517 219.295 87.9517 219.295C90.4041 217.263 93.4046 216.004 96.573 215.679L93.632 202.735L99.3046 183.335C99.3046 183.335 101.353 175.482 98.451 170.431Z" fill="black"/>
<path d="M383.713 71.8346L270.314 6.36349C269.013 5.61192 267.842 5.66869 267.013 6.35756L263.088 9.07235L265.765 12.3828V103.83C265.765 107.18 267.802 111.071 270.315 112.522L382.586 177.341L382.794 180.909L386.93 178.074C387.753 177.452 388.263 176.229 388.263 174.554V80.5256C388.263 77.1761 386.226 73.2844 383.713 71.8346Z" fill="#A2C7C3"/>
<path opacity="0.3" d="M383.713 71.8346L270.314 6.36349C269.013 5.61192 267.842 5.66869 267.013 6.35756L263.088 9.07235L265.765 12.3828V103.83C265.765 107.18 267.802 111.071 270.315 112.522L382.586 177.341L382.794 180.909L386.93 178.074C387.753 177.452 388.263 176.229 388.263 174.554V80.5256C388.263 77.1761 386.226 73.2844 383.713 71.8346Z" fill="#A2C7C3"/>
<path d="M379.851 180.65L266.452 115.179C263.94 113.728 261.903 109.838 261.903 106.487V12.4608C261.903 9.11137 263.94 7.57094 266.452 9.02155L379.851 74.4927C382.363 75.9433 384.4 79.835 384.4 83.1845V177.212C384.4 180.561 382.363 182.101 379.851 180.65Z" fill="#A2C7C3"/>
<path d="M358.666 168.42L366.578 172.989L310.333 34.3568H310.332L301.472 29.2416L358.666 168.42Z" fill="#A2C7C3"/>
<path opacity="0.2" d="M358.666 168.42L366.578 172.989L310.333 34.3568H310.332L301.472 29.2416L358.666 168.42Z" fill="white"/>
<path d="M376.472 178.72L379.222 180.232L322.976 41.6006L319.278 39.5408L376.472 178.72Z" fill="#A2C7C3"/>
<path opacity="0.2" d="M376.472 178.72L379.222 180.232L322.976 41.6006L319.278 39.5408L376.472 178.72Z" fill="white"/>
<path d="M277.3 28.4971C277.3 30.4222 275.947 31.2034 274.28 30.24C272.612 29.2775 271.261 26.9355 271.261 25.0104C271.261 23.0853 272.612 22.3049 274.28 23.2675C275.948 24.23 277.3 26.5712 277.3 28.4971Z" fill="#455A64"/>
<path d="M295.844 39.1724C295.714 39.1724 295.583 39.1394 295.463 39.0699L280.99 30.7111C280.624 30.5002 280.5 30.0341 280.71 29.669C280.921 29.3046 281.388 29.1801 281.752 29.3902L296.226 37.7489C296.591 37.9599 296.716 38.426 296.505 38.7911C296.363 39.036 296.107 39.1724 295.844 39.1724Z" fill="#455A64"/>
<path d="M374.955 159.377C374.77 159.377 374.582 159.33 374.409 159.23L270.712 99.3451C270.188 99.0426 270.008 98.3732 270.311 97.8504C270.613 97.3268 271.283 97.148 271.806 97.4496L375.503 157.334C376.027 157.637 376.207 158.306 375.904 158.829C375.701 159.181 375.333 159.377 374.955 159.377Z" fill="#455A64"/>
<path d="M374.957 81.8178C374.86 81.8178 374.762 81.7932 374.672 81.7415L371.899 80.1401C371.625 79.9817 371.531 79.6317 371.688 79.358C371.848 79.0843 372.196 78.992 372.471 79.1487L375.244 80.7502C375.517 80.9078 375.612 81.2586 375.454 81.5314C375.347 81.7153 375.155 81.8178 374.957 81.8178Z" fill="#455A64"/>
<path d="M374.957 83.8598C374.859 83.8598 374.761 83.8352 374.671 83.7827L371.898 82.1804C371.624 82.0228 371.531 81.6729 371.689 81.3992C371.846 81.1255 372.196 81.0315 372.47 81.1899L375.243 82.7922C375.517 82.9498 375.61 83.2997 375.452 83.5734C375.347 83.7573 375.154 83.8598 374.957 83.8598Z" fill="#455A64"/>
<path d="M374.957 85.9008C374.86 85.9008 374.762 85.8762 374.672 85.8245L371.899 84.2231C371.625 84.0646 371.531 83.7147 371.688 83.4419C371.848 83.1673 372.196 83.0741 372.471 83.2317L375.244 84.8332C375.517 84.9916 375.612 85.3415 375.454 85.6152C375.347 85.7982 375.155 85.9008 374.957 85.9008Z" fill="#455A64"/>
<path d="M312.359 75.816V91.5507C312.359 92.1836 312.911 92.6751 313.541 92.6022L327.834 90.9398C328.717 90.8372 329.088 89.7577 328.454 89.1341L314.16 75.0619C313.491 74.4027 312.359 74.8764 312.359 75.816Z" fill="#FAFAFA"/>
<path d="M315.377 122.612L271.807 97.4498C271.283 97.1473 270.614 97.3269 270.311 97.8506C270.009 98.3742 270.187 99.0436 270.712 99.3452L315.377 125.139V122.612Z" fill="#EBEBEB"/>
<path d="M318.398 125.36C318.398 127.286 317.047 128.067 315.379 127.103C313.712 126.141 312.359 123.8 312.359 121.874C312.359 119.949 313.711 119.168 315.379 120.131C317.046 121.093 318.398 123.434 318.398 125.36Z" fill="#FAFAFA"/>
<path d="M279.887 110.658V114.792C279.887 114.958 280.032 115.088 280.197 115.068L283.953 114.632C284.185 114.605 284.282 114.321 284.115 114.157L280.36 110.461C280.185 110.287 279.887 110.411 279.887 110.658Z" fill="#FAFAFA"/>
<path d="M289.139 116.285V120.419C289.139 120.585 289.284 120.715 289.449 120.695L293.204 120.259C293.436 120.232 293.534 119.948 293.367 119.784L289.611 116.087C289.436 115.914 289.139 116.038 289.139 116.285Z" fill="#FAFAFA"/>
<path d="M293.449 123.061C293.263 123.061 293.111 122.91 293.111 122.723V118.115C293.111 117.929 293.262 117.777 293.449 117.777C293.636 117.777 293.787 117.928 293.787 118.115V122.723C293.787 122.91 293.636 123.061 293.449 123.061Z" fill="#FAFAFA"/>
<path d="M274.814 111.177V107.043C274.814 106.877 274.669 106.748 274.504 106.767L270.749 107.204C270.517 107.231 270.419 107.515 270.586 107.679L274.341 111.376C274.517 111.549 274.814 111.425 274.814 111.177Z" fill="#FAFAFA"/>
<path d="M270.502 109.685C270.316 109.685 270.164 109.534 270.164 109.347V104.739C270.164 104.553 270.315 104.401 270.502 104.401C270.689 104.401 270.84 104.552 270.84 104.739V109.347C270.839 109.533 270.689 109.685 270.502 109.685Z" fill="#FAFAFA"/>
<path d="M370.9 163.663C370.689 163.663 370.518 163.492 370.518 163.282V161.603C370.518 161.467 370.591 161.341 370.709 161.273C370.828 161.204 370.972 161.204 371.09 161.273L372.511 162.093C372.693 162.198 372.756 162.431 372.65 162.614C372.546 162.797 372.311 162.859 372.129 162.754L371.281 162.264V163.283C371.281 163.492 371.111 163.663 370.9 163.663Z" fill="#FAFAFA"/>
<path d="M372.321 167.914C372.256 167.914 372.19 167.897 372.13 167.862L370.709 167.042C370.591 166.974 370.518 166.848 370.518 166.711V165.182C370.518 164.971 370.689 164.801 370.9 164.801C371.111 164.801 371.281 164.972 371.281 165.182V166.491L372.511 167.201C372.693 167.306 372.756 167.539 372.65 167.721C372.581 167.845 372.453 167.914 372.321 167.914Z" fill="#FAFAFA"/>
<path d="M375.322 169.647C375.256 169.647 375.19 169.63 375.131 169.596L373.669 168.752C373.486 168.647 373.424 168.414 373.53 168.232C373.635 168.05 373.868 167.987 374.051 168.092L374.94 168.605V167.776C374.94 167.565 375.111 167.395 375.322 167.395C375.533 167.395 375.703 167.565 375.703 167.776V169.266C375.703 169.402 375.63 169.528 375.512 169.596C375.454 169.63 375.388 169.647 375.322 169.647Z" fill="#FAFAFA"/>
<path d="M375.324 166.205C375.114 166.205 374.943 166.034 374.943 165.824V164.377L374.062 163.868C373.88 163.763 373.817 163.53 373.923 163.347C374.028 163.165 374.261 163.102 374.444 163.207L375.516 163.826C375.634 163.894 375.706 164.02 375.706 164.156V165.824C375.706 166.035 375.535 166.205 375.324 166.205Z" fill="#FAFAFA"/>
<path d="M365.522 163.988C365.456 163.988 365.39 163.971 365.331 163.937L359.953 160.832C359.835 160.764 359.762 160.638 359.762 160.501V155.393C359.762 155.256 359.835 155.13 359.953 155.062C360.072 154.994 360.217 154.994 360.334 155.062L365.712 158.168C365.83 158.235 365.903 158.362 365.903 158.498V163.607C365.903 163.743 365.83 163.869 365.712 163.937C365.654 163.971 365.588 163.988 365.522 163.988ZM360.526 160.282L365.14 162.946V158.718L360.526 156.054V160.282Z" fill="#FAFAFA"/>
</g>
<defs>
<clipPath id="clip0_840_21737">
<rect width="388" height="388" fill="white"/>
</clipPath>
</defs>
</svg>
