<svg width="30" height="30" viewBox="0 0 30 30" fill="none" xmlns="http://www.w3.org/2000/svg">
<g clip-path="url(#clip0_871_65)">
<path d="M10.1077 14.887L9.0484 15.949L10.9094 17.8131C11.051 17.955 11.051 18.2022 10.9094 18.3436C10.8381 18.416 10.7448 18.4508 10.6373 18.4508C10.5444 18.4508 10.4496 18.416 10.3672 18.3436L8.50822 16.4799L7.44846 17.5422L9.83761 19.9369C9.97866 20.0789 9.97866 20.3264 9.83761 20.4684C9.76784 20.5398 9.67345 20.5751 9.5675 20.5751C9.4621 20.5751 9.37973 20.5398 9.2974 20.4684L6.90626 18.0733L5.84649 19.1352L7.70851 20.9989C7.84705 21.1408 7.84705 21.3885 7.70851 21.5303C7.63623 21.6018 7.54133 21.637 7.43641 21.637C7.33046 21.637 7.24815 21.6018 7.16582 21.5303L5.3068 19.6662L4.24706 20.7281L6.63621 23.1233C6.77726 23.2652 6.77726 23.5123 6.63621 23.6543C6.56439 23.7262 6.47154 23.7609 6.36611 23.7609C6.27072 23.7609 6.1758 23.7262 6.09346 23.6543L3.70435 21.2596L2.64555 22.3215L4.50457 24.1857C4.64614 24.3271 4.64614 24.5742 4.50457 24.7162C4.43481 24.7886 4.33988 24.8229 4.23447 24.8229C4.1396 24.8229 4.04673 24.7886 3.96388 24.7162L2.10286 22.8524L0.513916 24.4454L5.82336 29.7686L15.382 20.1845L10.1077 14.887Z" fill="#DCE8E8"/>
<path d="M29.7563 5.84714L24.4469 0.524414L22.8574 2.11882L24.719 3.98298C24.8605 4.12488 24.8605 4.372 24.719 4.51344C24.6472 4.58487 24.5543 4.61962 24.4469 4.61962C24.3414 4.61962 24.2591 4.5849 24.1768 4.51344L22.3173 2.64874L21.2575 3.71219L23.6467 6.10682C23.7882 6.24875 23.7882 6.49635 23.6467 6.6378C23.5769 6.70871 23.482 6.74398 23.3766 6.74398C23.2712 6.74398 23.1868 6.70874 23.1045 6.6378L20.7154 4.24317L19.656 5.3051L21.5156 7.16875C21.6566 7.31069 21.6566 7.55831 21.5156 7.70022C21.4453 7.7707 21.3504 7.80591 21.245 7.80591C21.1396 7.80591 21.0572 7.7707 20.9748 7.70022L19.1153 5.83606L18.0561 6.89799L20.4457 9.29316C20.5868 9.43507 20.5868 9.68218 20.4457 9.82412C20.3735 9.89505 20.2806 9.92981 20.1752 9.92981C20.0802 9.92981 19.9854 9.89505 19.9031 9.82412L17.5375 7.43954L16.4777 8.50199L18.3368 10.3666C18.4783 10.5086 18.4783 10.7572 18.3368 10.8981C18.2674 10.9686 18.1726 11.0048 18.0671 11.0048C17.9612 11.0048 17.8788 10.9686 17.7971 10.8981L15.9356 9.03291L14.8757 10.0949L20.1861 15.4181L29.7563 5.84714Z" fill="#DCE8E8"/>
<path d="M5.76067 9.48129L7.62269 7.61762L9.48168 5.75243L8.42192 4.69055L4.7019 8.40879L5.76067 9.48129Z" fill="#DCE8E8"/>
<path d="M4.17317 7.87723L7.89421 4.1479L7.6241 3.87714C7.12808 3.38092 6.46944 3.10913 5.76208 3.10913C5.05773 3.10913 4.39706 3.38089 3.90309 3.87714C3.40955 4.37186 3.13696 5.03218 3.13696 5.74082C3.13696 6.44995 3.40955 7.10973 3.90309 7.60447L4.17317 7.87723Z" fill="#DCE8E8"/>
<path d="M7.89469 8.40869L6.29272 10.0121L21.5258 25.2833L22.3254 22.8881L7.89469 8.40869Z" fill="#DCE8E8"/>
<path d="M23.0559 23.0764L22.1738 25.7201L27.0004 27.0412L25.6815 22.2026L23.0559 23.0764Z" fill="#DCE8E8"/>
<path d="M8.4231 7.87722L22.8544 22.3577L25.245 21.5545L10.0126 6.28479L8.4231 7.87722Z" fill="#DCE8E8"/>
</g>
<defs>
<clipPath id="clip0_871_65">
<rect width="29.2435" height="29.2435" fill="white" transform="translate(0.516846 0.526123)"/>
</clipPath>
</defs>
</svg>
