<svg width="30" height="30" viewBox="0 0 30 30" fill="none" xmlns="http://www.w3.org/2000/svg">
<path d="M29.9971 15.1478C29.9971 18.0394 29.1396 20.866 27.5332 23.2703C25.9267 25.6745 23.6434 27.5484 20.9719 28.6549C18.3005 29.7615 15.3609 30.051 12.5249 29.4869C9.68886 28.9228 7.08383 27.5304 5.03919 25.4857C2.99454 23.4411 1.60212 20.8361 1.03801 18C0.47389 15.164 0.763415 12.2245 1.86997 9.553C2.97652 6.88154 4.8504 4.59821 7.25465 2.99175C9.6589 1.38528 12.4855 0.527832 15.3771 0.527832C17.2971 0.52759 19.1983 0.905582 20.9722 1.64022C22.7461 2.37486 24.3579 3.45175 25.7155 4.80939C27.0732 6.16703 28.1501 7.77882 28.8847 9.55271C29.6193 11.3266 29.9973 13.2278 29.9971 15.1478ZM21.0519 18.3869C21.0503 17.3835 20.6856 16.4147 20.0251 15.6594L20.0233 15.6557C19.5863 15.158 19.0641 14.7422 18.4813 14.4276L18.4758 14.4239C17.9705 14.1616 17.4328 13.9673 16.8766 13.8459H16.8729C16.3903 13.7431 15.8982 13.6917 15.4048 13.6927C15.111 13.6944 14.8176 13.6716 14.5276 13.6243C14.211 13.5716 13.9038 13.4734 13.6154 13.3326L13.6117 13.3307C13.348 13.1962 13.1148 13.0088 12.9266 12.7804L12.9247 12.7786C12.7301 12.5509 12.6164 12.2652 12.6016 11.966C12.616 11.7205 12.6957 11.4833 12.8323 11.2788C12.969 11.0743 13.1577 10.9099 13.379 10.8026C14.0001 10.4378 14.7085 10.2483 15.4288 10.2542C15.6726 10.2738 15.9141 10.3146 16.1508 10.3761L16.2413 10.3945C16.5421 10.4669 16.8347 10.5696 17.1148 10.7011C17.3756 10.8195 17.6137 10.9826 17.8184 11.1831C17.9519 11.3285 18.1135 11.4453 18.2934 11.5266C18.4733 11.6079 18.6678 11.6519 18.8651 11.656C19.0625 11.6601 19.2587 11.6243 19.4418 11.5505C19.6249 11.4768 19.7912 11.3668 19.9307 11.2271C20.0702 11.0873 20.1799 10.9208 20.2533 10.7376C20.3267 10.5543 20.3622 10.3581 20.3578 10.1607C20.3533 9.96336 20.3089 9.76895 20.2273 9.58919C20.1457 9.40944 20.0286 9.24806 19.8829 9.11479C19.4284 8.66382 18.8968 8.29794 18.3133 8.0345C17.8485 7.81969 17.3627 7.65383 16.8636 7.5396H16.8618L16.847 7.5359V6.08443C16.854 5.88811 16.8214 5.6924 16.7511 5.50898C16.6807 5.32555 16.5742 5.15817 16.4378 5.01682C16.3014 4.87547 16.1379 4.76305 15.9571 4.68627C15.7763 4.60949 15.5818 4.56991 15.3854 4.56991C15.189 4.56991 14.9945 4.60949 14.8137 4.68627C14.6329 4.76305 14.4694 4.87547 14.333 5.01682C14.1966 5.15817 14.09 5.32555 14.0197 5.50898C13.9494 5.6924 13.9168 5.88811 13.9238 6.08443V7.49343C13.1788 7.64883 12.4664 7.93251 11.8186 8.33181C11.1799 8.70247 10.6475 9.2314 10.2726 9.86762C9.89771 10.5038 9.69304 11.2259 9.6783 11.9642C9.68941 12.9364 10.0343 13.8752 10.6552 14.6234C11.1054 15.1768 11.6681 15.6281 12.3061 15.9474C12.8548 16.2205 13.441 16.4103 14.0456 16.5107C14.4948 16.585 14.9495 16.6215 15.4048 16.6196C15.6901 16.618 15.9749 16.6465 16.2542 16.7046C16.5539 16.7704 16.8437 16.8746 17.1166 17.0148C17.3828 17.1624 17.6214 17.3548 17.8221 17.5836C18.0162 17.8072 18.1242 18.0926 18.1268 18.3887C18.1268 18.5678 18.1268 18.987 17.4158 19.4468C16.7851 19.8276 16.0621 20.0282 15.3254 20.0267C15.0191 20.0114 14.7142 19.9743 14.4131 19.9159C14.1221 19.8537 13.8381 19.7622 13.5655 19.6426C13.3092 19.5287 13.0819 19.3553 12.9063 19.1366C12.7818 18.9874 12.6288 18.8644 12.4562 18.775C12.2836 18.6855 12.095 18.6313 11.9012 18.6157C11.7075 18.6 11.5126 18.623 11.3279 18.6835C11.1432 18.744 10.9724 18.8407 10.8255 18.968C10.6785 19.0953 10.5585 19.2506 10.4723 19.4248C10.3861 19.599 10.3355 19.7886 10.3234 19.9826C10.3113 20.1766 10.338 20.371 10.402 20.5546C10.4659 20.7381 10.5658 20.9071 10.6958 21.0516C11.177 21.6249 11.7897 22.0734 12.4815 22.359C12.941 22.5554 13.4202 22.7021 13.9108 22.7967H13.9238V24.2426C13.9168 24.4389 13.9494 24.6346 14.0197 24.8181C14.09 25.0015 14.1966 25.1689 14.333 25.3102C14.4694 25.4516 14.6329 25.564 14.8137 25.6408C14.9945 25.7176 15.189 25.7571 15.3854 25.7571C15.5818 25.7571 15.7763 25.7176 15.9571 25.6408C16.1379 25.564 16.3014 25.4516 16.4378 25.3102C16.5742 25.1689 16.6807 25.0015 16.7511 24.8181C16.8214 24.6346 16.854 24.4389 16.847 24.2426V22.7838C17.614 22.6194 18.3456 22.3199 19.0076 21.8992C19.6243 21.543 20.1373 21.0319 20.4959 20.4165C20.8544 19.8011 21.0461 19.1028 21.0519 18.3906V18.3869Z" fill="#DFE6E7"/>
</svg>
