<svg width="120" height="130" viewBox="0 0 120 130" fill="none" xmlns="http://www.w3.org/2000/svg">
<path d="M0.67203 12.4828C0.392684 24.4522 -1.88815 62.7923 3.93997 70.9951C12.1897 82.6058 81.5487 77.1061 98.5068 72.523C115.464 67.9398 107.215 24.8578 105.382 12.4833C103.549 0.10872 69.2693 -0.349994 44.0141 0.108713C18.7589 0.566542 0.917609 1.94135 0.67203 12.4828Z" fill="#FF0000"/>
<path d="M102.981 32.0916C102.624 32.0916 102.316 31.8237 102.275 31.4602C101.691 26.2859 100.943 21.5405 100.396 18.0757L100.174 16.6631C100.113 16.275 100.378 15.9111 100.767 15.851C101.151 15.7922 101.519 16.0553 101.579 16.4439L101.801 17.8542C102.349 21.3322 103.101 26.0951 103.689 31.3005C103.733 31.6908 103.452 32.043 103.062 32.0873C103.035 32.0903 103.008 32.0916 102.981 32.0916Z" fill="white"/>
<path d="M81.9063 72.3529C81.5555 72.3529 81.2502 72.0938 81.2024 71.7364C81.1502 71.3469 81.4239 70.9891 81.8129 70.9369C87.1713 70.2199 91.4597 69.4472 94.2142 68.703C100.921 66.8906 103.899 57.5322 103.066 40.8886C103.047 40.4965 103.349 40.1623 103.741 40.143C104.116 40.1312 104.468 40.4255 104.487 40.8179C105.358 58.2212 102.026 68.0654 94.5852 70.0761C91.7724 70.8361 87.4213 71.6215 82.0023 72.3468C81.9699 72.3512 81.9379 72.3529 81.9063 72.3529Z" fill="white"/>
<path d="M5.66111 56.2513C5.29713 56.2513 4.98708 55.9737 4.95331 55.6044C4.63494 52.0891 4.44636 47.8367 4.39286 42.9641C4.38891 42.5712 4.70378 42.2497 5.09627 42.2454C5.50805 42.2664 5.81107 42.5563 5.81502 42.9488C5.86764 47.7832 6.05446 51.9984 6.36977 55.4759C6.40529 55.8675 6.11674 56.2131 5.72556 56.2486C5.70408 56.2499 5.6826 56.2513 5.66111 56.2513Z" fill="white"/>
<path d="M5.31046 27.4866C5.30345 27.4866 5.29645 27.4866 5.289 27.4862C4.89651 27.4743 4.58778 27.1467 4.59918 26.7543C4.66847 24.4445 4.74433 22.2891 4.81187 20.3714C4.88773 18.2212 4.95264 16.3702 4.98641 14.9371C5.18506 6.41679 16.5637 4.14651 33.5867 3.3589C33.9836 3.3396 34.3121 3.64438 34.3305 4.03643C34.3485 4.42892 34.045 4.76177 33.6529 4.78019C14.45 5.66822 6.55636 8.62087 6.40814 14.9704C6.37481 16.4079 6.30946 18.2642 6.2336 20.4214C6.16606 22.3369 6.09063 24.4901 6.02134 26.7968C6.0095 27.1823 5.6933 27.4866 5.31046 27.4866Z" fill="white"/>
<path d="M42.9573 53.0235C42.1894 53.0235 41.5566 52.4118 41.536 51.6391L40.8861 27.3785C40.865 26.5782 41.2518 25.8393 41.9206 25.4012C42.5893 24.9626 43.4212 24.9026 44.1466 25.242L68.1116 36.4509C68.9023 36.8206 69.4079 37.5924 69.4311 38.4655C69.454 39.3382 68.9895 40.1359 68.219 40.5472L47.0646 51.8246C46.3704 52.1943 45.5095 51.9312 45.1403 51.2387C44.7706 50.5454 45.0328 49.6841 45.7262 49.3144L65.9022 38.5581L43.7536 28.199L44.3794 51.5628C44.4005 52.3482 43.7808 53.0016 42.9954 53.0231C42.9831 53.0235 42.9704 53.0235 42.9573 53.0235Z" fill="white"/>
<path d="M82.6513 113.003C85.1113 117.477 85.5592 121.95 85.5592 121.95H90.9273V121.944L113.457 121.549L113.294 121.95C113.294 121.95 116.965 104.674 117.636 99.5293C118.19 95.2853 120.81 85.1473 117.612 80.6743C116.46 79.0623 114.345 78.3613 112.454 78.9533C111.37 79.2923 110.275 80.0713 109.872 81.7833C109.872 81.7833 109.6 75.7883 105.3 75.6973C101 75.6063 100.849 78.9673 100.849 78.9673C100.849 78.9673 99.6683 72.1243 94.8843 72.1843C94.8843 72.1843 91.9393 72.3193 90.9273 75.5143V73.4123V62.5713C90.9273 59.9333 88.9043 57.6303 86.2683 57.5343C83.5373 57.4353 81.2832 59.6003 81.2482 62.3093L80.8623 92.4253L73.5473 83.0463C71.6403 80.6153 67.0783 81.8243 66.5013 83.9123C66.5013 83.9123 65.1823 86.6603 67.9053 90.7133C69.9413 93.7423 82.6513 113.003 82.6513 113.003Z" fill="#EBEBEB"/>
<path d="M82.6511 113.003C82.6511 113.003 82.5251 112.844 82.3001 112.521C82.0671 112.18 81.7401 111.701 81.3141 111.077C80.4461 109.785 79.1831 107.906 77.5601 105.49C75.9321 103.051 73.9441 100.072 71.6331 96.6112C70.4781 94.8762 69.2421 93.0212 67.9311 91.0522C67.2721 90.0652 66.6341 88.9802 66.3011 87.7432C65.9531 86.5202 65.8371 85.1552 66.3341 83.8332L66.3231 83.8632C66.5771 83.0592 67.2361 82.4872 67.9431 82.1172C68.6631 81.7502 69.4691 81.5452 70.2971 81.5152C71.1211 81.4872 71.9871 81.6442 72.7401 82.0862C72.9301 82.1912 73.0941 82.3402 73.2711 82.4682C73.4261 82.6212 73.5781 82.7862 73.7231 82.9472C73.9801 83.2752 74.2381 83.6052 74.4981 83.9372C76.5781 86.5952 78.7621 89.3862 81.0341 92.2882L80.6411 92.4212C80.7401 84.0162 80.8481 74.8062 80.9641 65.0102C80.9721 64.3982 80.9791 63.7832 80.9861 63.1662C81.0011 62.5622 80.9671 61.9142 81.1161 61.2662C81.3961 59.9862 82.1981 58.8222 83.3121 58.1012C84.4221 57.3702 85.8321 57.1052 87.1491 57.3952C88.4711 57.6792 89.6421 58.5452 90.3571 59.6962C90.7181 60.2702 90.9681 60.9152 91.0921 61.5862C91.2261 62.2702 91.1741 62.9402 91.1851 63.5812C91.1851 64.8872 91.1861 66.2002 91.1861 67.5202C91.1861 70.1592 91.1871 72.8252 91.1871 75.5142L90.6791 75.4352C91.0271 74.3392 91.7661 73.1972 92.8951 72.5702C93.3481 72.3032 93.8421 72.1162 94.3531 72.0012C94.5961 71.9452 94.8962 71.9052 95.1522 71.9442C95.4122 71.9752 95.6801 71.9582 95.9311 72.0332C96.9641 72.2312 97.8891 72.8192 98.5851 73.5622C99.9771 75.0812 100.69 76.9972 101.105 78.9232L100.591 78.9552C100.712 77.6002 101.596 76.3982 102.811 75.8822C103.405 75.6032 104.049 75.5052 104.676 75.4572C104.992 75.4532 105.303 75.4202 105.626 75.4742L106.106 75.5282L106.571 75.6672C107.837 76.0472 108.717 77.1422 109.238 78.2372C109.761 79.3642 110.033 80.5532 110.126 81.7722L109.626 81.7252C109.884 80.4502 110.817 79.2762 112.051 78.8312C113.256 78.3532 114.63 78.3992 115.794 78.9072C116.374 79.1642 116.91 79.5222 117.349 79.9772C117.804 80.4272 118.085 80.9902 118.389 81.5222C118.91 82.6412 119.144 83.8352 119.296 85.0112C119.728 89.7592 118.714 94.2652 118.017 98.5412C117.414 102.859 116.559 106.966 115.791 110.877C114.98 114.781 114.209 118.493 113.483 121.991L113.118 121.879C113.177 121.735 113.229 121.607 113.281 121.479L113.461 121.742C104.404 121.875 96.8341 121.986 90.9301 122.072L91.0541 121.946V121.952V122.079L90.9282 122.078C88.8252 122.069 87.1051 122.061 85.5601 122.054H85.4691L85.4571 121.962C85.0671 118.947 84.2541 116.696 83.6601 115.222C83.3591 114.482 83.0962 113.931 82.9152 113.566C82.7322 113.197 82.6511 113.003 82.6511 113.003C82.6511 113.003 83.1091 113.71 83.7581 115.179C84.3871 116.65 85.2351 118.89 85.6621 121.94L85.5601 121.848C87.1051 121.841 88.8252 121.834 90.9282 121.825L90.8021 121.951V121.945V121.821L90.9261 121.818C96.8291 121.698 104.399 121.543 113.455 121.359L113.744 121.353L113.636 121.621C113.584 121.749 113.533 121.878 113.474 122.022L113.109 121.91C113.822 118.411 114.579 114.698 115.375 110.793C116.131 106.878 116.971 102.784 117.564 98.4672C118.256 94.1782 119.244 89.6902 118.813 85.0642C118.664 83.9252 118.435 82.7792 117.946 81.7342C117.661 81.2422 117.401 80.7182 116.996 80.3222C116.602 79.9152 116.12 79.5942 115.598 79.3642C114.55 78.9072 113.314 78.8702 112.239 79.2982C111.149 79.7022 110.367 80.6812 110.122 81.8402L109.758 83.5692L109.622 81.7932C109.535 80.6622 109.267 79.4962 108.779 78.4552C108.288 77.4322 107.505 76.4762 106.41 76.1532C105.349 75.8372 104.068 75.9052 103.025 76.3522C101.968 76.7902 101.217 77.8542 101.111 78.9772L100.952 80.6682L100.597 79.0092C100.207 77.1862 99.4951 75.3062 98.2101 73.9172C96.9541 72.5242 94.7991 71.9412 93.1601 73.0172C92.1551 73.5762 91.5011 74.5842 91.1771 75.5902L90.6681 77.1712V75.5112C90.6681 72.8222 90.6692 70.1562 90.6692 67.5172C90.6692 66.1972 90.6701 64.8842 90.6701 63.5782C90.6611 62.9172 90.7082 62.2732 90.5872 61.6762C90.4752 61.0692 90.2501 60.4852 89.9231 59.9652C89.2761 58.9222 88.2212 58.1452 87.0402 57.8902C85.8632 57.6302 84.5871 57.8662 83.5901 58.5232C82.5851 59.1722 81.8611 60.2202 81.6081 61.3722C81.4741 61.9412 81.5032 62.5442 81.4882 63.1702C81.4802 63.7872 81.4711 64.4022 81.4631 65.0142C81.3271 74.8102 81.1992 84.0192 81.0832 92.4242L81.0742 93.0512L80.6891 92.5562C78.4271 89.6462 76.2521 86.8492 74.1801 84.1842C73.6381 83.5272 73.2201 82.7902 72.5371 82.4232C71.8681 82.0272 71.0771 81.8752 70.3101 81.8982C69.5411 81.9222 68.7831 82.1132 68.1171 82.4492C67.4591 82.7852 66.8851 83.3092 66.6771 83.9572L66.6761 83.9602L66.6661 83.9872C66.2261 85.1412 66.3021 86.4832 66.6381 87.6442C66.9521 88.8342 67.5601 89.8852 68.2061 90.8632C69.5061 92.8412 70.7312 94.7052 71.8762 96.4482C74.1592 99.9302 76.1231 102.926 77.7311 105.379C79.3191 107.818 80.5541 109.715 81.4031 111.019C81.8101 111.654 82.1221 112.142 82.3451 112.489C82.5551 112.826 82.6511 113.003 82.6511 113.003Z" fill="#263238"/>
<path d="M113.756 129.649H85.545C83.401 129.649 81.6641 127.911 81.6641 125.768V125.495C81.6641 123.351 83.402 121.614 85.545 121.614H113.756C115.899 121.614 117.637 123.352 117.637 125.495V125.768C117.637 127.911 115.899 129.649 113.756 129.649Z" fill="#EBEBEB"/>
<path d="M113.756 129.649C113.755 129.62 114.044 129.63 114.565 129.509C115.075 129.379 115.848 129.084 116.526 128.333C116.86 127.961 117.159 127.478 117.339 126.898C117.511 126.325 117.541 125.633 117.446 124.94C117.263 123.562 116.06 122.062 114.278 121.839C106.88 121.848 96.7442 121.86 85.5472 121.874C84.2282 121.867 82.9732 122.632 82.3652 123.761C82.0672 124.327 81.9062 124.95 81.9212 125.594C81.9022 126.247 82.0342 126.857 82.3162 127.414C82.8712 128.528 84.0102 129.278 85.2002 129.384C86.4262 129.421 87.7082 129.399 88.9142 129.41C93.7702 129.431 98.1472 129.45 101.843 129.466C105.485 129.5 108.449 129.529 110.559 129.549C111.55 129.57 112.34 129.586 112.929 129.598C113.471 129.614 113.756 129.631 113.756 129.649C113.756 129.667 113.472 129.684 112.93 129.701C112.341 129.713 111.551 129.729 110.56 129.75C108.45 129.77 105.485 129.798 101.844 129.833C98.1472 129.849 93.7702 129.868 88.9152 129.889C87.6882 129.884 86.4742 129.915 85.1552 129.878C83.8002 129.763 82.4992 128.913 81.8632 127.644C81.5392 127.021 81.3862 126.287 81.4072 125.592C81.3882 124.887 81.5692 124.152 81.9112 123.511C82.6022 122.221 84.0402 121.344 85.5482 121.352C96.7892 121.372 106.923 121.336 114.33 121.473C116.288 121.746 117.566 123.407 117.735 124.896C117.824 125.649 117.776 126.348 117.577 126.972C117.37 127.586 117.04 128.089 116.676 128.47C115.937 129.238 115.119 129.51 114.588 129.611C114.043 129.702 113.756 129.649 113.756 129.649Z" fill="#263238"/>
<path d="M90.6863 86.5623C90.5423 86.5623 90.4263 83.9523 90.4263 80.7343C90.4263 77.5143 90.5423 74.9053 90.6863 74.9053C90.8303 74.9053 90.9463 77.5143 90.9463 80.7343C90.9463 83.9523 90.8293 86.5623 90.6863 86.5623Z" fill="#263238"/>
<path d="M100.723 85.7691C100.579 85.7691 100.463 84.2171 100.463 82.3041C100.463 80.3901 100.579 78.8381 100.723 78.8381C100.867 78.8381 100.983 80.3891 100.983 82.3041C100.983 84.2181 100.867 85.7691 100.723 85.7691Z" fill="#263238"/>
<path d="M109.875 88.6852C109.731 88.6852 109.615 87.1332 109.615 85.2202C109.615 83.3062 109.732 81.7542 109.875 81.7542C110.018 81.7542 110.135 83.3052 110.135 85.2202C110.136 87.1332 110.019 88.6852 109.875 88.6852Z" fill="#263238"/>
<path d="M79.1812 57.0821C79.1162 57.2101 76.6513 56.0831 73.6783 54.5651C70.7033 53.0461 68.3462 51.7121 68.4112 51.5841C68.4762 51.4561 70.9403 52.5831 73.9153 54.1021C76.8883 55.6191 79.2472 56.9541 79.1812 57.0821Z" fill="#263238"/>
<path d="M84.0632 54.3332C83.9212 54.3552 83.2692 50.9402 82.6062 46.7072C81.9432 42.4722 81.5212 39.0222 81.6632 39.0002C81.8052 38.9782 82.4572 42.3922 83.1202 46.6272C83.7832 50.8602 84.2052 54.3112 84.0632 54.3332Z" fill="#263238"/>
<path d="M90.1351 55.0323C90.0171 54.9503 91.5381 52.5733 93.5311 49.7253C95.5251 46.8763 97.2361 44.6343 97.3541 44.7163C97.4721 44.7983 95.9521 47.1743 93.9581 50.0233C91.9641 52.8713 90.2531 55.1143 90.1351 55.0323Z" fill="#263238"/>
</svg>
