<svg width="24" height="24" viewBox="0 0 24 24" fill="none" xmlns="http://www.w3.org/2000/svg">
<path d="M21.298 7.09056C21.7474 6.64127 21.9999 6.03185 22 5.39637C22.0001 4.76089 21.7477 4.15141 21.2984 3.70201C20.8491 3.2526 20.2397 3.00008 19.6042 3C18.9688 2.99992 18.3593 3.25229 17.9099 3.70158L6.56566 15.0483C6.3683 15.2451 6.22235 15.4874 6.14065 15.7538L5.01779 19.4531C4.99583 19.5266 4.99417 19.6047 5.01299 19.6791C5.03182 19.7534 5.07043 19.8213 5.12472 19.8755C5.17902 19.9297 5.24697 19.9682 5.32138 19.9869C5.39579 20.0057 5.47387 20.0039 5.54735 19.9818L9.24743 18.8598C9.51363 18.7788 9.75589 18.6337 9.95294 18.4373L21.298 7.09056Z" stroke="#00ABBE" stroke-width="2.26669" stroke-linecap="round" stroke-linejoin="round"/>
<path d="M15.4844 6.11719L18.8844 9.51722" stroke="#00ABBE" stroke-width="2.26669" stroke-linecap="round" stroke-linejoin="round"/>
</svg>
