<svg width="25" height="25" viewBox="0 0 25 25" fill="none" xmlns="http://www.w3.org/2000/svg">
<path d="M6.86507 0C3.07418 0 0 3.07418 0 6.86507V17.8492C0 21.6401 3.07418 24.7142 6.86507 24.7142H17.8492C21.6401 24.7142 24.7142 21.6401 24.7142 17.8492V6.86507C24.7142 3.07418 21.6401 0 17.8492 0H6.86507ZM20.5952 2.74603C21.3531 2.74603 21.9682 3.36114 21.9682 4.11904C21.9682 4.87694 21.3531 5.49205 20.5952 5.49205C19.8373 5.49205 19.2222 4.87694 19.2222 4.11904C19.2222 3.36114 19.8373 2.74603 20.5952 2.74603ZM12.3571 5.49205C16.148 5.49205 19.2222 8.56623 19.2222 12.3571C19.2222 16.148 16.148 19.2222 12.3571 19.2222C8.56623 19.2222 5.49205 16.148 5.49205 12.3571C5.49205 8.56623 8.56623 5.49205 12.3571 5.49205ZM12.3571 8.23808C11.2647 8.23808 10.217 8.67205 9.44452 9.44452C8.67205 10.217 8.23808 11.2647 8.23808 12.3571C8.23808 13.4496 8.67205 14.4972 9.44452 15.2697C10.217 16.0422 11.2647 16.4762 12.3571 16.4762C13.4496 16.4762 14.4972 16.0422 15.2697 15.2697C16.0422 14.4972 16.4762 13.4496 16.4762 12.3571C16.4762 11.2647 16.0422 10.217 15.2697 9.44452C14.4972 8.67205 13.4496 8.23808 12.3571 8.23808Z" fill="#00ABBE" fill-opacity="0.6"/>
</svg>
