<svg width="28" height="25" viewBox="0 0 28 25" fill="none" xmlns="http://www.w3.org/2000/svg">
<path d="M25.1245 0.00225015C24.7278 0.0195089 24.3637 0.13362 24.0438 0.25969C23.7483 0.376065 22.6872 0.822073 20.9974 1.5308C19.3077 2.23953 17.0687 3.17921 14.6821 4.18297C9.90895 6.19048 4.54513 8.44868 1.79672 9.6053C1.70233 9.64462 1.31902 9.76197 0.895677 10.0853C0.471346 10.4094 0 11.1128 0 11.882C0 12.5026 0.309771 13.1346 0.683825 13.4964C1.05788 13.8582 1.43697 14.0274 1.75381 14.1534V14.1507C2.8248 14.5774 6.02312 15.8572 6.78462 16.162C7.05473 16.9714 8.2143 20.4367 8.49016 21.3081H8.48747C8.68246 21.9249 8.87251 22.3268 9.13644 22.6623C9.2684 22.8301 9.42592 22.9821 9.61914 23.1021C9.69327 23.1482 9.77536 23.1839 9.85781 23.2174C9.8693 23.2223 9.88114 23.2235 9.89267 23.2282L9.86049 23.2201C9.88439 23.2297 9.90585 23.2439 9.93021 23.2523C9.96991 23.266 9.99743 23.2655 10.0509 23.2764C10.239 23.3343 10.4268 23.373 10.6006 23.373C11.347 23.373 11.8047 22.968 11.8047 22.968L11.8342 22.9466L15.0576 20.2193L19.005 23.8718C19.0771 23.9736 19.6419 24.7379 20.9492 24.7379C21.7292 24.7379 22.346 24.3518 22.7405 23.9468C23.1351 23.5419 23.3809 23.1275 23.4914 22.5658L23.4941 22.5631C23.5822 22.1098 27.361 3.13444 27.361 3.13444L27.353 3.16662C27.4706 2.64165 27.5053 2.13397 27.3664 1.61661C27.2275 1.09925 26.8525 0.594362 26.401 0.329413C25.9495 0.0644647 25.5213 -0.0150092 25.1245 0.00225015ZM24.5828 3.0084C24.4335 3.7581 21.0484 20.7643 20.8392 21.831L15.138 16.5562L11.2845 19.8144L12.3518 15.6417C12.3518 15.6417 19.7146 8.18882 20.1581 7.75495C20.5151 7.40758 20.5898 7.28581 20.5898 7.16498C20.5898 7.00434 20.5072 6.88877 20.3163 6.88877C20.1447 6.88877 19.9116 7.05323 19.788 7.13012C18.2178 8.10908 11.5297 11.9204 8.24076 13.7914C8.04283 13.712 5.07121 12.5188 3.47008 11.8793C6.31807 10.6807 11.2 8.62674 15.7467 6.71446C18.1329 5.71087 20.3713 4.77034 22.0594 4.06229C23.4844 3.46461 24.2277 3.15514 24.5828 3.0084ZM20.799 22.0268H20.8017L20.799 22.0348C20.8008 22.0259 20.7977 22.0337 20.799 22.0268Z" fill="#1CA461" fill-opacity="0.5"/>
</svg>
