<svg width="24" height="24" viewBox="0 0 24 24" fill="none" xmlns="http://www.w3.org/2000/svg">
<path d="M21.543 6.498C21.289 5.557 20.543 4.811 19.602 4.557C17.88 4.077 12 4.077 12 4.077C12 4.077 6.12 4.077 4.398 4.557C3.457 4.811 2.711 5.557 2.457 6.498C1.977 8.22 1.977 12 1.977 12C1.977 12 1.977 15.78 2.457 17.502C2.711 18.443 3.457 19.189 4.398 19.443C6.12 19.923 12 19.923 12 19.923C12 19.923 17.88 19.923 19.602 19.443C20.543 19.189 21.289 18.443 21.543 17.502C22.023 15.78 22.023 12 22.023 12C22.023 12 22.023 8.22 21.543 6.498ZM10.023 15.455V8.545L15.568 12L10.023 15.455Z" fill="#006EA0"/>
</svg>
