<svg width="28" height="28" viewBox="0 0 28 28" fill="none" xmlns="http://www.w3.org/2000/svg">
<path d="M26.25 12.25H15.75V1.75C15.75 1.28587 15.5656 0.840752 15.2374 0.512563C14.9092 0.184375 14.4641 0 14 0C13.5359 0 13.0908 0.184375 12.7626 0.512563C12.4344 0.840752 12.25 1.28587 12.25 1.75V12.25H1.75C1.28587 12.25 0.840752 12.4344 0.512563 12.7626C0.184375 13.0908 0 13.5359 0 14C0 14.4641 0.184375 14.9092 0.512563 15.2374C0.840752 15.5656 1.28587 15.75 1.75 15.75H12.25V26.25C12.25 26.7141 12.4344 27.1593 12.7626 27.4874C13.0908 27.8156 13.5359 28 14 28C14.4641 28 14.9092 27.8156 15.2374 27.4874C15.5656 27.1593 15.75 26.7141 15.75 26.25V15.75H26.25C26.7141 15.75 27.1593 15.5656 27.4874 15.2374C27.8156 14.9092 28 14.4641 28 14C28 13.5359 27.8156 13.0908 27.4874 12.7626C27.1593 12.4344 26.7141 12.25 26.25 12.25Z" fill="#008F9F"/>
</svg>
