<svg width="28" height="28" viewBox="0 0 28 28" fill="none" xmlns="http://www.w3.org/2000/svg">
<g clip-path="url(#clip0_2652_34390)">
<path d="M5.94281 0.0273438H7.20238V1.27181H8.35459V0.0273438H9.61426V3.7958H8.3547V2.53384H7.20249V3.7958H5.94292V0.0273438H5.94281ZM11.2706 1.27706H10.1618V0.0273438H13.6396V1.27706H12.5303V3.7958H11.2707V1.27706H11.2706ZM14.1915 0.0273438H15.5051L16.3129 1.35149L17.12 0.0273438H18.4338V3.7958H17.1793V1.92801L16.3128 3.26785H16.2912L15.4241 1.92801V3.7958H14.1915V0.0273438ZM19.0608 0.0273438H20.3207V2.55024H22.092V3.7958H19.0608V0.0273438ZM4.10083 5.51934L5.90256 25.7282L13.9878 27.9725L22.0954 25.7249L23.8991 5.51928L4.10083 5.51934ZM20.1408 10.3151L20.028 11.5717L19.9784 12.1288H19.9703H14H13.9913H10.4937L10.7203 14.6667H13.9913H14H19.0848H19.7528L19.6923 15.3324L19.1099 21.8577L19.0726 22.2761L14 23.6821V23.6825L13.9886 23.6858L8.91147 22.2762L8.56415 18.3846H9.71095H11.0523L11.2287 20.3614L13.989 21.1069L13.9913 21.1061V21.1059L16.7558 20.36L17.0433 17.1454H14H13.9913H8.45346L7.8443 10.3151L7.78496 9.65026H13.9913H14H20.2001L20.1408 10.3151Z" fill="#FD6900"/>
</g>
<defs>
<clipPath id="clip0_2652_34390">
<rect width="28" height="28" fill="white"/>
</clipPath>
</defs>
</svg>
