<svg width="28" height="28" viewBox="0 0 28 28" fill="none" xmlns="http://www.w3.org/2000/svg">
<g clip-path="url(#clip0_2652_34399)">
<path d="M11.2568 6.50195H7.19324C6.56688 6.50195 6.05908 7.00975 6.05908 7.63611C6.05908 8.26246 6.56688 8.77026 7.19324 8.77026H11.2568C11.8832 8.77026 12.391 8.26246 12.391 7.63611C12.391 7.00975 11.8832 6.50195 11.2568 6.50195Z" fill="#D30909"/>
<path d="M11.2568 11.2148H7.19324C6.56688 11.2148 6.05908 11.7226 6.05908 12.349C6.05908 12.9754 6.56688 13.4832 7.19324 13.4832H11.2568C11.8832 13.4832 12.391 12.9754 12.391 12.349C12.391 11.7226 11.8832 11.2148 11.2568 11.2148Z" fill="#D30909"/>
<path d="M16.0251 19.1563V20.2608H16.6086C17.3163 20.2608 17.3163 19.8375 17.3163 19.6984C17.3163 19.5642 17.3163 19.1562 16.6086 19.1562H16.0251V19.1563Z" fill="#D30909"/>
<path d="M24.6398 17.0692H22.7942V5.5727C22.7942 5.27525 22.6762 4.99013 22.4657 4.78001L18.0141 0.328073C17.8036 0.118028 17.5188 0 17.2214 0H3.82438C2.61061 0 1.62329 0.987395 1.62329 2.20117V25.7988C1.62329 27.0126 2.61069 28 3.82438 28H20.593C21.8067 28 22.7941 27.0125 22.7941 25.7988V23.5268H24.6397C25.599 23.5268 26.3767 22.7492 26.3767 21.7898V18.8061C26.3768 17.8469 25.5991 17.0692 24.6398 17.0692ZM20.4038 25.5492H4.01356V2.45083H15.6642V5.74563C15.6642 6.54369 16.311 7.19031 17.1087 7.19031H20.4038V17.0692H14.7952C13.8359 17.0692 13.0582 17.8469 13.0582 18.8062V21.7899C13.0582 22.7492 13.8359 23.5269 14.7952 23.5269H20.4038V25.5492ZM18.0338 19.6982C18.0338 20.4877 17.4876 20.9781 16.6086 20.9781H16.0251V21.6569C16.0251 21.832 15.8832 21.9742 15.7079 21.9742H15.625C15.4496 21.9742 15.3076 21.832 15.3076 21.6569V18.756C15.3076 18.5809 15.4496 18.4387 15.625 18.4387H16.6086C17.4877 18.4386 18.0338 18.9212 18.0338 19.6982ZM19.833 21.9742H18.6916C18.5163 21.9742 18.3743 21.832 18.3743 21.6569V18.756C18.3743 18.5809 18.5162 18.4387 18.6916 18.4387H19.833C20.8271 18.4387 21.6359 19.2326 21.6359 20.2087C21.6359 21.1822 20.8272 21.9742 19.833 21.9742ZM24.3809 18.8388C24.3809 19.0142 24.2389 19.1561 24.0636 19.1561H22.7748V19.9162H23.8728C24.0479 19.9162 24.1901 20.058 24.1901 20.2334V20.3165C24.1901 20.4916 24.0479 20.6338 23.8728 20.6338H22.7748V21.6568C22.7748 21.8319 22.6329 21.9742 22.4576 21.9742H22.3747C22.1993 21.9742 22.0573 21.8319 22.0573 21.6568V18.756C22.0573 18.5808 22.1993 18.4386 22.3747 18.4386H24.0636C24.2389 18.4386 24.3809 18.5808 24.3809 18.756V18.8388Z" fill="#D30909"/>
<path d="M19.833 19.1562H19.0918V21.2569H19.833C20.4315 21.2569 20.9184 20.7864 20.9184 20.2087C20.9185 19.6284 20.4315 19.1562 19.833 19.1562Z" fill="#D30909"/>
</g>
<defs>
<clipPath id="clip0_2652_34399">
<rect width="28" height="28" fill="white"/>
</clipPath>
</defs>
</svg>
