<svg width="28" height="28" viewBox="0 0 28 28" fill="none" xmlns="http://www.w3.org/2000/svg">
<path fill-rule="evenodd" clip-rule="evenodd" d="M11.6667 1.16602C11.3572 1.16602 11.0605 1.28894 10.8417 1.50772L3.84171 8.50772C3.62292 8.72652 3.5 9.02326 3.5 9.33268V23.3327C3.5 25.2657 5.06701 26.8327 7 26.8327H11.6667C12.311 26.8327 12.8333 26.3104 12.8333 25.666C12.8333 25.0217 12.311 24.4993 11.6667 24.4993H7C6.35567 24.4993 5.83333 23.977 5.83333 23.3327V10.4993H11.6667C12.311 10.4993 12.8333 9.97701 12.8333 9.33268V3.49935H21C21.6444 3.49935 22.1667 4.02169 22.1667 4.66602V10.4993C22.1667 11.1437 22.689 11.666 23.3333 11.666C23.9777 11.666 24.5 11.1437 24.5 10.4993V4.66602C24.5 2.73302 22.9331 1.16602 21 1.16602H11.6667ZM10.5 8.16602H7.48324L10.5 5.14926V8.16602ZM15.1107 14.809C14.9135 14.1956 14.2564 13.8582 13.643 14.0553C13.0296 14.2525 12.6922 14.9096 12.8893 15.523L15.5143 23.6897C15.6694 24.1722 16.1182 24.4993 16.625 24.4993C17.1318 24.4993 17.5806 24.1722 17.7357 23.6897L19.25 18.9786L20.7643 23.6897C20.9194 24.1722 21.3682 24.4993 21.875 24.4993C22.3818 24.4993 22.8306 24.1722 22.9857 23.6897L25.6107 15.523C25.8078 14.9096 25.4704 14.2525 24.857 14.0553C24.2436 13.8582 23.5865 14.1956 23.3893 14.809L21.875 19.5201L20.3607 14.809C20.2056 14.3265 19.7568 13.9993 19.25 13.9993C18.7432 13.9993 18.2944 14.3265 18.1393 14.809L16.625 19.5201L15.1107 14.809Z" fill="#224FA2"/>
</svg>
