<svg width="28" height="28" viewBox="0 0 28 28" fill="none" xmlns="http://www.w3.org/2000/svg">
<path d="M14.9483 0.613171L17.529 6.09794L16.4568 6.09934L16.3159 6.1043L16.1734 6.11432L16.0323 6.12932L15.8129 6.16871C14.3695 6.4831 13.3086 7.81974 13.3086 9.39513C13.3086 11.102 14.548 12.5058 16.1362 12.674L16.3548 12.6892L16.3159 12.6887L16.1734 12.6986L16.0323 12.7137L15.8129 12.7531C14.4454 13.0509 13.4214 14.2662 13.3173 15.7328L13.3086 15.9795L13.3159 16.205C13.4217 17.8421 14.6692 19.1513 16.2315 19.2669L16.4568 19.2753L16.8066 19.2767L16.4568 19.2775L16.3159 19.2824L16.1734 19.2924L16.0323 19.3073L15.8129 19.3467C14.4454 19.6447 13.4214 20.8599 13.3173 22.3266L13.3086 22.5733L13.3159 22.7988C13.3423 23.2079 13.44 23.5966 13.5961 23.9513L6.4885 27.871C5.71829 28.2956 4.81747 27.6105 4.96531 26.7123L6.40841 17.9454L0.318646 11.7408C-0.305206 11.1051 0.0388659 9.99649 0.900453 9.86615L9.3108 8.59383L13.0656 0.613171C13.4502 -0.204391 14.5637 -0.204391 14.9483 0.613171ZM26.9506 21.4747C27.5302 21.4747 28 21.9665 28 22.5733C28 23.1294 27.6052 23.5891 27.0931 23.6617L26.9506 23.6718H16.4568C15.8772 23.6718 15.4074 23.18 15.4074 22.5733C15.4074 22.0171 15.8022 21.5574 16.3143 21.4846L16.4568 21.4747H26.9506ZM26.9506 14.8809C27.5302 14.8809 28 15.3727 28 15.9795C28 16.5357 27.6052 16.9953 27.0931 17.0681L26.9506 17.0781H16.4568C15.8772 17.0781 15.4074 16.5862 15.4074 15.9795C15.4074 15.4233 15.8022 14.9636 16.3143 14.8908L16.4568 14.8809H26.9506ZM26.9506 8.29653C27.5302 8.29653 28 8.7884 28 9.39513C28 9.95131 27.6052 10.411 27.0931 10.4837L26.9506 10.4937H16.4568C15.8772 10.4937 15.4074 10.0019 15.4074 9.39513C15.4074 8.83896 15.8022 8.37931 16.3143 8.30657L16.4568 8.29653H26.9506Z" fill="#FF9D00"/>
</svg>
