<svg width="28" height="28" viewBox="0 0 28 28" fill="none" xmlns="http://www.w3.org/2000/svg">
<mask id="mask0_3226_50351" style="mask-type:alpha" maskUnits="userSpaceOnUse" x="0" y="0" width="28" height="28">
<rect width="28" height="28" fill="#D9D9D9"/>
</mask>
<g mask="url(#mask0_3226_50351)">
<path d="M14.0013 24.4997C11.4152 24.4997 9.21311 23.6004 7.39505 21.8018C5.577 20.0031 4.66797 17.8302 4.66797 15.283C4.66797 13.9997 4.91102 12.8136 5.39714 11.7247C5.88325 10.6358 6.55408 9.66356 7.40964 8.80801L14.0013 2.33301L20.593 8.80801C21.4485 9.66356 22.1194 10.6358 22.6055 11.7247C23.0916 12.8136 23.3346 13.9997 23.3346 15.283C23.3346 17.8302 22.4256 20.0031 20.6076 21.8018C18.7895 23.6004 16.5874 24.4997 14.0013 24.4997ZM14.0013 22.1663V5.59967L9.04297 10.4997C8.36241 11.1413 7.852 11.8656 7.51172 12.6726C7.17144 13.4795 7.0013 14.3497 7.0013 15.283C7.0013 17.1691 7.68186 18.7879 9.04297 20.1393C10.4041 21.4906 12.0569 22.1663 14.0013 22.1663Z" fill="#1CA461"/>
</g>
</svg>
