<svg width="18" height="18" viewBox="0 0 18 18" fill="none" xmlns="http://www.w3.org/2000/svg">
<path fill-rule="evenodd" clip-rule="evenodd" d="M16.6187 3.92052L15.7412 3.71352L13.3697 6.07152L12.0265 4.70352L14.3395 2.27689L14.137 1.38589C13.6482 1.22237 13.137 1.13584 12.6216 1.12939C12.0594 1.12075 11.5014 1.22797 10.9825 1.44439C10.4814 1.6712 10.0285 1.99199 9.64824 2.38939C9.22496 2.79035 8.88973 3.275 8.66387 3.81252C8.229 4.88226 8.229 6.07952 8.66387 7.14927C6.31851 9.45663 4.00344 11.7946 1.71924 14.1625C1.48299 14.4719 1.37049 14.8578 1.39974 15.2459C1.42279 15.6633 1.61053 16.0546 1.92174 16.3338C2.06124 16.4856 2.22774 16.6116 2.41337 16.7028C2.60462 16.7871 2.81049 16.8355 3.01862 16.8456C3.37412 16.8389 3.71499 16.7039 3.97937 16.4665C5.72087 14.8274 9.05762 11.4603 10.9532 9.48701C11.4674 9.70527 12.0197 9.81777 12.5777 9.81664C13.1394 9.8162 13.6953 9.70317 14.2126 9.48425C14.7299 9.26532 15.198 8.94493 15.5894 8.54202C16.3932 7.72218 16.8422 6.61895 16.8392 5.47077C16.8522 4.94536 16.7777 4.42146 16.6187 3.92052ZM3.29874 15.6689C3.25544 15.7073 3.20324 15.7344 3.14687 15.7476C3.0914 15.7572 3.0347 15.7572 2.97924 15.7476C2.92109 15.7388 2.8657 15.7169 2.81724 15.6835C2.76524 15.6531 2.72127 15.6106 2.68899 15.5598C2.53149 15.3989 2.38412 15.0929 2.53149 14.9208C4.07274 13.2816 7.24637 10.0776 9.23087 8.11902C9.34337 8.26752 9.46712 8.40927 9.59987 8.54202C9.73262 8.68039 9.87549 8.80864 10.0274 8.92564C8.10811 10.8944 4.97724 14.0601 3.29874 15.6689ZM15.8065 5.47077C15.8087 6.33139 15.4735 7.15827 14.8705 7.77477C14.2688 8.36505 13.4595 8.69571 12.6166 8.69571C11.7736 8.69571 10.9643 8.36505 10.3626 7.77477C9.9216 7.31452 9.62033 6.73852 9.49387 6.11375C9.3674 5.48899 9.42093 4.84117 9.64824 4.24564C9.79955 3.84034 10.0342 3.47131 10.3371 3.16241C10.64 2.85351 11.0044 2.61163 11.4066 2.45239C11.7885 2.29254 12.1986 2.21068 12.6126 2.21164H12.8984L10.8542 4.31877V5.10177L12.9861 7.22352H13.7286L15.8065 5.18052V5.47077ZM3.64412 7.52389H5.36649L6.15962 8.33052L6.92236 7.57227L6.17424 6.80952V6.76114L6.23837 4.90602L5.99087 4.41439L2.77337 2.29714L2.10849 2.37139L1.17362 3.32652L1.09937 4.00039L3.16712 7.28314L3.64412 7.52389ZM2.58099 3.43789L5.18424 5.15239L5.14037 6.41577H3.92987L2.25137 3.75852L2.58099 3.43789ZM10.5741 11.2679L11.3324 10.5108L14.8266 14.0939C15.1209 14.4032 15.2851 14.8139 15.2851 15.2408C15.2851 15.6678 15.1209 16.0784 14.8266 16.3878C14.6053 16.615 14.3207 16.7703 14.0099 16.8335C13.6991 16.8967 13.3765 16.8649 13.084 16.7421C12.8973 16.6593 12.7299 16.5387 12.5924 16.3878L9.05762 12.7844L9.82149 12.0216L13.345 15.6149C13.3924 15.6671 13.4513 15.7076 13.5171 15.733C13.6466 15.7856 13.7915 15.7856 13.921 15.733C13.9868 15.7076 14.0457 15.6671 14.0931 15.6149C14.1424 15.5661 14.1807 15.5074 14.2056 15.4428C14.2314 15.3768 14.2451 15.3066 14.2461 15.2358C14.245 15.165 14.2317 15.095 14.2067 15.0288C14.1818 14.9641 14.1435 14.9054 14.0942 14.8566L10.5741 11.2679Z" fill="#333333"/>
</svg>
