<svg width="28" height="28" viewBox="0 0 28 28" fill="none" xmlns="http://www.w3.org/2000/svg">
<path d="M26.8334 5.25006H24.5V4.01456C24.5 3.58111 24.2597 3.18342 23.8761 2.98179C20.9308 1.43402 16.9763 1.3445 13.992 2.71524C10.9258 1.34324 6.9685 1.43336 4.10895 2.98983C3.73363 3.19414 3.5 3.58723 3.5 4.01456V5.25006H1.16665C0.52232 5.25006 0 5.77238 0 6.41671V25.0834C0 25.7277 0.52232 26.25 1.16665 26.25H26.8333C27.4776 26.25 27.9999 25.7277 27.9999 25.0834V6.41671C28 5.77238 27.4777 5.25006 26.8334 5.25006ZM22.1666 4.75574V6.41671V19.8749C22.0867 19.85 22.0065 19.8261 21.9261 19.8029C21.9003 19.7955 21.8743 19.7884 21.8485 19.7811C21.7936 19.7657 21.7386 19.7504 21.6835 19.7357C21.6532 19.7276 21.6229 19.7198 21.5926 19.712C21.541 19.6986 21.4893 19.6855 21.4376 19.6728C21.4068 19.6653 21.376 19.6578 21.3451 19.6505C21.2917 19.6378 21.2382 19.6257 21.1847 19.6137C21.1564 19.6074 21.1281 19.6009 21.0998 19.5948C21.0347 19.5808 20.9694 19.5674 20.9041 19.5543C20.8877 19.5511 20.8714 19.5475 20.855 19.5443C20.7735 19.5285 20.6919 19.5135 20.6104 19.4993C20.5877 19.4953 20.5649 19.4918 20.5422 19.4879C20.4829 19.4779 20.4235 19.4682 20.3641 19.4591C20.3343 19.4545 20.3044 19.4503 20.2746 19.4459C20.2217 19.4382 20.1688 19.4308 20.1158 19.4237C20.0845 19.4196 20.0532 19.4155 20.0219 19.4117C19.969 19.405 19.9161 19.3989 19.8632 19.393C19.8331 19.3896 19.8031 19.3862 19.773 19.383C19.714 19.3769 19.655 19.3714 19.596 19.3661C19.5727 19.364 19.5494 19.3616 19.5261 19.3597C19.444 19.3528 19.3621 19.3467 19.2801 19.3415C19.2647 19.3405 19.2492 19.3399 19.2338 19.339C19.1671 19.335 19.1005 19.3315 19.0339 19.3286C19.0053 19.3273 18.9767 19.3265 18.948 19.3255C18.8942 19.3236 18.8404 19.3219 18.7866 19.3207C18.7553 19.32 18.724 19.3195 18.6928 19.319C18.6406 19.3183 18.5884 19.3179 18.5363 19.3178C18.5056 19.3178 18.4749 19.3177 18.4442 19.3179C18.3887 19.3183 18.3331 19.3192 18.2777 19.3203C18.2512 19.3209 18.2248 19.3212 18.1984 19.3219C18.119 19.3241 18.0397 19.3269 17.9605 19.3307C17.9584 19.3308 17.9563 19.3308 17.9541 19.3309C17.8729 19.3348 17.7919 19.3398 17.711 19.3454C17.685 19.3472 17.6591 19.3494 17.6332 19.3513C17.5779 19.3556 17.5227 19.36 17.4676 19.365C17.4373 19.3677 17.4071 19.3707 17.377 19.3737C17.3255 19.3787 17.2743 19.3841 17.223 19.3898C17.1923 19.3933 17.1617 19.3968 17.1311 19.4004C17.0785 19.4068 17.0261 19.4136 16.9737 19.4207C16.9457 19.4245 16.9175 19.4281 16.8895 19.4321C16.8264 19.4411 16.7634 19.4508 16.7005 19.4609C16.6839 19.4636 16.6672 19.466 16.6506 19.4687C16.5714 19.4818 16.4924 19.4957 16.4137 19.5105C16.3923 19.5145 16.3709 19.519 16.3495 19.5231C16.2921 19.5343 16.2347 19.5456 16.1776 19.5577C16.1491 19.5637 16.1207 19.57 16.0923 19.5763C16.0419 19.5873 15.9916 19.5986 15.9415 19.6104C15.9117 19.6174 15.8821 19.6244 15.8524 19.6317C15.8024 19.6439 15.7526 19.6564 15.7029 19.6693C15.6747 19.6766 15.6465 19.6838 15.6184 19.6914C15.5632 19.7062 15.5082 19.7216 15.4533 19.7373C15.4315 19.7436 15.4096 19.7495 15.3879 19.7559C15.3138 19.7776 15.2399 19.7999 15.1665 19.8233V4.74633C17.2624 3.86001 20.0018 3.86089 22.1666 4.75574ZM5.83335 4.74633C7.92909 3.86001 10.6685 3.86083 12.8334 4.75568V19.8749C12.8115 19.8681 12.7895 19.8617 12.7676 19.8551C12.7365 19.8456 12.7054 19.8362 12.6743 19.827C12.6242 19.8121 12.5741 19.7977 12.5239 19.7835C12.494 19.7751 12.4641 19.7665 12.4341 19.7583C12.3791 19.7432 12.3238 19.7287 12.2686 19.7143C12.2438 19.7078 12.2189 19.7011 12.1941 19.6948C12.1142 19.6746 12.0343 19.6551 11.9541 19.6365C11.9456 19.6345 11.937 19.6327 11.9284 19.6307C11.8567 19.6142 11.7848 19.5984 11.7129 19.5832C11.6857 19.5774 11.6586 19.5721 11.6314 19.5666C11.5778 19.5557 11.5242 19.5449 11.4705 19.5347C11.4394 19.5287 11.4082 19.5231 11.3771 19.5174C11.3267 19.5082 11.2762 19.4992 11.2258 19.4906C11.1939 19.4852 11.1622 19.4799 11.1303 19.4748C11.0793 19.4665 11.0283 19.4587 10.9774 19.4511C10.9467 19.4466 10.9161 19.4418 10.8854 19.4375C10.8298 19.4297 10.774 19.4224 10.7184 19.4153C10.6928 19.4121 10.6673 19.4085 10.6417 19.4055C10.5607 19.3957 10.4797 19.3866 10.3986 19.3784C10.3919 19.3778 10.3854 19.3773 10.3788 19.3766C10.3043 19.3692 10.2298 19.3626 10.1553 19.3565C10.1281 19.3543 10.1008 19.3525 10.0736 19.3506C10.0194 19.3466 9.96516 19.3428 9.91091 19.3395C9.8799 19.3376 9.84889 19.336 9.81783 19.3344C9.76702 19.3317 9.71627 19.3293 9.66552 19.3273C9.63359 19.326 9.6017 19.3248 9.56977 19.3238C9.51891 19.3222 9.46805 19.321 9.41719 19.32C9.38645 19.3194 9.35577 19.3187 9.32504 19.3184C9.2697 19.3177 9.21446 19.3177 9.15917 19.3178C9.13341 19.3179 9.10771 19.3177 9.08195 19.3179C9.00124 19.3186 8.92062 19.32 8.84013 19.3224C8.8358 19.3225 8.83154 19.3228 8.82722 19.3229C8.75115 19.3252 8.67513 19.3283 8.59923 19.3321C8.57248 19.3335 8.54585 19.3353 8.51911 19.3368C8.46535 19.3399 8.41159 19.3431 8.35794 19.3469C8.32732 19.3491 8.29675 19.3516 8.26612 19.354C8.21614 19.3579 8.16621 19.3621 8.11639 19.3667C8.08495 19.3696 8.0535 19.3726 8.02211 19.3758C7.97218 19.3808 7.92241 19.3862 7.87259 19.3919C7.84241 19.3954 7.81216 19.3987 7.78203 19.4024C7.72822 19.409 7.67452 19.4161 7.62087 19.4235C7.59533 19.427 7.56979 19.4302 7.5443 19.4339C7.46555 19.4452 7.38697 19.4572 7.30866 19.4702C7.30636 19.4706 7.30401 19.471 7.30171 19.4714C7.22575 19.484 7.15001 19.4976 7.07448 19.5118C7.04895 19.5166 7.02352 19.5219 6.99803 19.5268C6.94553 19.5371 6.89309 19.5476 6.84086 19.5586C6.81138 19.5648 6.78202 19.5713 6.75265 19.5778C6.7042 19.5885 6.6558 19.5993 6.60756 19.6107C6.57743 19.6177 6.5473 19.6249 6.51722 19.6323C6.46904 19.644 6.42097 19.6562 6.37301 19.6686C6.34402 19.6761 6.31504 19.6835 6.28616 19.6912C6.23459 19.7051 6.18324 19.7194 6.13195 19.734C6.10745 19.741 6.08278 19.7477 6.05834 19.7549C5.98298 19.7769 5.90789 19.7996 5.83319 19.8233V6.41671V4.74633H5.83335ZM25.6666 23.9167H2.33335V7.58336H3.5V21.5834C3.5 22.4706 4.45113 23.0331 5.22867 22.6057C7.57099 21.3182 10.7946 21.3374 13.4947 22.6349C13.5002 22.6376 13.5059 22.6398 13.5115 22.6423C13.525 22.6486 13.5385 22.6547 13.5522 22.6604C13.5554 22.6617 13.5586 22.6632 13.5618 22.6645C13.5681 22.6671 13.5744 22.6694 13.5808 22.6719C13.5949 22.6774 13.6092 22.6826 13.6236 22.6876C13.6245 22.6879 13.6254 22.6882 13.6263 22.6885C13.6265 22.6886 13.6268 22.6886 13.627 22.6887C13.6361 22.6918 13.6451 22.6948 13.6542 22.6976C13.6685 22.7021 13.6829 22.7063 13.6975 22.7102C13.7077 22.713 13.7179 22.7158 13.7281 22.7183C13.7417 22.7216 13.7553 22.7245 13.7689 22.7274C13.7798 22.7296 13.7907 22.7318 13.8015 22.7338C13.8151 22.7362 13.8288 22.7381 13.8424 22.7401C13.8531 22.7415 13.8637 22.743 13.8743 22.7442C13.8889 22.7458 13.9035 22.747 13.9182 22.7481C13.9276 22.7487 13.9371 22.7495 13.9466 22.75C13.9627 22.7507 13.9788 22.751 13.995 22.7511C14.0028 22.7512 14.0106 22.7512 14.0184 22.7511C14.036 22.7508 14.0536 22.7501 14.0713 22.749C14.0775 22.7486 14.0838 22.7482 14.0901 22.7477C14.1086 22.7463 14.1271 22.7443 14.1456 22.7419C14.151 22.7412 14.1566 22.7405 14.162 22.7397C14.1805 22.7371 14.1989 22.734 14.2173 22.7304C14.2232 22.7293 14.229 22.7281 14.2348 22.7269C14.2523 22.7233 14.2698 22.7192 14.2872 22.7147C14.2944 22.7129 14.3015 22.7108 14.3087 22.7089C14.3245 22.7045 14.3402 22.6999 14.3558 22.6948C14.3658 22.6916 14.3755 22.688 14.3854 22.6845C14.3982 22.68 14.411 22.6755 14.4238 22.6705C14.439 22.6645 14.4539 22.658 14.4688 22.6513C14.4764 22.648 14.4841 22.6449 14.4918 22.6413C14.5154 22.6302 14.5386 22.6185 14.5614 22.606C14.5616 22.6059 14.5618 22.6058 14.562 22.6057C16.9043 21.3182 20.1279 21.3374 22.828 22.6349C23.6025 23.0071 24.4999 22.4427 24.4999 21.5834V7.58336H25.6666V23.9167H25.6666Z" fill="#00ABBE"/>
</svg>
