<svg width="54" height="54" viewBox="0 0 54 54" fill="none" xmlns="http://www.w3.org/2000/svg">
<path d="M24.5365 43.8768C17.2004 40.306 3.03223 33.0874 3.03223 31.3587C3.03223 27.3402 6.51211 27.3402 6.51211 27.3402L6.68177 27.3301C6.60768 28.1242 6.56598 28.9511 6.56598 29.8125C6.56598 30.0908 6.65375 30.362 6.81682 30.5875C6.90852 30.7143 7.72206 31.9428 9.83638 33.2818C17.752 38.2947 27.5716 38.6266 27.5716 38.6266C27.5716 38.6266 28.0883 38.8786 28.2741 38.9775C28.8152 39.2657 29.7776 39.749 30.3618 39.9331C30.7534 40.0569 30.917 39.9846 31.3157 39.9483C32.1376 39.8734 33.2778 39.7324 34.8517 39.3998C38.1129 38.7108 40.8298 37.6233 42.9271 36.1678C43.2909 35.9153 43.5041 35.4975 43.4953 35.0547C43.494 34.9913 43.4826 34.512 43.4236 33.7213C43.5562 33.6746 43.6821 33.6071 43.7957 33.5189C45.5053 32.1918 46.2008 30.0674 46.2745 29.8295C46.3373 29.6268 46.3504 29.4118 46.3126 29.2029C46.1788 28.4627 46.0392 27.7778 45.8952 27.137C47.9023 29.5388 50.4683 32.8192 50.8059 34.2574C51.4815 37.1356 50.0102 40.0996 47.4974 40.9058L35.1972 44.6634C33.7708 45.1211 32.3067 45.3484 30.8456 45.3484C28.6921 45.3483 26.5452 44.8546 24.5365 43.8768ZM37.1476 14.4715C38.954 16.974 40.4183 20.0174 41.5113 23.5584C42.5529 26.9327 43.0489 30.0739 43.2844 32.2184C44.498 31.0925 45.0111 29.4382 45.0111 29.4382C43.7088 22.2359 41.9576 20.3487 40.1763 17.7306C39.3363 16.496 38.3029 15.4339 37.1476 14.4715ZM26.3111 8.65192C24.1876 8.65192 20.3968 9.12123 18.5505 10.1809C19.6709 10.2424 21.5309 10.6061 23.4785 12.1093C25.9659 14.0291 27.9015 17.2383 29.2314 21.6476C29.2339 21.6559 29.2363 21.6642 29.2387 21.6725C29.3522 22.0774 31.9973 31.5934 32.041 38.5348C32.7486 38.4443 33.6185 38.3086 34.5783 38.1058C36.9363 37.6075 39.8326 36.7055 42.173 35.0812C42.173 35.0812 42.0681 29.8465 40.2476 23.9485C39.1189 20.2921 37.3302 16.3815 34.4989 13.3045C32.6516 11.2969 30.2759 9.56565 27.6469 8.76653C27.399 8.69109 26.9245 8.65192 26.3111 8.65192ZM7.88858 29.8125C7.88858 29.8125 8.64961 30.865 10.5841 32.1908C13.4168 34.1322 18.7657 36.6597 27.9269 37.3269L30.7194 38.7076C30.7194 31.8544 27.9652 22.0295 27.9652 22.0295C25.0657 12.4166 20.0093 11.4927 18.1728 11.4927C17.7393 11.4927 17.4852 11.5442 17.4813 11.545C15.7834 12.4815 14.2735 13.7166 13.0218 15.1794L13.0217 15.1792C13.0217 15.1792 7.88858 20.3979 7.88858 29.8125Z" fill="#065D64"/>
</svg>
