<svg width="388" height="388" viewBox="0 0 388 388" fill="none" xmlns="http://www.w3.org/2000/svg">
<path d="M315.527 206.315C247.968 167.313 138.793 167.313 71.6766 206.315C4.56041 245.317 4.94065 308.561 72.4526 347.547C139.965 386.533 249.194 386.549 316.318 347.547C383.442 308.545 383.085 245.325 315.527 206.315Z" fill="#F5F5F5"/>
<path d="M214.68 192.122L207.323 187.877C206.541 187.427 205.654 187.191 204.751 187.191C203.848 187.191 202.961 187.427 202.178 187.877L152.344 216.652C142.178 215.146 130.973 216.652 123.05 221.308C115.127 225.964 112.519 232.303 115.088 238.154L82.3174 257.081C81.9822 257.275 81.7038 257.553 81.5103 257.888C81.3167 258.223 81.2148 258.603 81.2148 258.99C81.2148 259.377 81.3167 259.757 81.5103 260.092C81.7038 260.427 81.9822 260.706 82.3174 260.899L89.6739 265.144C90.4552 265.598 91.3427 265.837 92.2463 265.837C93.1499 265.837 94.0374 265.598 94.8188 265.144L125.354 247.544C137.429 253.325 155.3 252.976 166.544 246.419C177.789 239.862 178.371 229.611 168.492 222.642L214.68 195.979C215.022 195.787 215.307 195.507 215.506 195.168C215.704 194.829 215.808 194.443 215.808 194.051C215.808 193.658 215.704 193.272 215.506 192.933C215.307 192.594 215.022 192.314 214.68 192.122Z" fill="#E6E6E6"/>
<path d="M52.0299 293.258C50.0278 294.414 50.02 296.285 52.0299 297.441L55.4365 299.474C56.5539 300.044 57.7905 300.341 59.0449 300.341C60.2993 300.341 61.5359 300.044 62.6533 299.474L152.235 247.754C154.229 246.597 154.245 244.727 152.235 243.571L148.828 241.538C147.71 240.971 146.473 240.676 145.22 240.676C143.966 240.676 142.73 240.971 141.611 241.538L52.0299 293.258Z" fill="#E6E6E6"/>
<path d="M176.15 225.723C174.823 226.499 174.815 227.725 176.15 228.493L178.4 229.836C179.141 230.211 179.96 230.406 180.79 230.406C181.621 230.406 182.44 230.211 183.181 229.836L242.475 195.599C243.794 194.823 243.802 193.597 242.475 192.836L240.217 191.494C239.478 191.115 238.66 190.918 237.83 190.918C237.001 190.918 236.183 191.115 235.444 191.494L176.15 225.723Z" fill="#E6E6E6"/>
<path d="M270.963 310.447C256.693 302.213 233.63 302.213 219.452 310.447C205.275 318.68 205.345 332.051 219.615 340.292C233.886 348.533 256.957 348.533 271.134 340.292C285.312 332.051 285.242 318.688 270.963 310.447Z" fill="#E6E6E6"/>
<path d="M314.528 242.368C300.258 234.127 277.195 234.127 263.01 242.368C248.824 250.609 248.91 263.964 263.18 272.205C277.451 280.446 300.514 280.446 314.699 272.205C328.884 263.964 328.799 250.648 314.528 242.368Z" fill="#E6E6E6"/>
<path d="M179.257 315.685C164.987 307.444 141.924 307.444 127.746 315.685C113.569 323.926 113.639 337.281 127.909 345.522C142.18 353.763 165.251 353.763 179.428 345.522C193.606 337.281 193.567 323.926 179.257 315.685Z" fill="#E6E6E6"/>
<path d="M261.131 68.4045L264.173 66.6429L296.33 85.135V88.6503L261.131 68.4045Z" fill="#F5F5F5"/>
<path d="M261.131 68.4044L296.331 88.6503V92.6699L261.124 72.4474L261.131 68.4044Z" fill="#E0E0E0"/>
<path d="M314.711 99.2349L317.753 97.4656L349.911 115.958V119.481L314.711 99.2349Z" fill="#F5F5F5"/>
<path d="M314.712 99.2349L349.911 119.481V123.5L314.704 103.27L314.712 99.2349Z" fill="#E0E0E0"/>
<path d="M261.302 34.6096L264.344 32.8403L264.165 123.896L261.124 125.665L261.302 34.6096Z" fill="#F0F0F0"/>
<path d="M261.124 125.666L264.165 123.896L299.194 144.002L296.152 145.772L261.124 125.666Z" fill="#F5F5F5"/>
<path d="M257.808 28.5646L299.837 52.7137L299.643 151.817L257.63 127.668L257.808 28.5646ZM296.151 145.741L296.329 54.6847L261.3 34.6096L261.122 125.665L296.151 145.772" fill="#E0E0E0"/>
<path d="M257.808 28.5646L260.85 26.7953L302.885 50.9444L299.836 52.7137L257.808 28.5646Z" fill="#F5F5F5"/>
<path d="M299.835 52.7137L302.885 50.9445L302.683 150.047L299.633 151.817L299.835 52.7137Z" fill="#F0F0F0"/>
<path d="M314.883 65.4401L317.925 63.6708L317.746 154.727L314.704 156.488L314.883 65.4401Z" fill="#F0F0F0"/>
<path d="M314.704 156.488L317.746 154.727L352.775 174.833L349.733 176.594L314.704 156.488Z" fill="#F5F5F5"/>
<path d="M311.392 59.3951L353.42 83.5443L353.218 182.639L311.175 158.49L311.392 59.3951ZM349.734 176.571L349.913 85.5231L314.884 65.4324L314.706 156.488L349.734 176.594" fill="#E0E0E0"/>
<path d="M311.392 59.395L314.434 57.6257L356.47 81.7748L353.42 83.5441L311.392 59.395Z" fill="#F5F5F5"/>
<path d="M353.422 83.5442L356.472 81.7749L356.27 180.87L353.228 182.639L353.422 83.5442Z" fill="#F0F0F0"/>
<path d="M143.693 241.98V248.258C143.716 248.535 143.843 248.794 144.048 248.982C144.252 249.17 144.52 249.275 144.799 249.275C145.077 249.275 145.345 249.17 145.55 248.982C145.755 248.794 145.881 248.535 145.904 248.258V241.98H143.693Z" fill="#00ABBE"/>
<path d="M145.887 212.151C145.9 211.998 145.881 211.844 145.831 211.698C145.782 211.553 145.702 211.42 145.598 211.307C145.494 211.194 145.368 211.103 145.228 211.042C145.087 210.98 144.935 210.948 144.782 210.948C144.628 210.948 144.476 210.98 144.336 211.042C144.195 211.103 144.069 211.194 143.965 211.307C143.861 211.42 143.781 211.553 143.732 211.698C143.682 211.844 143.663 211.998 143.676 212.151V241.98H145.887V212.151Z" fill="#263238"/>
<path d="M148.573 210.032C148.466 209.935 148.34 209.86 148.204 209.811C148.067 209.762 147.922 209.741 147.777 209.748C147.485 209.762 147.21 209.893 147.014 210.11C146.817 210.327 146.715 210.613 146.729 210.906C146.744 211.198 146.874 211.473 147.091 211.669L166.926 229.58L168.478 228.028L148.573 210.032Z" fill="#263238"/>
<path d="M172.008 231.201L168.485 228.02L166.933 229.572L170.541 232.823C170.645 232.92 170.767 232.995 170.9 233.044C171.034 233.093 171.175 233.116 171.317 233.11C171.539 233.109 171.755 233.042 171.938 232.915C172.121 232.789 172.261 232.611 172.341 232.404C172.421 232.197 172.436 231.971 172.385 231.755C172.334 231.539 172.218 231.343 172.054 231.194L172.008 231.201Z" fill="#1CA461"/>
<path d="M117.587 231.201C117.423 231.351 117.307 231.546 117.256 231.762C117.205 231.978 117.22 232.205 117.3 232.412C117.38 232.619 117.52 232.797 117.703 232.923C117.885 233.049 118.102 233.117 118.324 233.118C118.466 233.124 118.607 233.101 118.74 233.052C118.874 233.003 118.996 232.928 119.1 232.831L122.708 229.58L121.156 228.028L117.587 231.201Z" fill="#00ABBE"/>
<path d="M142.583 210.11C142.387 209.894 142.114 209.765 141.823 209.751C141.532 209.736 141.247 209.837 141.031 210.032L121.119 228.02L122.671 229.572L142.505 211.662C142.721 211.466 142.85 211.193 142.864 210.902C142.879 210.611 142.778 210.326 142.583 210.11Z" fill="#263238"/>
<path d="M151.321 209.38H138.299V213.136C138.299 214.106 138.951 215.068 140.224 215.798C141.645 216.524 143.218 216.902 144.814 216.902C146.41 216.902 147.983 216.524 149.404 215.798C150.669 215.068 151.297 214.106 151.29 213.136L151.321 209.38Z" fill="#37474F"/>
<path d="M149.373 206.719C151.918 208.185 151.933 210.599 149.373 212.034C147.952 212.76 146.379 213.139 144.783 213.139C143.187 213.139 141.614 212.76 140.193 212.034C137.647 210.568 137.632 208.154 140.193 206.719C141.614 205.993 143.187 205.614 144.783 205.614C146.379 205.614 147.952 205.993 149.373 206.719Z" fill="#455A64"/>
<path d="M142.964 71.8732V208.977C142.974 209.143 143.03 209.302 143.124 209.439C143.218 209.576 143.348 209.684 143.499 209.753C143.902 209.959 144.347 210.067 144.799 210.067C145.251 210.067 145.697 209.959 146.099 209.753C146.252 209.687 146.384 209.579 146.479 209.442C146.573 209.305 146.627 209.144 146.634 208.977V71.8732H142.964Z" fill="#263238"/>
<path d="M84.708 82.5819V200.58L203.832 131.804V13.2928L84.708 82.5819Z" fill="#455A64"/>
<path d="M89.1162 85.1195L199.417 20.9675V129.251L89.1162 192.937V85.1195Z" fill="#FAFAFA"/>
<path d="M88.0681 80.7041C89.0397 81.3368 89.8478 82.1904 90.4264 83.1952C91.005 84.2 91.3376 85.3274 91.3971 86.4853C91.3971 88.6038 89.8917 89.4651 88.0448 88.3943C87.0715 87.7646 86.2615 86.9129 85.6814 85.9092C85.1013 84.9056 84.7677 83.7785 84.708 82.6208C84.7158 80.4558 86.2134 79.6022 88.0681 80.7041Z" fill="#263238"/>
<path d="M211.199 16.8392C211.203 16.785 211.203 16.7305 211.199 16.6762V16.5133V16.3503C211.203 16.2935 211.203 16.2364 211.199 16.1796V16.0166C211.199 15.9623 211.199 15.9002 211.16 15.8459C211.121 15.7916 211.16 15.7994 211.16 15.7838C211.16 15.7838 211.16 15.7295 211.16 15.7062L211.114 15.5278C211.114 15.489 211.114 15.4424 211.075 15.4036V15.3493C211.075 15.295 211.036 15.2406 211.021 15.1786C211.005 15.1165 210.982 15.0699 210.959 15.0078V14.9535L210.912 14.8449C210.895 14.7893 210.874 14.7349 210.85 14.6819C210.835 14.6417 210.817 14.6028 210.796 14.5655V14.5267L210.726 14.3638C210.694 14.3058 210.666 14.2463 210.64 14.1853V14.1465L210.563 14.0068L210.47 13.8361L210.423 13.7507V13.7119L210.33 13.5645L210.198 13.355V13.3162L209.989 13.0213C209.935 12.96 209.886 12.8952 209.841 12.8273C209.795 12.7807 209.756 12.7264 209.717 12.6798L209.585 12.5246L209.461 12.385L209.368 12.2841L209.228 12.1444L209.181 12.1056L209.112 12.0435L208.964 11.9116L208.894 11.8573H208.84C208.794 11.8168 208.745 11.7804 208.693 11.7486L208.592 11.671L208.444 11.5779L208.305 11.4926L208.196 11.4305L208.056 11.3606L207.971 11.3141H207.924L207.792 11.252L207.653 11.2054H207.56L207.42 11.1666H207.358H207.288H207.141H206.659C206.595 11.1624 206.53 11.1624 206.465 11.1666H206.419L206.233 11.2132C206.142 11.2435 206.056 11.2852 205.977 11.3374L86.1777 80.7894C86.2586 80.7413 86.3445 80.7023 86.4338 80.673L86.6356 80.6109C86.7182 80.6033 86.8013 80.6033 86.8839 80.6109H87.2253C87.3185 80.6109 87.4116 80.6109 87.5047 80.6574L87.7996 80.735C87.9005 80.735 88.0091 80.8126 88.1177 80.867C88.2264 80.9135 88.335 80.9756 88.4514 81.0377L88.7851 81.255C88.886 81.3326 88.9869 81.4024 89.0877 81.4878L89.3671 81.7361H89.4059L89.6775 82.0154L89.9646 82.3336L90.2362 82.6828C90.3216 82.7914 90.3992 82.9078 90.469 83.0165L90.6087 83.2338C90.6087 83.2958 90.6863 83.3502 90.7173 83.4122L90.7639 83.4976L90.9346 83.8158C91.0045 83.9477 91.0665 84.0718 91.1209 84.2038C91.1752 84.3279 91.2295 84.4598 91.2761 84.584C91.3304 84.7159 91.3692 84.8478 91.4157 84.9798C91.4157 85.1117 91.4933 85.2358 91.5244 85.3678C91.5244 85.4997 91.5787 85.6316 91.602 85.7635C91.6251 85.8944 91.6407 86.0266 91.6485 86.1593C91.6563 86.2885 91.6563 86.4181 91.6485 86.5473C91.6485 86.6714 91.6485 86.7956 91.6485 86.912L91.602 87.2224C91.5817 87.317 91.5558 87.4103 91.5244 87.5018C91.5269 87.5198 91.5269 87.5381 91.5244 87.5561C91.5014 87.6367 91.4702 87.7147 91.4313 87.7889C91.3919 87.8715 91.3479 87.9519 91.2993 88.0294C91.2597 88.0896 91.2156 88.1467 91.1674 88.2002L91.1209 88.2545L90.9889 88.3786L90.9346 88.4252C90.8757 88.4735 90.8135 88.5176 90.7484 88.5571L210.547 19.1051C210.617 19.0656 210.682 19.0188 210.741 18.9654L210.796 18.9189L210.92 18.8025L210.974 18.7404C211.02 18.6868 211.061 18.6297 211.098 18.5697C211.098 18.4998 211.184 18.4222 211.222 18.3369C211.246 18.2865 211.267 18.2347 211.284 18.1817C211.284 18.1817 211.284 18.1274 211.284 18.0963V18.0498C211.281 18.0344 211.281 18.0185 211.284 18.0032C211.302 17.9474 211.315 17.8903 211.323 17.8325C211.327 17.8119 211.327 17.791 211.323 17.7704V17.7316C211.323 17.7316 211.323 17.7316 211.323 17.6695V17.5066C211.323 17.5066 211.323 17.4445 211.323 17.4212V17.3514C211.323 17.297 211.323 17.2427 211.323 17.1884C211.323 17.1341 211.323 17.0798 211.323 17.0254C211.289 16.9586 211.248 16.8961 211.199 16.8392Z" fill="#37474F"/>
<path d="M164.945 102.967L178.23 104.108L178.284 121.708C169.826 126.589 162.95 122.67 162.919 112.955C162.975 109.529 163.662 106.144 164.945 102.967Z" fill="#00ABBE"/>
<path d="M185.876 84.421C190.447 84.8401 193.527 88.7433 193.551 95.2462C193.551 104.969 186.745 116.819 178.287 121.708L178.232 104.093L185.806 84.5219L185.876 84.421Z" fill="#00A390"/>
<path d="M178.186 86.5162C180.468 85.061 183.141 84.3406 185.845 84.452L185.806 84.5529L178.232 104.108L164.947 102.967C167.617 96.2239 172.521 89.7909 178.186 86.5162Z" fill="#2FAF8A"/>
<g opacity="0.2">
<path d="M178.188 86.5162C180.47 85.061 183.143 84.3406 185.847 84.452L185.808 84.5529L178.234 104.108L164.949 102.967C167.619 96.2239 172.523 89.7909 178.188 86.5162Z" fill="white"/>
</g>
<path d="M164.945 102.967L178.23 104.108L178.284 121.708C169.826 126.589 162.95 122.67 162.919 112.955C162.975 109.529 163.662 106.144 164.945 102.967Z" fill="#2FAF8A"/>
<g opacity="0.1">
<path d="M185.877 84.421C190.448 84.8401 193.528 88.7433 193.552 95.2462C193.552 104.969 186.746 116.819 178.288 121.708L178.233 104.093L185.807 84.5219L185.877 84.421Z" fill="#1CA461"/>
</g>
<path d="M166.647 57.8198C167.788 57.1679 168.704 57.6956 168.711 58.9993C168.673 59.7099 168.467 60.4013 168.111 61.0175C167.755 61.6337 167.259 62.1573 166.663 62.5456C165.522 63.2052 164.606 62.6775 164.599 61.3738C164.638 60.6623 164.844 59.97 165.199 59.3527C165.555 58.7353 166.051 58.2102 166.647 57.8198Z" fill="#00ABBE"/>
<path d="M166.669 65.96C167.809 65.3004 168.725 65.8281 168.733 67.1318C168.694 67.8434 168.489 68.536 168.133 69.1534C167.777 69.7709 167.281 70.2958 166.684 70.6858C165.544 71.3377 164.628 70.81 164.62 69.5063C164.659 68.7958 164.864 68.1043 165.22 67.4881C165.576 66.8719 166.072 66.3483 166.669 65.96Z" fill="#00ABBE"/>
<path d="M166.694 74.1081C167.827 73.4485 168.75 73.9762 168.758 75.2798C168.719 75.9913 168.513 76.6837 168.157 77.301C167.801 77.9184 167.305 78.4434 166.709 78.8339C165.568 79.4858 164.653 78.9581 164.645 77.6544C164.684 76.9438 164.889 76.2523 165.245 75.6361C165.601 75.02 166.097 74.4964 166.694 74.1081Z" fill="#00ABBE"/>
<path d="M166.715 82.2559C167.848 81.5963 168.771 82.124 168.779 83.4277C168.74 84.1393 168.535 84.8319 168.179 85.4493C167.823 86.0668 167.327 86.5917 166.73 86.9817C165.589 87.6336 164.674 87.1137 164.666 85.8022C164.705 85.0916 164.91 84.4002 165.266 83.784C165.622 83.1678 166.118 82.6442 166.715 82.2559Z" fill="#00ABBE"/>
<path d="M178.224 52.1394L178.232 54.8554L171.473 58.7587L171.465 56.0504L178.224 52.1394Z" fill="#E0E0E0"/>
<path d="M187.257 46.9247L187.265 49.6407L180.506 53.544L180.499 50.828L187.257 46.9247Z" fill="#E0E0E0"/>
<path d="M189.888 69.8788L189.896 72.5948L180.164 78.213L180.157 75.497L189.888 69.8788Z" fill="#E0E0E0"/>
<path d="M183.928 65.1685L183.935 67.8767L171.519 75.0469L171.512 72.3309L183.928 65.1685Z" fill="#E0E0E0"/>
<path d="M180.038 59.2554L180.046 61.9636L171.494 66.9067L171.486 64.1907L180.038 59.2554Z" fill="#E0E0E0"/>
<path d="M178.295 76.5679L178.303 79.2839L171.544 83.1872L171.536 80.4789L178.295 76.5679Z" fill="#E0E0E0"/>
<path d="M103.721 163.364V165.932L96.6596 170.014L96.6519 167.445L103.721 163.364Z" fill="#E0E0E0"/>
<path d="M106.952 151.235V153.795L96.6308 159.755L96.623 157.194L106.952 151.235Z" fill="#E0E0E0"/>
<path d="M119.437 149.155L119.444 151.716L96.6455 164.884L96.6377 162.324L119.437 149.155Z" fill="#E0E0E0"/>
<path d="M156.584 122.577L156.592 125.138L135.5 137.313L135.492 134.752L156.584 122.577Z" fill="#E0E0E0"/>
<path d="M124.899 151.134L124.906 153.702L107.322 163.852L107.314 161.292L124.899 151.134Z" fill="#E0E0E0"/>
<path d="M115.692 141.046V143.614L96.6098 154.634L96.6021 152.065L115.692 141.046Z" fill="#E0E0E0"/>
<path d="M156.599 127.699L156.606 130.267L147.209 135.684L147.201 133.123L156.599 127.699Z" fill="#E0E0E0"/>
<path d="M156.615 132.828L156.622 135.389L143.818 142.784L143.811 140.215L156.615 132.828Z" fill="#E0E0E0"/>
<path d="M154.378 113.366L154.386 114.701L96.6519 148.045V146.711L154.378 113.366Z" fill="#395A65"/>
<path d="M117.171 95.4712L117.31 131.741L109.069 136.498L108.93 100.228L117.171 95.4712Z" fill="#00ABBE"/>
<path d="M117.171 81.5731V95.4713L108.93 100.228V86.33L117.171 81.5731Z" fill="#E0E0E0"/>
<path d="M129.548 99.2117L129.664 124.602L121.431 129.367L121.314 103.969L129.548 99.2117Z" fill="#00ABBE"/>
<path d="M129.548 74.403V99.2117L121.314 103.969V79.1598L129.548 74.403Z" fill="#E0E0E0"/>
<path d="M141.854 76.467L142.025 117.471L133.784 122.228L133.621 81.2239L141.854 76.467Z" fill="#00ABBE"/>
<path d="M141.854 67.4965V76.467L133.621 81.2239V72.2533L141.854 67.4965Z" fill="#E0E0E0"/>
<path d="M154.183 60.1865L154.384 110.339L146.143 115.089L145.941 64.9434L154.183 60.1865Z" fill="#00ABBE"/>
<path d="M104.868 123.702L104.946 138.881L96.7046 143.638L96.627 128.459L104.868 123.702Z" fill="#00ABBE"/>
<path d="M104.868 89.2478V123.702L96.627 128.459V94.0047L104.868 89.2478Z" fill="#E0E0E0"/>
<path d="M152.459 142.287C152.154 141.68 151.696 141.164 151.13 140.789C150.563 140.415 149.908 140.195 149.23 140.153C149.087 140.159 148.946 140.188 148.811 140.239L52.3468 195.94C51.8568 196.218 51.462 196.637 51.2139 197.143C51.0251 197.524 50.9268 197.944 50.9268 198.369V284.505C50.9456 284.925 51.063 285.335 51.2694 285.702C51.4759 286.069 51.7656 286.382 52.1152 286.616C52.4649 286.85 52.8647 286.998 53.2823 287.05C53.7 287.101 54.1238 287.053 54.5196 286.911C54.5577 286.9 54.5942 286.884 54.6283 286.864L151.093 231.132C151.522 230.888 151.879 230.534 152.127 230.108C152.375 229.681 152.505 229.196 152.505 228.703V142.59C152.51 142.487 152.494 142.384 152.459 142.287Z" fill="#1CA461"/>
<path opacity="0.2" d="M50.9375 199.145V285.281C50.9564 285.701 51.0738 286.111 51.2802 286.478C51.4866 286.845 51.7764 287.158 52.126 287.392C52.4757 287.626 52.8754 287.774 53.2931 287.826C53.7107 287.877 54.1346 287.829 54.5304 287.687C54.4256 287.724 54.3135 287.735 54.2033 287.72C54.0931 287.705 53.9882 287.664 53.8971 287.6C53.806 287.536 53.7315 287.452 53.6797 287.353C53.6279 287.255 53.6003 287.146 53.5992 287.035V200.899C53.5986 200.346 53.7634 199.805 54.0726 199.347L51.2169 197.919C51.0308 198.301 50.9352 198.72 50.9375 199.145Z" fill="white"/>
<path opacity="0.4" d="M149.231 140.153C149.088 140.159 148.947 140.188 148.812 140.239L52.3478 195.94C51.8578 196.218 51.463 196.637 51.2148 197.143L54.0783 198.571C54.3175 198.206 54.6392 197.903 55.0172 197.686L151.49 142.008C151.573 141.961 151.664 141.932 151.759 141.922C151.853 141.912 151.949 141.922 152.04 141.95C152.131 141.978 152.215 142.025 152.287 142.087C152.359 142.149 152.418 142.225 152.46 142.311C152.158 141.699 151.701 141.178 151.135 140.799C150.568 140.42 149.912 140.198 149.231 140.153Z" fill="white"/>
<path opacity="0.3" d="M152.459 142.287C152.154 141.68 151.696 141.164 151.13 140.789C150.563 140.415 149.908 140.195 149.23 140.153C149.087 140.159 148.946 140.188 148.811 140.239L52.3468 195.94C51.8568 196.218 51.462 196.637 51.2139 197.143C51.0251 197.524 50.9268 197.944 50.9268 198.369V284.505C50.9456 284.925 51.063 285.335 51.2694 285.702C51.4759 286.069 51.7656 286.382 52.1152 286.616C52.4649 286.85 52.8647 286.998 53.2823 287.05C53.7 287.101 54.1238 287.053 54.5196 286.911C54.5577 286.9 54.5942 286.884 54.6283 286.864L151.093 231.132C151.522 230.888 151.879 230.534 152.127 230.108C152.375 229.681 152.505 229.196 152.505 228.703V142.59C152.51 142.487 152.494 142.384 152.459 142.287Z" fill="white"/>
<path opacity="0.4" d="M146.539 154.114C146.307 153.649 145.956 153.254 145.523 152.968C145.09 152.682 144.589 152.515 144.071 152.484C143.963 152.489 143.855 152.51 143.753 152.546L59.6656 200.984C59.338 201.17 59.0657 201.44 58.8762 201.766C58.6867 202.092 58.5869 202.462 58.5869 202.839V264.259C58.602 264.577 58.691 264.887 58.8468 265.165C59.0026 265.442 59.221 265.68 59.4846 265.858C59.7482 266.037 60.0498 266.152 60.3654 266.193C60.6811 266.235 61.002 266.202 61.3029 266.098L61.3883 266.059L145.476 217.598C145.803 217.412 146.076 217.142 146.265 216.816C146.454 216.49 146.554 216.12 146.554 215.744V154.346C146.565 154.269 146.56 154.189 146.539 154.114Z" fill="white"/>
<path d="M76.0799 231.589L76.1342 252.86L71.7731 255.382L71.7343 239.691L71.7188 234.104L76.0799 231.589Z" fill="#1CA461"/>
<path d="M71.7327 239.691L71.7714 255.382L67.4103 257.904L67.3638 242.213L71.7327 239.691Z" fill="#455A64"/>
<path d="M84.7928 222.852L84.8626 247.823L80.5015 250.345L80.4316 225.374L84.7928 222.852Z" fill="#455A64"/>
<path d="M97.8782 214.603L97.8937 218.266L97.9558 240.265L93.5947 242.787L93.5171 217.117L97.8782 214.603Z" fill="#455A64"/>
<path d="M102.251 215.744L102.313 237.751L97.9517 240.265L97.8896 218.266L102.251 215.744Z" fill="#1CA461"/>
<path d="M141.451 168.664L141.583 215.076L137.222 217.598L137.136 187.21L137.09 171.178L141.451 168.664Z" fill="#1CA461"/>
<path d="M137.135 187.21L137.22 217.598L132.859 220.112L132.774 189.732L137.135 187.21Z" fill="#455A64"/>
<path d="M124.028 189.414L124.129 225.156L119.768 227.671L119.667 191.928L124.028 189.414Z" fill="#455A64"/>
<path d="M128.38 181.63L128.489 222.634L124.128 225.156L124.027 189.414L124.011 184.152L128.38 181.63Z" fill="#1CA461"/>
<path d="M145.23 214.991V215.875L63.7812 262.893V262.009L145.23 214.991Z" fill="#455A64"/>
<path d="M115.319 200.123L115.404 230.193L111.035 232.707L110.965 205.555L110.958 202.645L115.319 200.123Z" fill="#1CA461"/>
<g opacity="0.4">
<path d="M59.2417 275.426V277.474L64.891 274.215V272.159L59.2417 275.426Z" fill="white"/>
<path d="M77.4524 260.806L59.2241 271.328L59.2319 273.377L77.4601 262.855L77.4524 260.806Z" fill="white"/>
<path d="M127.461 232.086L109.232 242.609L109.24 244.657L127.468 234.127L127.461 232.086Z" fill="white"/>
<path d="M84.6943 260.728L84.7021 262.777L94.0684 257.368L94.0607 255.32L84.6943 260.728Z" fill="white"/>
<path d="M129.024 231.256L129.032 233.312L138.398 227.903L138.391 225.847L129.024 231.256Z" fill="white"/>
<path d="M97.9009 253.232L97.9086 255.289L114.236 245.922L114.228 243.874L97.9009 253.232Z" fill="white"/>
<path d="M80.3325 259.145V261.194L96.7837 251.696L96.776 249.647L80.3325 259.145Z" fill="white"/>
<path d="M67.7627 270.498L67.7705 272.554L81.8238 264.437V262.381L67.7627 270.498Z" fill="white"/>
<path d="M107.16 243.656L99.6479 247.986L99.6557 250.035L107.167 245.697L107.16 243.656Z" fill="white"/>
</g>
<path d="M240.702 81.2315C240.396 80.6223 239.935 80.1042 239.366 79.7296C238.796 79.355 238.138 79.137 237.458 79.0975C237.312 79.1009 237.168 79.1271 237.031 79.1751L176.286 114.204C175.799 114.483 175.407 114.902 175.161 115.407C174.972 115.788 174.874 116.207 174.874 116.633V202.769C174.892 203.19 175.009 203.601 175.216 203.968C175.423 204.336 175.714 204.649 176.064 204.884C176.415 205.118 176.816 205.266 177.235 205.317C177.653 205.367 178.078 205.318 178.474 205.174L178.591 205.128L239.336 170.076C239.765 169.832 240.122 169.478 240.37 169.052C240.618 168.625 240.748 168.14 240.748 167.647V81.5342C240.754 81.4311 240.739 81.3279 240.702 81.2315Z" fill="#008B9A"/>
<path opacity="0.2" d="M174.888 115.081V201.217C174.906 201.638 175.024 202.049 175.231 202.417C175.437 202.784 175.728 203.098 176.079 203.332C176.429 203.566 176.83 203.714 177.249 203.765C177.667 203.815 178.092 203.767 178.488 203.622C178.384 203.659 178.271 203.671 178.161 203.656C178.051 203.641 177.946 203.6 177.855 203.536C177.764 203.472 177.689 203.388 177.638 203.289C177.586 203.191 177.558 203.082 177.557 202.971V116.835C177.557 116.282 177.721 115.741 178.031 115.283L175.167 113.855C174.981 114.236 174.885 114.656 174.888 115.081Z" fill="white"/>
<path opacity="0.4" d="M237.455 77.5455C237.31 77.5489 237.166 77.5751 237.029 77.6231L176.283 112.652C175.796 112.931 175.404 113.35 175.158 113.855L178.022 115.282C178.261 114.918 178.583 114.615 178.961 114.398L239.714 79.3691C239.797 79.3228 239.889 79.294 239.984 79.2846C240.079 79.2751 240.175 79.2853 240.266 79.3144C240.357 79.3435 240.441 79.3909 240.513 79.4537C240.584 79.5165 240.643 79.5933 240.684 79.6795C240.379 79.0724 239.921 78.5558 239.355 78.1814C238.788 77.8069 238.133 77.5876 237.455 77.5455Z" fill="white"/>
<path opacity="0.3" d="M240.702 79.6718C240.395 79.0639 239.934 78.5475 239.364 78.1743C238.795 77.8011 238.138 77.5842 237.458 77.5455C237.312 77.5489 237.168 77.5751 237.031 77.6231L176.286 112.652C175.799 112.931 175.407 113.35 175.161 113.855C174.972 114.236 174.874 114.655 174.874 115.081V201.217C174.892 201.638 175.009 202.049 175.216 202.416C175.423 202.784 175.714 203.097 176.064 203.332C176.415 203.566 176.816 203.714 177.235 203.765C177.653 203.815 178.078 203.766 178.474 203.622L178.591 203.576L239.336 168.524C239.765 168.28 240.122 167.926 240.37 167.5C240.618 167.073 240.748 166.588 240.748 166.095V79.9822C240.754 79.8766 240.738 79.771 240.702 79.6718Z" fill="white"/>
<path opacity="0.4" d="M183.516 118.651L234.817 89.0771V148.992L183.516 178.597V118.651Z" fill="white"/>
<g opacity="0.4">
<path d="M192.319 182.748L192.327 184.936L183.48 190.042V187.846L192.319 182.748Z" fill="white"/>
<path d="M203.012 180.971L203.02 183.159L183.496 194.435L183.488 192.239L203.012 180.971Z" fill="white"/>
<path d="M234.811 158.211L234.819 160.399L216.761 170.829L216.753 168.633L234.811 158.211Z" fill="white"/>
<path d="M215.499 164.962V167.158L202.889 174.445L202.881 172.249L215.499 164.962Z" fill="white"/>
<path d="M213.682 170.41V172.606L195.407 183.159L195.399 180.971L213.682 170.41Z" fill="white"/>
<path d="M199.805 174.026V176.222L183.471 185.658L183.463 183.454L199.805 174.026Z" fill="white"/>
<path d="M222.372 169.936L222.38 172.132L206.037 181.561V179.365L222.372 169.936Z" fill="white"/>
</g>
<path d="M200.62 152.957L202.513 158.607L200.744 166.049L196.996 168.214L200.62 152.957Z" fill="#00ABBE"/>
<path opacity="0.2" d="M200.62 152.957L202.513 158.607L200.744 166.049L196.996 168.214L200.62 152.957Z" fill="black"/>
<path d="M202.515 158.607L204.323 163.984L200.746 166.048L202.515 158.607Z" fill="#008D9C"/>
<g opacity="0.3">
<path d="M202.515 158.607L204.323 163.984L200.746 166.049L202.515 158.607Z" fill="black"/>
</g>
<path d="M204.932 148.426L209.208 161.16L204.319 163.984L202.511 158.607L204.932 148.426Z" fill="#00ABBE"/>
<g opacity="0.2">
<path d="M204.93 148.426L209.206 161.16L204.317 163.984L202.509 158.607L204.93 148.426Z" fill="black"/>
</g>
<path d="M203.043 142.784L204.936 148.426L202.515 158.607L200.622 152.957L203.043 142.784Z" fill="#00ABBE"/>
<path d="M194.645 135.179L200.62 152.957L196.996 168.213L185.17 175.042L194.645 135.179Z" fill="#00ABBE"/>
<path d="M218.974 127.799L226.765 151.025L211.331 159.941L218.974 127.799Z" fill="#00ABBE"/>
<path opacity="0.2" d="M218.974 127.799L226.765 151.025L211.331 159.941L218.974 127.799Z" fill="black"/>
<path d="M213.625 111.884L218.971 127.799L211.328 159.941L209.209 161.16L204.934 148.426L213.625 111.884Z" fill="#00ABBE"/>
<path d="M222.705 112.07L234.322 146.664L226.764 151.025L218.973 127.799L222.705 112.07Z" fill="#00ABBE"/>
<path opacity="0.1" d="M222.705 112.07L218.972 127.799L213.626 111.884L204.935 148.426L203.041 142.784L200.62 152.957L194.645 135.179L185.17 175.042L196.996 168.214L200.744 166.048L204.322 163.984L209.21 161.16L211.329 159.941L226.764 151.025L234.322 146.664L222.705 112.07Z" fill="#00ABBE"/>
<path d="M101.012 109.09C100.708 108.483 100.249 107.966 99.6828 107.592C99.1163 107.217 98.4614 106.998 97.7837 106.956C97.6379 106.963 97.4939 106.991 97.3569 107.041L30.1087 146.02C29.6842 146.268 29.3319 146.622 29.0869 147.048C28.8419 147.474 28.7126 147.957 28.7119 148.449V191.478C28.7304 191.899 28.8478 192.31 29.0547 192.678C29.2616 193.045 29.5521 193.359 29.9027 193.593C30.2534 193.827 30.6543 193.976 31.0729 194.026C31.4916 194.077 31.9163 194.028 32.3126 193.884L32.429 193.837L99.6849 154.827C100.115 154.585 100.472 154.232 100.721 153.805C100.969 153.378 101.099 152.892 101.097 152.399V109.416C101.097 109.302 101.067 109.19 101.012 109.09Z" fill="#00A390"/>
<path opacity="0.2" d="M28.7121 148.449V191.478C28.7305 191.899 28.8479 192.31 29.0548 192.678C29.2617 193.045 29.5522 193.359 29.9029 193.593C30.2535 193.827 30.6544 193.976 31.0731 194.026C31.4918 194.077 31.9164 194.028 32.3127 193.884C32.2079 193.921 32.0957 193.932 31.9856 193.917C31.8754 193.902 31.7704 193.861 31.6794 193.797C31.5883 193.734 31.5137 193.649 31.4619 193.551C31.4101 193.452 31.3826 193.343 31.3815 193.232V150.195C31.3809 149.642 31.5457 149.101 31.8549 148.643L28.9914 147.215C28.8033 147.599 28.7076 148.021 28.7121 148.449Z" fill="white"/>
<path opacity="0.4" d="M97.7783 106.956C97.6325 106.963 97.4885 106.991 97.3514 107.041L30.111 146.02C29.6221 146.297 29.2295 146.716 28.9858 147.223L31.8182 148.651C32.0554 148.284 32.3775 147.981 32.7572 147.766L100.013 108.787C100.096 108.741 100.188 108.712 100.282 108.702C100.377 108.692 100.473 108.701 100.563 108.729C100.654 108.758 100.738 108.804 100.811 108.866C100.883 108.928 100.941 109.005 100.983 109.09C100.681 108.486 100.226 107.972 99.6641 107.597C99.102 107.223 98.452 107.002 97.7783 106.956Z" fill="white"/>
<path opacity="0.3" d="M101.012 109.09C100.708 108.483 100.249 107.966 99.6828 107.592C99.1163 107.217 98.4614 106.998 97.7837 106.956C97.6379 106.963 97.4939 106.991 97.3569 107.041L30.1087 146.02C29.6842 146.268 29.3319 146.622 29.0869 147.048C28.8419 147.474 28.7126 147.957 28.7119 148.449V191.478C28.7304 191.899 28.8478 192.31 29.0547 192.678C29.2616 193.045 29.5521 193.359 29.9027 193.593C30.2534 193.827 30.6543 193.976 31.0729 194.026C31.4916 194.077 31.9163 194.028 32.3126 193.884L32.429 193.837L99.6849 154.827C100.115 154.585 100.472 154.232 100.721 153.805C100.969 153.378 101.099 152.892 101.097 152.399V109.416C101.097 109.302 101.067 109.19 101.012 109.09Z" fill="white"/>
<path d="M93.7806 120.707L93.7883 124.494L37.5361 156.969L37.5283 153.183L37.5361 156.969L82.9321 130.764L82.9166 126.977L93.7806 120.707Z" fill="#F5F5F5"/>
<path opacity="0.4" d="M87.5249 142.799L87.5404 146.594L37.5893 175.43L37.5815 171.636L87.5249 142.799Z" fill="white"/>
<path d="M93.8479 145.306L93.8557 149.101L37.6035 181.576L37.5957 177.782L37.6035 181.576L68.884 163.519L68.8685 159.732L93.8479 145.306Z" fill="#F5F5F5"/>
<path d="M68.8685 159.732L68.884 163.519L37.6035 181.576L37.5957 177.782L68.8685 159.732Z" fill="#00BFD4"/>
<path d="M93.826 139.16L93.8415 142.955L37.5893 175.43L37.5815 171.636L37.5893 175.43L87.5404 146.594L87.5249 142.799L93.826 139.16Z" fill="#F5F5F5"/>
<path d="M93.8089 133.006L93.8244 136.793L37.5722 169.269L37.5566 165.482L37.5722 169.269L73.1595 148.72L73.144 144.934L93.8089 133.006Z" fill="#F5F5F5"/>
<path d="M73.144 144.934L73.1595 148.72L37.5722 169.269L37.5566 165.482L73.144 144.934Z" fill="#00BFD4"/>
<path d="M93.7947 126.853L93.8025 130.64L37.558 163.123L58.5178 151.017L58.5022 147.23L93.7947 126.853Z" fill="#F5F5F5"/>
<path d="M58.5022 147.23L58.5178 151.017L37.558 163.123L37.5425 159.328L58.5022 147.23Z" fill="#00BFD4"/>
<path d="M82.9166 126.977L82.9321 130.764L37.5361 156.969L37.5283 153.182L82.9166 126.977Z" fill="#00BFD4"/>
<path opacity="0.4" d="M87.5249 142.799L87.5404 146.594L37.5893 175.43L37.5815 171.636L87.5249 142.799Z" fill="white"/>
<path opacity="0.4" d="M68.8685 159.732L68.884 163.519L37.6035 181.576L37.5957 177.782L68.8685 159.732Z" fill="white"/>
<path opacity="0.4" d="M73.144 144.934L73.1595 148.72L37.5722 169.269L37.5566 165.482L73.144 144.934Z" fill="white"/>
<path opacity="0.4" d="M58.5022 147.23L58.5178 151.017L37.558 163.123L37.5425 159.328L58.5022 147.23Z" fill="white"/>
<g opacity="0.4">
<path d="M82.9166 126.977L82.9321 130.764L37.5361 156.969L37.5283 153.182L82.9166 126.977Z" fill="white"/>
</g>
<path d="M140.216 142.295V144.864L128.498 151.63L128.491 149.062L140.216 142.295Z" fill="#E0E0E0"/>
<path d="M143.608 135.203L143.616 137.763L123.044 149.644L123.037 147.075L143.608 135.203Z" fill="#E0E0E0"/>
<path d="M134.015 130.469L134.023 133.03L119.294 141.535L119.287 138.966L134.015 130.469Z" fill="#E0E0E0"/>
<path d="M131.897 136.824L131.905 139.393L110.549 151.716L110.542 149.155L131.897 136.824Z" fill="#E0E0E0"/>
<path d="M110.968 205.555L111.038 232.707L106.677 235.229L106.599 208.077L110.968 205.555Z" fill="#455A64"/>
<path d="M89.1297 211.538L89.2228 245.309L84.8617 247.823L84.7918 222.852L84.7686 214.052L89.1297 211.538Z" fill="#1CA461"/>
<path d="M140.349 157.194L138.122 162.944L137.338 161.85L101.828 205.997L87.4799 204.771L67.2418 229.479L66.6133 228.547L87.4877 203.056L101.82 204.282L136.686 160.942L135.864 159.786L140.349 157.194Z" fill="#455A64"/>
<path d="M306.747 255.94C306.908 256.354 307.195 256.707 307.567 256.949C307.938 257.191 308.377 257.31 308.82 257.289C309.264 257.269 309.689 257.109 310.037 256.834C310.385 256.559 310.638 256.181 310.759 255.754C311.032 254.975 311.156 254.151 311.124 253.325C311.178 250.594 311.124 247.854 310.93 245.123C309.047 245.52 307.128 245.72 305.203 245.72C305.49 248.242 305.785 250.772 306.08 253.294C306.126 254.211 306.353 255.111 306.747 255.94Z" fill="#FFC0BF"/>
<path d="M312.729 252.006C312.023 249.725 311.247 247.397 311.41 245.022L310.936 245.131C311.115 247.862 311.185 250.601 311.13 253.333C311.163 254.158 311.039 254.982 310.766 255.762C310.644 256.189 310.391 256.566 310.043 256.842C309.696 257.117 309.27 257.277 308.827 257.297C308.383 257.318 307.945 257.199 307.573 256.956C307.201 256.714 306.914 256.362 306.754 255.948C306.359 255.119 306.133 254.219 306.086 253.302C305.792 250.78 305.497 248.25 305.21 245.728H304.604C305.116 248.561 304.744 251.463 304.604 254.342C304.465 257.221 304.457 260.208 305.691 262.808C305.976 263.512 306.465 264.114 307.095 264.538C307.44 264.726 307.82 264.841 308.21 264.877C308.601 264.913 308.995 264.869 309.369 264.748C310.112 264.497 310.786 264.077 311.34 263.522C312.602 262.319 313.443 260.74 313.738 259.021C314.087 256.678 313.427 254.28 312.729 252.006Z" fill="#455A64"/>
<path d="M282.878 249.825L283.351 252.642C284.524 252.169 285.546 251.385 286.308 250.376C286.362 248.211 286.308 245.984 286.308 244.898C285.71 246.217 284.407 247.102 283.6 248.32C283.295 248.788 283.052 249.294 282.878 249.825Z" fill="#37474F"/>
<path d="M282.156 252.34L283.351 252.642L282.877 249.825C282.583 250.648 282.389 251.494 282.156 252.34Z" fill="#263238"/>
<path d="M286.429 241.771C286.193 241.024 285.881 240.304 285.498 239.621C285.468 240.781 285.11 241.908 284.466 242.873C283.69 244.168 282.581 245.286 281.812 246.605C280.866 248.211 280.377 250.097 279.143 251.486C278.534 252.162 277.776 252.686 276.928 253.016C276.08 253.346 275.167 253.473 274.262 253.387C273.588 253.371 272.948 253.093 272.477 252.611C272.292 252.365 272.189 252.066 272.182 251.758C271.574 252.412 270.9 253.002 270.172 253.519C269.357 254.086 268.38 254.683 268.248 255.669C268.225 256.081 268.324 256.49 268.533 256.846C268.741 257.202 269.049 257.489 269.42 257.671C270.165 258.021 270.978 258.204 271.802 258.206C273.561 258.36 275.333 258.208 277.04 257.756C278.757 257.288 280.245 256.209 281.222 254.722C281.635 253.991 281.949 253.208 282.154 252.394C282.387 251.548 282.581 250.687 282.875 249.88C283.067 249.346 283.328 248.84 283.651 248.374C284.427 247.156 285.762 246.271 286.36 244.952C286.36 244.882 286.429 244.813 286.453 244.743C286.77 243.776 286.762 242.732 286.429 241.771Z" fill="#455A64"/>
<path d="M274.263 253.387C275.168 253.473 276.081 253.346 276.929 253.016C277.777 252.686 278.535 252.162 279.144 251.486C280.378 250.097 280.867 248.211 281.813 246.605C282.589 245.286 283.66 244.168 284.467 242.872C285.111 241.908 285.469 240.781 285.499 239.621L285.212 239.07C282.776 239.505 280.114 239.66 277.77 240.451C277.047 242.911 276.129 245.309 275.023 247.622C274.275 249.12 273.319 250.504 272.183 251.734C272.19 252.043 272.293 252.341 272.478 252.588C272.945 253.078 273.586 253.365 274.263 253.387Z" fill="#FFC0BF"/>
<path d="M280.912 151.809L280.517 158.017C275.861 177.215 277.242 205.904 277.242 205.904L277.389 240.878C278.048 241.314 278.788 241.613 279.564 241.758C280.341 241.904 281.138 241.893 281.91 241.726C282.682 241.559 283.413 241.239 284.06 240.786C284.707 240.333 285.257 239.754 285.677 239.086C286.453 230.488 290.465 216.97 289.27 206.408C290.868 198.09 292.071 186.232 292.071 186.232L295.99 206.703L304.146 246.217C307.746 247.769 310.944 246.698 311.983 245.294C311.145 223.504 311.502 213.028 308.142 202.947C309.182 175.911 309.5 163.697 302.912 154.409L302.997 150.901L280.912 151.809Z" fill="#37474F"/>
<path opacity="0.2" d="M291.15 181.669C288.713 181.23 286.42 180.205 284.468 178.682C284.843 179.766 285.489 180.736 286.344 181.499C287.2 182.263 288.238 182.794 289.357 183.043L291.413 191.579L292.034 186.302L291.15 181.669Z" fill="black"/>
<path d="M287.294 130.601L284.034 130.539C282.588 130.539 281.172 130.956 279.956 131.739C278.74 132.522 277.774 133.638 277.175 134.954L271.13 148.216C265.635 149.768 261.818 152.693 256.789 153.066C255.811 153.066 252.366 151.351 251.016 150.66C250.95 150.625 250.876 150.605 250.802 150.603C250.727 150.6 250.653 150.615 250.584 150.646C250.516 150.676 250.456 150.722 250.408 150.78C250.361 150.838 250.327 150.906 250.309 150.978C250.246 151.219 250.255 151.473 250.337 151.708C250.418 151.943 250.568 152.148 250.767 152.298L252.374 153.508C249.138 154.191 246.6 152.321 245.483 153.772C244.365 155.223 245.149 157.512 248.633 158.715C252.118 159.918 256.564 159.297 260.964 158.296C265.364 157.295 275.157 154.416 275.157 154.416C283.662 146.144 287.294 130.601 287.294 130.601Z" fill="#FFC0BF"/>
<path d="M287.291 130.601C280.47 129.545 277.909 132.595 276.776 134.993C275.643 137.391 270.964 147.867 270.964 147.867C267.966 148.839 265.077 150.118 262.342 151.685C264.802 154.517 264.15 156.892 263.615 157.652C267.282 157.217 270.912 156.52 274.479 155.565C275.379 155.303 276.186 154.792 276.807 154.09C285.506 144.134 287.415 131.47 287.291 130.601Z" fill="#455A64"/>
<path opacity="0.2" d="M287.291 130.601C280.47 129.545 277.909 132.595 276.776 134.993C275.643 137.391 270.964 147.867 270.964 147.867C267.966 148.839 265.077 150.118 262.342 151.685C264.802 154.517 264.15 156.892 263.615 157.652C267.282 157.217 270.912 156.52 274.479 155.565C275.379 155.303 276.186 154.792 276.807 154.09C285.506 144.134 287.415 131.47 287.291 130.601Z" fill="white"/>
<path d="M288.989 130.321L286.661 130.492C286.208 130.526 285.767 130.663 285.373 130.891C284.98 131.12 284.643 131.434 284.388 131.811L278.956 139.889C278.155 141.074 277.764 142.489 277.843 143.916C277.921 145.344 278.465 146.707 279.39 147.797C279.736 148.202 279.992 148.676 280.143 149.186C280.294 149.697 280.336 150.233 280.267 150.761L277.474 172.117C288.198 180.079 304.634 176.827 309.484 174.227C309.394 168.177 307.754 162.251 304.719 157.016C304.071 155.883 303.654 154.633 303.493 153.339C303.332 152.044 303.429 150.73 303.78 149.473L305.332 143.925L300.676 130.733L288.989 130.321Z" fill="#455A64"/>
<path opacity="0.3" d="M288.989 130.321L286.661 130.492C286.208 130.526 285.767 130.663 285.373 130.891C284.98 131.12 284.643 131.434 284.388 131.811L278.956 139.889C278.155 141.074 277.764 142.489 277.843 143.916C277.921 145.344 278.465 146.707 279.39 147.797C279.736 148.202 279.992 148.676 280.143 149.186C280.294 149.697 280.336 150.233 280.267 150.761L277.474 172.117C288.198 180.079 304.634 176.827 309.484 174.227C309.394 168.177 307.754 162.251 304.719 157.016C304.071 155.883 303.654 154.633 303.493 153.339C303.332 152.044 303.429 150.73 303.78 149.473L305.332 143.925L300.676 130.733L288.989 130.321Z" fill="white"/>
<path d="M281.97 117.494C280.747 116.251 279.989 114.624 279.822 112.888C279.655 111.152 280.09 109.411 281.055 107.957C280.537 107.752 280.1 107.385 279.809 106.911C279.518 106.436 279.39 105.88 279.442 105.326C279.495 104.772 279.726 104.25 280.1 103.839C280.475 103.427 280.974 103.149 281.52 103.045C282.458 102.996 283.396 103.131 284.283 103.441C285.853 103.724 287.462 103.724 289.032 103.441C290.584 103.216 292.175 102.874 293.766 102.758C295.349 102.591 296.949 102.821 298.422 103.425C299.158 103.735 299.814 104.21 300.338 104.812C300.863 105.415 301.243 106.13 301.448 106.902C302.674 106.568 304.133 107.36 304.917 108.353C305.665 109.389 306.064 110.637 306.057 111.915C306.112 113.18 305.933 114.444 305.871 115.709C305.754 116.976 305.915 118.252 306.344 119.45C306.919 120.823 308.052 121.941 308.416 123.376C308.583 124.042 308.574 124.739 308.389 125.4C308.204 126.061 307.85 126.662 307.362 127.145C306.874 127.627 306.269 127.974 305.606 128.152C304.943 128.329 304.246 128.331 303.582 128.156C303.858 127.146 303.984 126.1 303.954 125.052C303.83 126.441 302.402 127.536 301.122 128.001C299.772 128.387 298.36 128.511 296.963 128.366L292.043 128.172L286.347 127.962C285.325 127.99 284.307 127.816 283.352 127.45C282.556 127.017 281.889 126.381 281.419 125.607C280.949 124.833 280.692 123.948 280.674 123.043C280.703 121.121 281.145 119.229 281.97 117.494Z" fill="#263238"/>
<path d="M288.99 125.487V135.684L297.2 129.507V121.979L288.99 125.487Z" fill="#FFC0BF"/>
<path d="M297.211 121.979C295.946 125.727 291.36 128.575 289.001 129.142V125.487L297.211 121.979Z" fill="#FFC0BF"/>
<path d="M296.216 116.028C296.106 116.679 296.078 117.341 296.131 117.999C296.2 118.497 296.428 118.96 296.783 119.318C296.955 119.487 297.166 119.61 297.398 119.678C297.629 119.746 297.874 119.755 298.11 119.706C297.962 119.049 298.078 118.361 298.433 117.789C298.787 117.217 299.352 116.807 300.006 116.647C300.66 116.487 301.351 116.591 301.929 116.935C302.507 117.279 302.928 117.837 303.099 118.487C303.211 118.946 303.221 119.423 303.129 119.885C303.036 120.348 302.843 120.785 302.564 121.165C301.996 121.921 301.26 122.534 300.414 122.957C299.931 123.117 299.406 123.103 298.933 122.915C298.459 122.728 298.066 122.38 297.822 121.933C295.316 125.107 290.955 127.489 286.873 127.148C285.755 127.084 284.678 126.701 283.769 126.046C282.217 124.851 282.108 123.05 281.914 121.266C281.626 119.008 281.644 116.721 281.969 114.468C282.387 111.328 283.905 108.438 286.252 106.312C287.657 113.048 293.849 115.531 296.216 116.028Z" fill="#FFC0BF"/>
<path d="M287.711 115.259L284.91 118.705L287.517 119.605L287.711 115.259Z" fill="#FFC0BF"/>
<path d="M289.9 121.281L287.728 121.972C287.867 122.228 288.087 122.432 288.353 122.552C288.619 122.673 288.917 122.703 289.202 122.639C289.458 122.528 289.667 122.333 289.794 122.085C289.922 121.837 289.959 121.553 289.9 121.281Z" fill="#FFC0BF"/>
<path opacity="0.3" d="M289.9 121.281L287.728 121.972C287.867 122.228 288.087 122.432 288.353 122.552C288.619 122.673 288.917 122.703 289.202 122.639C289.458 122.528 289.667 122.333 289.794 122.085C289.922 121.837 289.959 121.553 289.9 121.281Z" fill="black"/>
<path d="M288.489 122.608C288.722 122.677 288.97 122.677 289.203 122.608C289.404 122.529 289.577 122.393 289.701 122.216C289.825 122.04 289.895 121.83 289.901 121.615C289.589 121.565 289.269 121.637 289.007 121.814C288.745 121.991 288.56 122.261 288.489 122.569V122.608Z" fill="#FFC0BF"/>
<path d="M291.561 115.973C291.561 116.179 291.48 116.376 291.334 116.522C291.188 116.667 290.991 116.749 290.785 116.749C290.683 116.745 290.583 116.72 290.491 116.677C290.399 116.634 290.316 116.573 290.247 116.497C290.178 116.422 290.125 116.334 290.09 116.238C290.055 116.142 290.04 116.04 290.044 115.938C290.049 115.836 290.073 115.736 290.117 115.644C290.16 115.552 290.221 115.469 290.296 115.4C290.372 115.331 290.46 115.278 290.556 115.243C290.651 115.208 290.753 115.193 290.855 115.197C291.049 115.215 291.229 115.304 291.359 115.448C291.49 115.591 291.562 115.779 291.561 115.973Z" fill="#263238"/>
<path d="M285.057 115.43C285.057 115.636 284.976 115.833 284.83 115.979C284.685 116.124 284.487 116.206 284.281 116.206C284.176 116.206 284.072 116.185 283.975 116.143C283.878 116.102 283.791 116.041 283.718 115.965C283.646 115.889 283.59 115.799 283.553 115.7C283.516 115.601 283.5 115.496 283.505 115.391C283.51 115.289 283.535 115.189 283.579 115.097C283.623 115.005 283.684 114.922 283.76 114.854C283.836 114.785 283.924 114.732 284.02 114.698C284.116 114.664 284.218 114.649 284.32 114.654C284.519 114.664 284.707 114.75 284.844 114.895C284.981 115.039 285.058 115.231 285.057 115.43Z" fill="#263238"/>
<path d="M284.444 112.31L282.667 113.42C282.604 113.203 282.607 112.972 282.678 112.757C282.749 112.542 282.883 112.354 283.063 112.217C283.279 112.102 283.523 112.05 283.767 112.067C284.011 112.083 284.245 112.168 284.444 112.31Z" fill="#263238"/>
<path d="M291.093 112.52L292.761 113.793C292.845 113.582 292.862 113.351 292.811 113.131C292.76 112.91 292.642 112.711 292.474 112.559C292.27 112.425 292.033 112.351 291.789 112.344C291.545 112.337 291.304 112.398 291.093 112.52Z" fill="#263238"/>
<path d="M288.991 129.507C287.661 130.944 286.554 132.574 285.709 134.341C285.615 134.563 285.585 134.806 285.622 135.044C285.659 135.281 285.761 135.504 285.918 135.687C286.074 135.869 286.278 136.005 286.507 136.079C286.736 136.152 286.981 136.16 287.214 136.103L288.991 135.684V129.507Z" fill="#E0E0E0"/>
<path d="M288.99 135.684L297.2 129.476C297.34 133.356 295.454 136.785 294.283 138.531C294.178 138.689 294.04 138.822 293.879 138.92C293.718 139.019 293.537 139.081 293.349 139.103C293.162 139.124 292.971 139.104 292.792 139.045C292.613 138.985 292.449 138.886 292.312 138.756L288.99 135.684Z" fill="#E0E0E0"/>
<path d="M300.594 130.717C299.818 138.066 302.402 141.674 309.13 154.44C309.13 154.44 307.578 163.837 304.807 169.129C302.06 170.247 300.679 172.148 299.096 172.963C299.033 172.994 298.977 173.039 298.932 173.093C298.887 173.147 298.853 173.209 298.832 173.277C298.812 173.344 298.806 173.415 298.814 173.485C298.822 173.555 298.844 173.623 298.879 173.684C299.523 174.709 301.207 173.925 302.759 173.033C300.788 176.23 300.229 176.757 299.236 177.751C298.242 178.744 298.925 180.366 301.633 180.366C304.342 180.366 305.863 178.255 306.359 177.533C306.856 176.812 310.239 170.037 310.239 170.037L316.354 157.745C316.778 156.891 317.013 155.954 317.041 155.001C317.069 154.047 316.89 153.098 316.517 152.22L309.533 135.769C308.893 134.271 307.828 132.994 306.469 132.096C305.111 131.198 303.518 130.719 301.889 130.717H300.594Z" fill="#FFC0BF"/>
<path d="M300.594 130.717C298.149 139.028 307.663 152.29 308.858 154.416C308.082 156.209 306.996 163.495 306.996 163.495C310.876 163.969 312.257 165.986 312.257 165.986L316.284 158.847C316.917 157.724 317.282 156.47 317.349 155.183C317.416 153.896 317.185 152.611 316.672 151.429C314.74 146.951 311.59 139.649 309.999 135.909C307.601 130.252 302.689 130.663 300.594 130.717Z" fill="#455A64"/>
<path opacity="0.2" d="M300.594 130.717C298.149 139.028 307.663 152.29 308.858 154.416C308.082 156.209 306.996 163.495 306.996 163.495C310.876 163.969 312.257 165.986 312.257 165.986L316.284 158.847C316.917 157.724 317.282 156.47 317.349 155.183C317.416 153.896 317.185 152.611 316.672 151.429C314.74 146.951 311.59 139.649 309.999 135.909C307.601 130.252 302.689 130.663 300.594 130.717Z" fill="white"/>
<path d="M249.634 182.554L247.562 186.434L249.401 187.683C249.51 186.015 249.525 184.207 249.634 182.554Z" fill="#FFC0BF"/>
<path d="M266.945 197.647C271.259 194.202 274.829 200.666 277.444 207.875C278.996 212.252 280.657 216.52 281.689 219.205C282.022 220.066 282.13 220.999 282.002 221.914C281.875 222.829 281.516 223.697 280.959 224.435L273.269 234.655L269.839 227.236L274.092 220.78L269.762 212.857L266.945 197.647Z" fill="#00A390"/>
<path d="M225.591 231.97C223.279 233.105 220.787 233.833 218.227 234.119C215.658 234.404 213.062 233.954 210.738 232.823C208.398 231.629 206.617 229.569 205.772 227.081C206.134 226.679 206.625 226.416 207.16 226.336C207.696 226.257 208.242 226.367 208.705 226.646C210.952 227.896 213.6 228.211 216.077 227.523C215.3 226.728 214.603 225.857 213.998 224.924C213.695 224.458 213.423 223.853 213.726 223.372C213.865 223.202 214.053 223.08 214.265 223.023C214.476 222.966 214.7 222.976 214.905 223.054C215.311 223.219 215.682 223.458 216 223.76C217.871 225.271 220.081 226.307 222.44 226.778C223.418 228.416 224.629 230.34 225.591 231.97Z" fill="#FFC0BF"/>
<path d="M238.938 331.903C239.578 332.398 240.385 332.623 241.188 332.532C243.595 332.528 245.989 332.193 248.304 331.538C249.62 331.198 250.881 330.675 252.052 329.986C253.401 329.139 254.531 327.985 255.35 326.618C255.044 325.118 254.865 323.594 254.815 322.063C252.844 322.063 250.803 322.063 248.832 322.063V325.276C245.835 327.273 242.509 328.726 239.008 329.567C238.843 329.713 238.71 329.892 238.62 330.093C238.529 330.293 238.482 330.511 238.482 330.731C238.482 330.951 238.529 331.169 238.62 331.37C238.71 331.571 238.843 331.75 239.008 331.895L238.938 331.903Z" fill="#FFC0BF"/>
<path d="M255.815 328.551C255.637 327.907 255.481 327.255 255.35 326.603C254.53 327.969 253.4 329.123 252.052 329.971C250.88 330.66 249.619 331.182 248.303 331.523C245.988 332.178 243.594 332.512 241.188 332.516C240.384 332.608 239.577 332.382 238.937 331.887C238.772 331.742 238.64 331.563 238.549 331.362C238.459 331.161 238.412 330.944 238.412 330.723C238.412 330.503 238.459 330.286 238.549 330.085C238.64 329.884 238.772 329.705 238.937 329.559L238.161 329.753C237.21 329.88 236.29 330.177 235.445 330.63C235.026 330.865 234.69 331.224 234.483 331.658C234.276 332.091 234.208 332.578 234.289 333.051C234.457 333.454 234.71 333.816 235.032 334.11C235.353 334.405 235.735 334.626 236.151 334.759C239.221 336.111 242.68 336.293 245.875 335.271C247.838 334.627 249.755 333.525 251.803 333.587C252.983 333.587 254.279 334.006 255.272 333.362C255.619 333.1 255.897 332.755 256.08 332.36C256.262 331.965 256.345 331.531 256.32 331.096C256.266 330.229 256.096 329.373 255.815 328.551Z" fill="#00A390"/>
<path d="M263.242 309.29C262.753 309.343 262.295 309.555 261.937 309.892C261.58 310.23 261.343 310.675 261.263 311.161C261.201 312.1 261.93 312.883 262.605 313.543L265.19 316.065C265.856 316.829 266.705 317.414 267.657 317.764C268.155 317.885 268.674 317.891 269.175 317.784C269.676 317.676 270.147 317.458 270.552 317.144C271.034 316.769 271.426 316.292 271.7 315.747C271.615 315.165 271.545 314.575 271.436 313.993C271.353 313.244 271.087 312.527 270.66 311.906C269.838 310.881 268.503 310.742 267.293 310.625C266.408 310.464 265.595 310.033 264.965 309.391C264.402 309.251 263.817 309.216 263.242 309.29Z" fill="#FFC0BF"/>
<path d="M271.702 315.747C271.428 316.292 271.036 316.769 270.554 317.144C270.149 317.458 269.678 317.676 269.177 317.784C268.676 317.891 268.157 317.885 267.659 317.764C266.707 317.414 265.858 316.829 265.192 316.065L262.607 313.543C261.932 312.883 261.203 312.1 261.265 311.161C261.345 310.675 261.582 310.23 261.939 309.892C262.297 309.555 262.755 309.343 263.244 309.29C263.824 309.214 264.414 309.249 264.982 309.391L264.718 309.205C264.057 308.739 263.349 308.341 262.607 308.018C261.819 307.611 260.913 307.492 260.047 307.684C259.532 307.882 259.09 308.229 258.775 308.682C258.461 309.134 258.291 309.671 258.285 310.222C258.296 311.33 258.688 312.402 259.395 313.256C260.11 314.091 260.888 314.869 261.723 315.584C262.773 316.625 263.741 317.746 264.617 318.936C265.233 319.847 265.932 320.699 266.705 321.481C267.491 322.271 268.555 322.723 269.669 322.738C270.13 322.729 270.579 322.593 270.968 322.345C271.357 322.097 271.67 321.748 271.873 321.334C272.062 320.781 272.128 320.193 272.067 319.611C272.011 318.318 271.889 317.028 271.702 315.747Z" fill="#00A390"/>
<path d="M244.921 239.668C243.105 262.598 244.463 286.484 244.463 286.484C244.463 286.484 247.637 312.092 248.095 322.878C250.679 325.431 255.646 322.878 255.646 322.878C257.066 304.146 260.814 296.936 256.724 285.273L259.65 258.408L260.814 279.973L265.237 313.597C267.93 315.545 271.406 313.597 271.406 313.597C272.842 297.115 276.21 289.627 271.406 276.225C277.156 249.546 275.286 239.412 274.51 236.719L244.921 239.668Z" fill="#00A390"/>
<path opacity="0.4" d="M244.921 239.668C243.105 262.598 244.463 286.484 244.463 286.484C244.463 286.484 247.637 312.092 248.095 322.878C250.679 325.431 255.646 322.878 255.646 322.878C257.066 304.146 260.814 296.936 256.724 285.273L259.65 258.408L260.814 279.973L265.237 313.597C267.93 315.545 271.406 313.597 271.406 313.597C272.842 297.115 276.21 289.627 271.406 276.225C277.156 249.546 275.286 239.412 274.51 236.719L244.921 239.668Z" fill="black"/>
<path opacity="0.1" d="M244.921 239.668C243.105 262.598 244.463 286.484 244.463 286.484C244.463 286.484 247.637 312.092 248.095 322.878C250.679 325.431 255.646 322.878 255.646 322.878C257.066 304.146 260.814 296.936 256.724 285.273L259.65 258.408L260.814 279.973L265.237 313.597C267.93 315.545 271.406 313.597 271.406 313.597C272.842 297.115 276.21 289.627 271.406 276.225C277.156 249.546 275.286 239.412 274.51 236.719L244.921 239.668Z" fill="white"/>
<path opacity="0.2" d="M266.945 197.647C271.259 194.202 274.829 200.666 277.444 207.875C278.996 212.252 280.657 216.52 281.689 219.205C282.022 220.066 282.13 220.999 282.002 221.914C281.875 222.829 281.516 223.697 280.959 224.435L273.269 234.655L269.839 227.236L274.092 220.78L269.762 212.857L266.945 197.647Z" fill="white"/>
<path d="M252.638 199.82C256.518 198.625 267.731 196.173 270.579 198.741C273.062 200.984 274.676 208.713 271.355 218.638C270.376 221.469 270.517 224.568 271.751 227.298C273.204 230.428 274.34 233.696 275.142 237.053C266.117 246.248 250.224 244.813 244.21 240.933C244.289 233.575 244.922 226.234 246.104 218.972L252.638 199.82Z" fill="#00A390"/>
<path opacity="0.4" d="M252.638 199.82C256.518 198.625 267.731 196.173 270.579 198.741C273.062 200.984 274.676 208.713 271.355 218.638C270.376 221.469 270.517 224.568 271.751 227.298C273.204 230.428 274.34 233.696 275.142 237.053C266.117 246.248 250.224 244.813 244.21 240.933C244.289 233.575 244.922 226.234 246.104 218.972L252.638 199.82Z" fill="white"/>
<path opacity="0.1" d="M252.638 199.82C256.518 198.625 267.731 196.173 270.579 198.741C273.062 200.984 274.676 208.713 271.355 218.638C270.376 221.469 270.517 224.568 271.751 227.298C273.204 230.428 274.34 233.696 275.142 237.053C266.117 246.248 250.224 244.813 244.21 240.933C244.289 233.575 244.922 226.234 246.104 218.972L252.638 199.82Z" fill="white"/>
<path d="M249.943 179.504C248.899 178.892 248.048 177.998 247.487 176.925C246.925 175.852 246.677 174.643 246.769 173.436C246.909 172.205 247.34 171.025 248.025 169.993C248.71 168.961 249.631 168.106 250.711 167.5C251.801 166.911 252.999 166.549 254.233 166.435C255.467 166.322 256.71 166.46 257.889 166.84C259.969 167.492 261.816 168.819 263.95 169.246C265.805 169.618 267.83 169.3 269.553 170.022C271.749 170.922 273.029 173.258 273.588 175.57C274.376 178.835 274.088 182.268 272.765 185.355C271.048 188.8 268.4 191.696 265.122 193.713C262.165 197.244 256.904 194.939 254.677 191.944C252.45 188.948 249.943 179.504 249.943 179.504Z" fill="#263238"/>
<path d="M251.283 176.928C249.979 178.934 249.18 181.227 248.955 183.609C248.731 185.98 248.697 188.365 248.854 190.741C248.799 191.666 249.026 192.586 249.506 193.379C249.877 193.78 250.333 194.091 250.841 194.291C251.349 194.492 251.895 194.575 252.439 194.535C253.526 194.535 254.519 194.535 255.698 194.497L255.939 199.424C259.819 201.582 264.196 200.076 265.329 198.54L265.135 193.713C259.089 194.854 255.823 192.782 255.256 189.057C255.869 189.171 256.5 189.149 257.103 188.992C257.707 188.836 258.268 188.548 258.748 188.149C259.176 187.719 259.502 187.197 259.701 186.624C259.9 186.05 259.967 185.439 259.897 184.835C259.842 184.294 259.623 183.782 259.268 183.369C258.948 183.054 258.545 182.838 258.106 182.748C257.667 182.657 257.211 182.695 256.793 182.857C255.957 183.182 255.266 183.796 254.845 184.587C254.427 185.376 254.121 186.22 253.937 187.094C253.582 186.806 253.323 186.418 253.193 185.98C253.063 185.543 253.068 185.076 253.207 184.641C253.37 184.199 253.696 183.772 253.626 183.299C253.557 182.826 253.006 182.445 252.757 181.972C252.556 181.556 252.523 181.078 252.664 180.637C252.807 180.206 253.003 179.795 253.246 179.411C252.705 178.5 252.044 177.665 251.283 176.928Z" fill="#FFC0BF"/>
<path d="M274.564 191.02C272.415 188.785 270.769 186.115 269.737 183.19C268.709 180.249 268.671 177.053 269.629 174.088C270.171 172.419 271.178 170.938 272.531 169.82C273.208 169.266 273.994 168.862 274.837 168.633C275.681 168.405 276.564 168.357 277.427 168.493C280.151 168.99 282.083 171.597 282.596 174.344C283.108 177.091 282.394 179.861 281.509 182.484C280.407 185.759 277.877 189.794 278.312 194.419C276.946 193.422 275.69 192.282 274.564 191.02Z" fill="#263238"/>
<path d="M252.636 199.82C245.528 196.716 244.705 203.491 240.802 210.684C238.412 215.34 235.463 219.787 235.463 219.787C231.358 222.389 226.92 224.424 222.271 225.839C220.719 229.921 224.312 233.933 224.312 233.933L239.576 227.275C242.166 226.145 244.348 224.249 245.83 221.843C251.355 212.95 255.383 206.633 252.636 199.82Z" fill="#00A390"/>
<path opacity="0.2" d="M252.636 199.82C245.528 196.716 244.705 203.491 240.802 210.684C238.412 215.34 235.463 219.787 235.463 219.787C231.358 222.389 226.92 224.424 222.271 225.839C220.719 229.921 224.312 233.933 224.312 233.933L239.576 227.275C242.166 226.145 244.348 224.249 245.83 221.843C251.355 212.95 255.383 206.633 252.636 199.82Z" fill="white"/>
<path opacity="0.3" d="M269.522 247.187C267.021 249.36 263.818 250.556 260.505 250.555L259.651 258.408L260.427 272.811L261.979 251.983C263.508 251.775 264.974 251.239 266.276 250.411C267.578 249.583 268.685 248.483 269.522 247.187Z" fill="black"/>
<path d="M127.174 218.599L125.343 222.479L129.72 227.298L129.401 238.806L115.286 226.545C114.653 225.995 114.217 225.252 114.048 224.43C113.878 223.609 113.983 222.754 114.347 221.998L118.654 213.043L127.174 218.599Z" fill="#FFC0BF"/>
<path d="M122.821 225.909C123.93 224.984 124.796 223.801 125.343 222.464L126.437 223.666C125.571 224.857 124.273 225.662 122.821 225.909Z" fill="#FFC0BF"/>
<path d="M127.524 219.53C121.921 219.042 118.096 213.229 118.096 213.229C123.116 202.955 127.493 191.501 136.254 194.256L127.524 219.53Z" fill="#006EA0"/>
<path opacity="0.4" d="M127.524 219.53C121.921 219.042 118.096 213.229 118.096 213.229C123.116 202.955 127.493 191.501 136.254 194.256L127.524 219.53Z" fill="black"/>
<path d="M149.417 340.338C149.944 342.006 151.745 342.961 153.522 343.101C155.299 343.24 156.983 342.744 158.705 342.433C162.585 341.735 166.279 342.433 170.12 342.34C171.381 342.347 172.639 342.209 173.868 341.929C175.11 341.647 176.233 340.985 177.081 340.035C177.566 339.462 177.885 338.767 178.005 338.026C178.076 338.579 178.03 339.141 177.871 339.675C177.712 340.21 177.443 340.705 177.081 341.13C176.228 342.072 175.107 342.73 173.868 343.015C172.64 343.3 171.382 343.438 170.12 343.427C166.279 343.52 162.562 342.821 158.705 343.52C156.983 343.838 155.26 344.296 153.522 344.187C151.783 344.078 149.944 343.093 149.417 341.424C149.252 340.847 149.208 340.243 149.285 339.647C149.302 339.882 149.346 340.114 149.417 340.338Z" fill="#263238"/>
<path d="M149.515 337.141C149.748 335.977 149.988 334.813 150.221 333.641C150.308 333.017 150.51 332.414 150.818 331.864C150.972 331.589 151.197 331.36 151.471 331.203C151.744 331.045 152.055 330.966 152.37 330.972C154.481 330.692 157.453 329.924 159.207 331.135C161.981 333.029 165.286 333.989 168.643 333.874C170.389 333.804 172.135 333.447 173.866 333.664C175.596 333.882 177.396 334.836 177.916 336.505C178.065 337.008 178.095 337.54 178.002 338.057C177.882 338.798 177.563 339.493 177.078 340.066C176.23 341.016 175.107 341.678 173.866 341.96C172.636 342.24 171.379 342.378 170.118 342.371C166.276 342.456 162.559 341.766 158.703 342.464C156.98 342.775 155.257 343.24 153.519 343.132C151.781 343.023 149.942 342.037 149.414 340.369C149.346 340.157 149.302 339.939 149.282 339.717C149.221 338.851 149.3 337.982 149.515 337.141Z" fill="#455A64"/>
<path d="M159.72 327.472L159.867 332.035C159.885 332.502 159.719 332.958 159.406 333.305C159.094 333.653 158.658 333.865 158.191 333.897C156.661 334.01 155.125 333.994 153.597 333.851C152.983 333.789 152.41 333.509 151.983 333.062C151.556 332.616 151.303 332.031 151.269 331.414L151.091 328.046L159.72 327.472Z" fill="#FFA8A7"/>
<path opacity="0.4" d="M159.72 327.472L159.867 332.035C159.885 332.502 159.719 332.958 159.406 333.305C159.094 333.653 158.658 333.865 158.191 333.897C156.661 334.01 155.125 333.994 153.597 333.851C152.983 333.789 152.41 333.509 151.983 333.062C151.556 332.616 151.303 332.031 151.269 331.414L151.091 328.046L159.72 327.472Z" fill="black"/>
<path d="M129.939 325.035C129.956 325.71 130.169 326.365 130.552 326.921C131.092 327.579 131.859 328.011 132.701 328.132C133.708 328.304 134.742 328.19 135.687 327.802C136.631 327.413 137.447 326.766 138.04 325.936C138.614 325.105 138.94 324.127 139.484 323.274C140.306 322.138 141.32 321.153 142.479 320.364C143.641 319.576 144.662 318.597 145.498 317.469C145.899 316.917 146.161 316.276 146.263 315.6C146.364 314.925 146.301 314.235 146.08 313.589C146.186 313.744 146.28 313.908 146.359 314.078C146.615 314.754 146.699 315.483 146.605 316.199C146.51 316.916 146.239 317.597 145.816 318.183C144.957 319.345 143.907 320.352 142.712 321.163C141.528 321.979 140.496 322.995 139.662 324.166C139.103 325.043 138.77 326.052 138.188 326.906C137.588 327.757 136.76 328.422 135.799 328.823C134.838 329.224 133.783 329.345 132.756 329.171C131.892 329.047 131.108 328.6 130.56 327.922C130.068 327.143 129.844 326.225 129.923 325.307C129.923 325.229 129.931 325.144 129.939 325.035Z" fill="#263238"/>
<path d="M131.319 319.316C132.708 316.879 135.564 315.11 137.776 313.395C138.983 312.346 140.468 311.67 142.051 311.447C142.842 311.354 143.644 311.498 144.353 311.862C145.062 312.225 145.646 312.791 146.032 313.488C146.044 313.531 146.06 313.573 146.079 313.613C146.3 314.258 146.363 314.948 146.262 315.624C146.161 316.299 145.898 316.94 145.497 317.493C144.661 318.621 143.64 319.599 142.478 320.387C141.319 321.177 140.306 322.161 139.483 323.297C138.94 324.151 138.614 325.128 138.039 325.959C137.446 326.79 136.63 327.436 135.686 327.825C134.742 328.213 133.707 328.328 132.7 328.155C131.858 328.034 131.091 327.602 130.551 326.944C130.168 326.388 129.955 325.733 129.938 325.059C129.926 324.841 129.926 324.624 129.938 324.407C129.967 322.621 130.442 320.872 131.319 319.316Z" fill="#455A64"/>
<path d="M137.349 317.206V321.349C136.332 321.828 135.213 322.052 134.09 322.001C132.966 321.951 131.872 321.629 130.901 321.062L130.513 317.337L137.349 317.206Z" fill="#FFA8A7"/>
<path opacity="0.4" d="M137.349 317.206V321.349C136.332 321.828 135.213 322.052 134.09 322.001C132.966 321.951 131.872 321.629 130.901 321.062L130.513 317.337L137.349 317.206Z" fill="black"/>
<path d="M129.402 241.995C128.16 245.72 128.548 265.275 129.27 282.278C128.083 290.55 128.121 308.468 129.681 321.427C129.681 321.427 134.004 323.809 140.018 321.629L143.68 282.309L144.526 262.094C144.526 262.094 146.078 280.027 147.824 291.528C147.188 299.97 148.6 316.119 149.826 333.338C149.826 333.338 156.476 337.218 163.08 332.966C165.408 294.895 161.637 256.344 160.876 243.858L129.402 241.995Z" fill="#37474F"/>
<path opacity="0.3" d="M144.017 274.401L144.708 257.919C140.448 257.919 136.498 254.738 133.487 251.711C136.374 256.856 142.007 259.184 142.007 259.184L144.017 274.401Z" fill="black"/>
<path d="M161.52 212.624V244.898C142.516 252.86 130.2 245.674 128.532 241.926C129.401 228.788 126.297 213.415 126.538 206.889C126.778 200.363 127.578 192.999 137.704 194.473L148.468 195.521L153.9 196.848L161.52 212.624Z" fill="#006EA0"/>
<path opacity="0.3" d="M161.52 212.624V244.898C142.516 252.86 130.2 245.674 128.532 241.926C129.401 228.788 126.297 213.415 126.538 206.889C126.778 200.363 127.578 192.999 137.704 194.473L148.468 195.521L153.9 196.848L161.52 212.624Z" fill="black"/>
<path d="M171.611 210.839L175.242 214.61L183.91 203.087C182.739 200.023 182.023 196.805 181.784 193.534C181.778 193.395 181.8 193.256 181.849 193.125C181.898 192.994 181.973 192.875 182.069 192.774C182.166 192.673 182.282 192.593 182.41 192.538C182.538 192.484 182.676 192.456 182.816 192.456C183.01 192.456 183.2 192.511 183.364 192.616C183.528 192.72 183.658 192.869 183.739 193.045L185.353 196.429C185.584 196.352 185.795 196.223 185.968 196.052C186.142 195.881 186.274 195.673 186.355 195.443L186.673 194.551C186.883 193.952 186.991 193.323 186.991 192.688V190.461C186.994 190.152 187.078 189.848 187.233 189.581C187.389 189.313 187.611 189.09 187.878 188.934C188.146 188.778 188.449 188.693 188.758 188.689C189.068 188.685 189.373 188.761 189.645 188.909C190.656 189.453 191.55 190.191 192.275 191.082C192.971 191.931 193.349 192.996 193.346 194.093V197.104C193.347 197.879 193.213 198.648 192.951 199.378L191.399 203.692C191.254 204.086 191.072 204.466 190.855 204.825L179.642 223.628C179.24 224.305 178.693 224.886 178.04 225.327C177.386 225.768 176.644 226.059 175.865 226.179C175.086 226.3 174.29 226.246 173.534 226.022C172.779 225.798 172.082 225.41 171.494 224.885L164.347 218.537L171.611 210.839Z" fill="#FFC0BF"/>
<path d="M177.461 219.243C177.103 217.536 176.342 215.94 175.241 214.587L176.242 213.26C176.995 214.68 178.058 217.396 177.461 219.243Z" fill="#995E5D"/>
<path d="M177.461 219.243C177.103 217.536 176.342 215.94 175.241 214.587L176.242 213.26C176.995 214.68 178.058 217.396 177.461 219.243Z" fill="#FFC0BF"/>
<path d="M172.508 210.862L162.296 200.821C160.024 198.586 157.073 197.171 153.907 196.801H153.729C149.406 206.268 155.118 210.886 155.118 210.886L164.608 219.608C168.192 217.718 170.991 214.62 172.508 210.862Z" fill="#006EA0"/>
<path opacity="0.4" d="M172.508 210.862L162.296 200.821C160.024 198.586 157.073 197.171 153.907 196.801H153.729C149.406 206.268 155.118 210.886 155.118 210.886L164.608 219.608C168.192 217.718 170.991 214.62 172.508 210.862Z" fill="black"/>
<path d="M153.645 173.327C153.841 173.098 153.966 172.817 154.005 172.518C154.043 172.219 153.994 171.915 153.863 171.643C154.131 171.725 154.413 171.746 154.691 171.708C154.968 171.669 155.234 171.57 155.469 171.418C155.701 171.278 155.889 171.076 156.012 170.835C156.136 170.593 156.189 170.323 156.167 170.053C156.14 169.782 156.024 169.528 155.837 169.33C155.651 169.132 155.404 169.002 155.135 168.958C155.635 168.844 156.073 168.544 156.361 168.12C156.668 167.711 156.806 167.2 156.749 166.693C156.66 166.227 156.445 165.794 156.128 165.441C155.81 165.088 155.403 164.829 154.949 164.69C154.036 164.429 153.076 164.376 152.14 164.535C152.29 164.025 152.254 163.478 152.038 162.992C151.822 162.505 151.44 162.112 150.96 161.881C150.53 161.732 150.069 161.692 149.619 161.765C149.17 161.838 148.745 162.022 148.384 162.3C147.667 162.862 147.05 163.542 146.561 164.31C145.535 163.754 144.401 163.429 143.237 163.356C142.072 163.283 140.906 163.465 139.82 163.889C138.733 164.313 137.752 164.969 136.945 165.811C136.137 166.653 135.523 167.661 135.146 168.764C134.293 169.046 133.522 169.532 132.899 170.18C132.277 170.828 131.823 171.618 131.576 172.481C131.152 174.216 131.272 176.039 131.917 177.704C132.553 179.357 133.37 180.934 134.354 182.407L135.704 184.541C136.271 185.433 137.714 187.645 138.273 188.545C139.537 189.13 140.926 189.391 142.317 189.304C143.707 189.218 145.053 188.786 146.235 188.048C148.549 186.51 150.335 184.296 151.348 181.708C152.393 178.999 153.163 176.191 153.645 173.327Z" fill="#263238"/>
<path d="M141.665 189.453C140.458 189.473 139.264 189.207 138.18 188.677L136.916 186.706C136.411 185.93 135.899 185.154 135.612 184.672L135.542 184.572L134.246 182.469C133.255 180.99 132.432 179.405 131.794 177.743C131.156 176.051 131.048 174.205 131.484 172.45C131.73 171.575 132.186 170.773 132.812 170.113C133.438 169.453 134.215 168.956 135.076 168.664C135.487 167.566 136.119 166.565 136.934 165.723C137.748 164.88 138.727 164.215 139.81 163.767C140.898 163.359 142.059 163.183 143.219 163.25C144.379 163.316 145.512 163.625 146.546 164.155C147.029 163.407 147.635 162.746 148.338 162.199C148.716 161.909 149.16 161.718 149.63 161.642C150.1 161.566 150.581 161.608 151.031 161.765C151.508 161.998 151.895 162.382 152.131 162.858C152.367 163.334 152.438 163.875 152.335 164.396C153.229 164.259 154.143 164.32 155.012 164.574C155.488 164.718 155.916 164.99 156.247 165.361C156.578 165.732 156.801 166.187 156.89 166.677C156.928 166.95 156.911 167.228 156.841 167.494C156.77 167.761 156.647 168.011 156.479 168.229C156.245 168.559 155.933 168.826 155.571 169.005C155.779 169.107 155.958 169.259 156.093 169.447C156.229 169.635 156.316 169.854 156.347 170.084C156.366 170.379 156.303 170.674 156.167 170.937C156.03 171.2 155.824 171.42 155.571 171.574C155.131 171.846 154.607 171.951 154.096 171.868C154.19 172.13 154.211 172.413 154.157 172.686C154.104 172.959 153.978 173.213 153.794 173.42C153.303 176.28 152.523 179.083 151.466 181.786C150.448 184.401 148.645 186.638 146.305 188.188C144.906 189.031 143.299 189.469 141.665 189.453ZM138.32 188.452C139.562 189.024 140.927 189.277 142.291 189.189C143.656 189.101 144.976 188.674 146.134 187.947C148.421 186.413 150.188 184.221 151.202 181.662C152.256 178.961 153.036 176.161 153.53 173.304V173.265C153.713 173.055 153.83 172.795 153.864 172.519C153.899 172.242 153.85 171.962 153.724 171.713L153.6 171.449L153.879 171.542C154.129 171.618 154.392 171.638 154.651 171.602C154.909 171.566 155.157 171.474 155.377 171.333C155.59 171.203 155.762 171.017 155.876 170.795C155.99 170.573 156.04 170.324 156.021 170.076C155.991 169.834 155.885 169.607 155.717 169.43C155.55 169.252 155.33 169.133 155.09 169.09L154.197 168.989L155.082 168.858C155.549 168.754 155.96 168.477 156.23 168.082C156.377 167.893 156.484 167.677 156.547 167.447C156.609 167.216 156.626 166.976 156.595 166.739C156.511 166.296 156.306 165.885 156.004 165.551C155.701 165.217 155.312 164.973 154.88 164.846C153.984 164.593 153.043 164.542 152.125 164.698H151.931L152.001 164.512C152.133 164.029 152.094 163.516 151.89 163.059C151.686 162.602 151.331 162.23 150.884 162.005C150.471 161.867 150.031 161.832 149.602 161.904C149.173 161.976 148.769 162.152 148.424 162.417C147.716 162.97 147.108 163.639 146.623 164.396L146.569 164.481L146.476 164.434C145.463 163.901 144.35 163.587 143.208 163.514C142.066 163.44 140.921 163.608 139.849 164.008C138.786 164.443 137.826 165.096 137.031 165.924C136.236 166.753 135.623 167.739 135.232 168.819V168.881H135.17C134.339 169.16 133.588 169.636 132.982 170.269C132.375 170.901 131.93 171.671 131.685 172.512C131.263 174.221 131.369 176.018 131.988 177.665C132.626 179.302 133.443 180.864 134.425 182.321C134.844 182.996 135.27 183.671 135.697 184.346L135.767 184.455L137.071 186.48C137.56 187.256 138.041 188.001 138.32 188.452Z" fill="#272525"/>
<path d="M154.866 178.86L156.573 181.817L154.889 182.438C154.943 181.245 154.936 180.051 154.866 178.86Z" fill="#FFC0BF"/>
<path d="M153.646 173.327C154.275 175.116 154.686 176.973 154.872 178.86C154.934 180.052 154.934 181.246 154.872 182.438C154.798 184.115 154.604 185.785 154.29 187.435C154.174 188.339 153.836 189.201 153.305 189.941C152.596 190.7 151.618 191.148 150.581 191.191C149.553 191.228 148.525 191.129 147.523 190.896V195.746C143.845 196.615 140.803 196.995 137.917 194.776L138.219 188.568C139.99 188.81 141.793 188.524 143.403 187.745C145.94 186.372 146.654 184.184 146.297 182.957C146.072 183.257 145.763 183.483 145.41 183.607C145.056 183.731 144.674 183.748 144.311 183.656C143.961 183.562 143.635 183.398 143.35 183.174C143.066 182.95 142.831 182.67 142.658 182.352C142.323 181.71 142.114 181.009 142.045 180.288C141.862 179.417 141.994 178.51 142.417 177.727C142.742 177.293 143.192 176.968 143.706 176.794C144.22 176.621 144.775 176.608 145.296 176.757C146.341 177.085 147.214 177.813 147.725 178.783C147.886 179.084 148.029 179.395 148.152 179.714C148.197 179.836 148.283 179.938 148.394 180.005C148.506 180.072 148.637 180.099 148.766 180.082C148.894 180.065 149.014 180.005 149.104 179.911C149.194 179.817 149.25 179.696 149.262 179.566C149.395 178.175 149.143 176.773 148.532 175.516C148.954 175.724 149.419 175.831 149.89 175.826C150.139 175.827 150.384 175.773 150.61 175.669C150.835 175.564 151.034 175.411 151.194 175.221C151.348 175.027 151.435 174.789 151.443 174.542C151.452 174.294 151.381 174.051 151.24 173.847C152.474 174.437 153.646 173.327 153.646 173.327Z" fill="#FFC0BF"/>
</svg>
