<svg width="556" height="391" viewBox="0 0 556 391" fill="none" xmlns="http://www.w3.org/2000/svg">
<g clip-path="url(#clip0_840_22292)">
<path d="M122.21 228.816C121.116 227.584 119.776 226.681 118.308 226.184L107.563 212.707L101.896 218.956L113.414 231.957C113.903 233.616 114.744 235.109 115.86 236.301C118.617 239.332 122.271 240.112 124.024 238.042C125.777 235.972 124.972 231.846 122.223 228.821H122.213L122.21 228.816Z" fill="#F9E4D4"/>
<path d="M116.996 221.756L111.288 230.01L81.7848 204.322L81.7593 204.263L64.5186 167.259C63.8084 165.73 63.378 164.05 63.2538 162.323C63.1297 160.596 63.3144 158.857 63.7965 157.215C64.2787 155.573 65.0482 154.062 66.0575 152.775C67.0668 151.488 68.2946 150.453 69.6652 149.732C71.0358 149.012 72.5201 148.622 74.0266 148.587C75.5332 148.552 77.03 148.872 78.425 149.527C79.8199 150.183 81.0833 151.16 82.1373 152.398C83.1914 153.637 84.0137 155.111 84.5537 156.729L95.7403 190.406L116.998 221.745L116.996 221.756Z" fill="#00A390"/>
<path d="M69.1453 137.151H81.1731V159.099L67.9116 154.085L69.1453 137.151Z" fill="#F9E4D4"/>
<path d="M92.6688 127.148C92.6688 130.153 91.8942 133.09 90.443 135.588C88.9919 138.086 86.9292 140.033 84.516 141.183C82.1028 142.332 79.4474 142.633 76.8856 142.047C74.3237 141.461 71.9705 140.014 70.1235 137.89C68.2765 135.765 67.0187 133.059 66.5091 130.112C65.9996 127.165 66.2611 124.111 67.2607 121.335C68.2603 118.56 69.953 116.187 72.1248 114.518C74.2967 112.849 76.85 111.958 79.4621 111.958C82.9647 111.958 86.3238 113.558 88.8006 116.407C91.2773 119.256 92.6688 123.12 92.6688 127.148Z" fill="#F9E4D4"/>
<path d="M69.466 136.75L68.1769 139.564L62.489 127.131C59.0643 115.066 71.0253 108.138 71.0253 108.138C74.9273 102.851 82.7725 109.035 82.7725 109.035C94.0866 106.145 88.6254 117.113 88.6254 117.113C88.6254 117.113 84.7647 117.212 84.7647 120.799C84.7647 124.386 80.5626 124.14 80.5626 124.14L77.27 130.77L75.4503 128.226C68.6864 124.931 69.466 136.75 69.466 136.75Z" fill="#2F2E43"/>
<path d="M74.9546 362.036H64.2827V379.452H74.9546V362.036Z" fill="#F9E4D4"/>
<path d="M84.6235 388.999C79.9396 388.999 73.1007 388.436 73.0497 388.43C71.2202 388.618 62.0874 389.445 61.6334 387.041C61.3938 385.427 61.4915 383.77 61.9185 382.207C62.8002 372.166 63.1267 372.049 63.3203 371.984C63.6309 371.879 64.5381 372.377 66.0111 373.467L66.1027 373.537L66.1229 373.66C66.1484 373.813 66.7982 377.5 69.8943 376.94C72.0141 376.553 72.7022 376.014 72.9213 375.75C72.6936 375.635 72.4991 375.448 72.3608 375.21C72.2439 374.974 72.1729 374.711 72.1527 374.44C72.1325 374.168 72.1636 373.895 72.2437 373.639C72.6747 372.171 73.2242 370.752 73.8848 369.402L74.0221 369.12L86.1513 378.535L93.643 380.997C93.921 381.088 94.1777 381.249 94.3939 381.469C94.6101 381.689 94.7803 381.963 94.8917 382.27C95.0462 382.695 95.0822 383.164 94.9945 383.614C94.9069 384.063 94.6999 384.47 94.4024 384.779C93.042 386.185 90.3354 388.595 87.4989 388.894C86.7448 388.98 85.7461 389.005 84.6243 389.005L84.6235 388.999Z" fill="#2F2E43"/>
<path d="M32.0118 349.354L40.2397 357.174L49.8845 343.746L41.6566 335.927L32.0118 349.354Z" fill="#F9E4D4"/>
<path d="M41.6711 371.899C38.0625 368.464 33.104 363.018 33.068 362.977C31.5545 361.787 24.0574 355.727 25.0389 353.539C25.7467 352.117 26.7414 350.91 27.9392 350.022C34.1823 342.923 34.493 343.076 34.6821 343.169C34.9822 343.316 35.4054 344.359 35.936 346.282L35.9667 346.399L35.9157 346.51C35.8406 346.651 34.3054 349.975 37.0015 351.804C38.8512 353.058 39.6773 353.146 39.9932 353.105C39.8803 352.848 39.8342 352.56 39.8604 352.273C39.9018 352.006 39.9929 351.752 40.1274 351.528C40.262 351.305 40.4368 351.117 40.6401 350.979C41.7861 350.163 42.9957 349.472 44.2531 348.915L44.5128 348.798L48.6399 364.938L53.0483 372.329C53.2115 372.604 53.3192 372.917 53.3633 373.245C53.4075 373.574 53.387 373.91 53.3034 374.228C53.1865 374.669 52.9537 375.057 52.637 375.34C52.3202 375.622 51.9352 375.785 51.5348 375.805C49.7106 375.891 46.2904 375.763 43.941 373.917C43.3189 373.424 42.534 372.716 41.6681 371.895L41.6711 371.899Z" fill="#2F2E43"/>
<path d="M91.8737 226.738L75.6063 365.92H63.4051L55.271 226.738H91.879H91.8737Z" fill="#2F2E43"/>
<path d="M60.3239 302.762L36.0288 339.019L46.4253 348.896L88.1194 303.284L91.845 226.737L84.3893 234.405L60.3239 302.762Z" fill="#2F2E43"/>
<path d="M84.4009 144.863L91.8567 226.738H55.2494L52.4107 200.165C50.662 183.753 53.5723 167.131 60.7077 152.777L66.3228 141.487L84.4009 144.863Z" fill="#00A390"/>
<path d="M88.3958 250.997C87.8461 249.355 86.9534 247.893 85.7965 246.741L80.8815 229.343L73.4663 232.327L79.251 249.649C79.0948 251.393 79.3208 253.155 79.9083 254.772C81.3198 258.841 84.3678 261.297 86.7068 260.253C89.0457 259.21 89.8005 255.065 88.3883 250.997H88.3958Z" fill="#F9E4D4"/>
<path d="M85.8013 242.308L77.6319 247.091L60.0543 209.639V209.575L57.7154 167.679C57.6191 165.947 57.8325 164.211 58.3424 162.578C58.8522 160.945 59.6478 159.45 60.68 158.184C61.7121 156.919 62.9588 155.91 64.3431 155.22C65.7275 154.531 67.2201 154.175 68.7287 154.175C70.2373 154.175 71.7298 154.531 73.1142 155.22C74.4985 155.91 75.7453 156.919 76.7774 158.184C77.8095 159.45 78.6051 160.945 79.115 162.578C79.6248 164.211 79.8383 165.947 79.7419 167.679L77.77 203.654L85.799 242.314L85.8013 242.308Z" fill="#00A390"/>
<path d="M549.99 306.683H194.129C190.812 306.683 188.124 303.753 188.12 300.142V6.54261C188.124 2.93175 190.812 0.00596405 194.129 0.00170898H549.99C553.308 0.00170898 555.996 2.93175 555.999 6.54261V300.142C555.995 303.753 553.307 306.678 549.99 306.683ZM194.129 1.45353C191.549 1.45353 189.458 3.73255 189.455 6.54089V300.141C189.455 302.949 191.549 305.225 194.129 305.228H549.99C552.57 305.228 554.661 302.949 554.664 300.141V6.54089C554.664 3.73255 552.57 1.45694 549.99 1.45353H194.129Z" fill="#E6E6E6"/>
<path d="M515.387 68.1075H228.962C227.369 68.1053 225.842 67.3291 224.715 65.9492C223.589 64.5693 222.955 62.6985 222.953 60.7471V35.3945C222.955 33.4431 223.589 31.5723 224.715 30.1924C225.842 28.8126 227.369 28.0364 228.962 28.0341H515.387C516.98 28.0364 518.508 28.8126 519.634 30.1924C520.761 31.5723 521.394 33.4431 521.396 35.3945V60.7471C521.394 62.6985 520.761 64.5693 519.634 65.9492C518.508 67.3291 516.98 68.1053 515.387 68.1075ZM228.962 29.6698C227.723 29.6716 226.535 30.2753 225.659 31.3485C224.783 32.4217 224.29 33.8768 224.288 35.3945V60.7471C224.29 62.2648 224.783 63.7199 225.659 64.7931C226.535 65.8663 227.723 66.4701 228.962 66.4719H515.387C516.626 66.4701 517.814 65.8663 518.69 64.7931C519.567 63.7199 520.059 62.2648 520.061 60.7471V35.3945C520.059 33.8768 519.567 32.4217 518.69 31.3485C517.814 30.2753 516.626 29.6716 515.387 29.6698H228.962Z" fill="#3F3D56"/>
<path d="M342.464 146.391H228.962C227.369 146.388 225.842 145.612 224.715 144.232C223.589 142.852 222.955 140.982 222.953 139.03V113.678C222.955 111.726 223.589 109.855 224.715 108.475C225.842 107.096 227.369 106.319 228.962 106.317H342.464C344.057 106.319 345.584 107.096 346.711 108.475C347.837 109.855 348.471 111.726 348.473 113.678V139.03C348.471 140.982 347.837 142.852 346.711 144.232C345.584 145.612 344.057 146.388 342.464 146.391ZM228.962 107.953C227.723 107.955 226.535 108.558 225.659 109.632C224.783 110.705 224.29 112.16 224.288 113.678V139.03C224.29 140.548 224.783 142.003 225.659 143.076C226.535 144.149 227.723 144.753 228.962 144.755H342.464C343.703 144.753 344.891 144.149 345.767 143.076C346.643 142.003 347.136 140.548 347.138 139.03V113.678C347.136 112.16 346.643 110.705 345.767 109.632C344.891 108.558 343.703 107.955 342.464 107.953H228.962Z" fill="#3F3D56"/>
<path d="M515.387 146.391H401.885C400.292 146.388 398.765 145.612 397.638 144.232C396.512 142.852 395.878 140.982 395.876 139.03V113.678C395.878 111.726 396.512 109.855 397.638 108.475C398.765 107.096 400.292 106.319 401.885 106.317H515.387C516.98 106.319 518.508 107.096 519.634 108.475C520.761 109.855 521.394 111.726 521.396 113.678V139.03C521.394 140.982 520.761 142.852 519.634 144.232C518.508 145.612 516.98 146.388 515.387 146.391ZM401.885 107.953C400.646 107.955 399.458 108.558 398.582 109.632C397.706 110.705 397.213 112.16 397.212 113.678V139.03C397.213 140.548 397.706 142.003 398.582 143.076C399.458 144.15 400.646 144.753 401.885 144.755H515.387C516.626 144.753 517.814 144.149 518.69 143.076C519.566 142.003 520.059 140.548 520.061 139.03V113.678C520.059 112.16 519.566 110.705 518.69 109.632C517.814 108.558 516.626 107.955 515.387 107.953H401.885Z" fill="#3F3D56"/>
<path d="M409.485 278.752H333.372C331.867 278.75 330.425 278.017 329.361 276.713C328.297 275.41 327.698 273.643 327.697 271.8V262.804C327.699 260.961 328.297 259.195 329.361 257.891C330.425 256.588 331.867 255.855 333.372 255.853H409.485C410.989 255.855 412.432 256.588 413.495 257.891C414.559 259.195 415.158 260.961 415.16 262.804V271.8C415.158 273.643 414.56 275.41 413.496 276.713C412.432 278.017 410.989 278.75 409.485 278.752Z" fill="#E6E6E6"/>
<path d="M241.647 188.917C240.591 188.916 239.558 188.532 238.68 187.813C237.802 187.093 237.118 186.071 236.714 184.876C236.31 183.68 236.204 182.365 236.411 181.096C236.617 179.827 237.126 178.661 237.873 177.747C238.62 176.832 239.572 176.209 240.608 175.957C241.644 175.705 242.718 175.834 243.693 176.33C244.669 176.825 245.503 177.663 246.09 178.739C246.677 179.815 246.99 181.08 246.99 182.374C246.99 184.109 246.427 185.773 245.426 187C244.424 188.227 243.065 188.917 241.649 188.917H241.647ZM241.647 177.467C240.855 177.467 240.08 177.755 239.421 178.294C238.762 178.833 238.249 179.6 237.946 180.496C237.643 181.393 237.563 182.379 237.718 183.331C237.872 184.283 238.254 185.157 238.814 185.844C239.374 186.53 240.088 186.997 240.865 187.187C241.642 187.376 242.448 187.279 243.18 186.907C243.912 186.536 244.537 185.907 244.978 185.1C245.418 184.293 245.653 183.344 245.653 182.374C245.653 181.073 245.231 179.824 244.479 178.904C243.728 177.984 242.709 177.467 241.647 177.467Z" fill="#E6E6E6"/>
<path d="M241.647 210.181C240.591 210.18 239.558 209.796 238.68 209.077C237.802 208.358 237.118 207.336 236.714 206.14C236.31 204.945 236.204 203.629 236.411 202.36C236.617 201.091 237.126 199.926 237.873 199.011C238.62 198.096 239.572 197.473 240.608 197.221C241.644 196.969 242.718 197.099 243.693 197.594C244.669 198.089 245.503 198.928 246.09 200.004C246.677 201.08 246.99 202.344 246.99 203.638C246.99 205.373 246.427 207.038 245.426 208.265C244.424 209.492 243.065 210.181 241.649 210.181H241.647ZM241.647 198.731C240.855 198.731 240.08 199.019 239.421 199.558C238.762 200.097 238.249 200.864 237.946 201.76C237.643 202.657 237.563 203.644 237.718 204.596C237.872 205.547 238.254 206.422 238.814 207.108C239.374 207.794 240.088 208.262 240.865 208.451C241.642 208.64 242.448 208.543 243.18 208.172C243.912 207.8 244.537 207.171 244.978 206.364C245.418 205.557 245.653 204.609 245.653 203.638C245.653 202.337 245.231 201.089 244.479 200.169C243.728 199.248 242.709 198.731 241.647 198.731Z" fill="#E6E6E6"/>
<path d="M241.841 231.085C240.784 231.085 239.752 230.701 238.874 229.981C237.996 229.262 237.311 228.24 236.907 227.045C236.504 225.849 236.398 224.534 236.604 223.265C236.811 221.996 237.32 220.83 238.067 219.915C238.814 219.001 239.765 218.378 240.801 218.126C241.838 217.873 242.911 218.003 243.887 218.498C244.863 218.994 245.697 219.832 246.284 220.908C246.871 221.984 247.184 223.249 247.184 224.543C247.184 226.278 246.621 227.942 245.62 229.169C244.618 230.396 243.259 231.085 241.843 231.085H241.841ZM241.841 219.636C241.048 219.636 240.274 219.923 239.615 220.463C238.956 221.002 238.443 221.768 238.14 222.665C237.836 223.561 237.757 224.548 237.912 225.5C238.066 226.452 238.448 227.326 239.008 228.012C239.568 228.699 240.282 229.166 241.059 229.355C241.836 229.545 242.642 229.447 243.374 229.076C244.106 228.705 244.731 228.076 245.172 227.269C245.612 226.462 245.847 225.513 245.847 224.543C245.847 223.241 245.425 221.993 244.673 221.073C243.922 220.153 242.903 219.636 241.841 219.636Z" fill="#00A390"/>
<path d="M267.214 177.059C266.063 177.059 264.959 177.619 264.145 178.615C263.331 179.612 262.874 180.965 262.874 182.374C262.874 183.784 263.331 185.136 264.145 186.133C264.959 187.13 266.063 187.69 267.214 187.69H329.306C330.457 187.69 331.561 187.13 332.375 186.133C333.188 185.136 333.646 183.784 333.646 182.374C333.646 180.965 333.188 179.612 332.375 178.615C331.561 177.619 330.457 177.059 329.306 177.059H267.214Z" fill="#E6E6E6"/>
<path d="M267.214 198.322C266.072 198.34 264.983 198.908 264.181 199.902C263.378 200.897 262.929 202.24 262.929 203.638C262.929 205.036 263.378 206.378 264.181 207.373C264.983 208.368 266.072 208.936 267.214 208.954H329.306C330.457 208.954 331.561 208.394 332.375 207.397C333.189 206.4 333.646 205.048 333.646 203.638C333.646 202.228 333.189 200.876 332.375 199.879C331.561 198.882 330.457 198.322 329.306 198.322H267.214Z" fill="#E6E6E6"/>
<path d="M267.214 219.697C266.072 219.715 264.983 220.282 264.181 221.277C263.378 222.272 262.929 223.614 262.929 225.013C262.929 226.411 263.378 227.753 264.181 228.748C264.983 229.743 266.072 230.311 267.214 230.329H329.306C330.457 230.329 331.561 229.769 332.375 228.772C333.189 227.775 333.646 226.423 333.646 225.013C333.646 223.603 333.189 222.251 332.375 221.254C331.561 220.257 330.457 219.697 329.306 219.697H267.214Z" fill="#E6E6E6"/>
<path d="M414.904 188.917C413.848 188.917 412.815 188.533 411.937 187.814C411.058 187.095 410.374 186.073 409.97 184.878C409.565 183.682 409.46 182.367 409.666 181.098C409.872 179.828 410.38 178.663 411.127 177.748C411.874 176.833 412.826 176.21 413.862 175.957C414.898 175.705 415.972 175.834 416.948 176.329C417.924 176.825 418.758 177.663 419.345 178.739C419.932 179.815 420.246 181.08 420.246 182.374C420.246 184.109 419.683 185.773 418.681 187C417.679 188.227 416.321 188.917 414.904 188.917ZM414.904 177.467C414.112 177.467 413.337 177.755 412.679 178.294C412.02 178.833 411.506 179.6 411.203 180.496C410.9 181.393 410.821 182.379 410.975 183.331C411.13 184.283 411.511 185.157 412.072 185.844C412.632 186.53 413.346 186.997 414.123 187.187C414.9 187.376 415.705 187.279 416.437 186.907C417.169 186.536 417.795 185.907 418.235 185.1C418.675 184.293 418.91 183.344 418.91 182.374C418.91 181.73 418.807 181.091 418.605 180.496C418.404 179.901 418.109 179.36 417.737 178.904C417.365 178.449 416.923 178.087 416.437 177.841C415.951 177.594 415.43 177.467 414.904 177.467Z" fill="#E6E6E6"/>
<path d="M414.904 210.181C413.848 210.181 412.815 209.797 411.937 209.078C411.058 208.359 410.374 207.337 409.97 206.142C409.565 204.946 409.46 203.631 409.666 202.362C409.872 201.093 410.38 199.927 411.127 199.012C411.874 198.097 412.826 197.474 413.862 197.221C414.898 196.969 415.972 197.098 416.948 197.594C417.924 198.089 418.758 198.927 419.345 200.003C419.932 201.079 420.246 202.344 420.246 203.638C420.246 205.373 419.683 207.038 418.681 208.265C417.679 209.492 416.321 210.181 414.904 210.181ZM414.904 198.731C414.112 198.731 413.337 199.019 412.679 199.558C412.02 200.097 411.506 200.864 411.203 201.76C410.9 202.657 410.821 203.644 410.975 204.596C411.13 205.547 411.511 206.422 412.072 207.108C412.632 207.794 413.346 208.262 414.123 208.451C414.9 208.64 415.705 208.543 416.437 208.172C417.169 207.8 417.795 207.171 418.235 206.364C418.675 205.557 418.91 204.609 418.91 203.638C418.91 202.994 418.807 202.356 418.605 201.76C418.404 201.165 418.109 200.624 417.737 200.169C417.365 199.713 416.923 199.351 416.437 199.105C415.951 198.858 415.43 198.731 414.904 198.731Z" fill="#00A390"/>
<path d="M414.904 231.626C413.848 231.626 412.815 231.243 411.937 230.524C411.058 229.805 410.374 228.783 409.97 227.588C409.565 226.392 409.46 225.077 409.666 223.807C409.872 222.538 410.38 221.372 411.127 220.457C411.874 219.542 412.826 218.919 413.862 218.667C414.898 218.414 415.972 218.544 416.948 219.039C417.924 219.534 418.758 220.373 419.345 221.449C419.932 222.525 420.246 223.79 420.246 225.084C420.246 226.819 419.683 228.483 418.681 229.71C417.679 230.937 416.321 231.626 414.904 231.626ZM414.904 220.177C414.112 220.177 413.337 220.465 412.679 221.004C412.02 221.543 411.506 222.309 411.203 223.206C410.9 224.103 410.821 225.089 410.975 226.041C411.13 226.993 411.511 227.867 412.072 228.554C412.632 229.24 413.346 229.707 414.123 229.896C414.9 230.086 415.705 229.989 416.437 229.617C417.169 229.246 417.795 228.617 418.235 227.81C418.675 227.003 418.91 226.054 418.91 225.084C418.91 224.439 418.807 223.801 418.605 223.206C418.404 222.611 418.109 222.07 417.737 221.614C417.365 221.158 416.923 220.797 416.437 220.55C415.951 220.304 415.43 220.177 414.904 220.177Z" fill="#E6E6E6"/>
<path d="M440.275 177.059C439.124 177.059 438.02 177.619 437.207 178.615C436.393 179.612 435.936 180.965 435.936 182.374C435.936 183.784 436.393 185.136 437.207 186.133C438.02 187.13 439.124 187.69 440.275 187.69H502.368C503.519 187.69 504.622 187.13 505.436 186.133C506.25 185.136 506.707 183.784 506.707 182.374C506.707 180.965 506.25 179.612 505.436 178.615C504.622 177.619 503.519 177.059 502.368 177.059H440.275Z" fill="#E6E6E6"/>
<path d="M440.276 198.322C439.701 198.313 439.131 198.444 438.598 198.707C438.065 198.97 437.58 199.36 437.172 199.855C436.763 200.349 436.438 200.938 436.217 201.588C435.995 202.237 435.881 202.934 435.881 203.638C435.881 204.342 435.995 205.038 436.217 205.688C436.438 206.337 436.763 206.926 437.172 207.421C437.58 207.915 438.065 208.305 438.598 208.569C439.131 208.832 439.701 208.963 440.276 208.954H502.368C503.519 208.954 504.623 208.394 505.437 207.397C506.251 206.4 506.708 205.048 506.708 203.638C506.708 202.228 506.251 200.876 505.437 199.879C504.623 198.882 503.519 198.322 502.368 198.322H440.276Z" fill="#E6E6E6"/>
<path d="M440.276 219.697C439.701 219.688 439.131 219.819 438.598 220.082C438.065 220.345 437.58 220.735 437.172 221.23C436.763 221.724 436.438 222.313 436.217 222.963C435.995 223.612 435.881 224.309 435.881 225.013C435.881 225.717 435.995 226.413 436.217 227.063C436.438 227.712 436.763 228.301 437.172 228.796C437.58 229.29 438.065 229.68 438.598 229.943C439.131 230.207 439.701 230.338 440.276 230.329H502.368C503.519 230.329 504.623 229.769 505.437 228.772C506.251 227.775 506.708 226.423 506.708 225.013C506.708 223.603 506.251 222.251 505.437 221.254C504.623 220.257 503.519 219.697 502.368 219.697H440.276Z" fill="#E6E6E6"/>
<path d="M241.731 121.038C240.58 121.038 239.476 121.598 238.662 122.595C237.848 123.592 237.391 124.944 237.391 126.354C237.391 127.764 237.848 129.116 238.662 130.113C239.476 131.11 240.58 131.67 241.731 131.67H315.841C316.992 131.67 318.096 131.11 318.91 130.113C319.724 129.116 320.181 127.764 320.181 126.354C320.181 124.944 319.724 123.592 318.91 122.595C318.096 121.598 316.992 121.038 315.841 121.038H241.731Z" fill="#E6E6E6"/>
<path d="M241.731 42.7541C240.58 42.7541 239.476 43.3142 238.662 44.3111C237.848 45.308 237.391 46.6601 237.391 48.0699C237.391 49.4798 237.848 50.8319 238.662 51.8288C239.476 52.8257 240.58 53.3858 241.731 53.3858H315.841C316.992 53.3858 318.096 52.8257 318.91 51.8288C319.724 50.8319 320.181 49.4798 320.181 48.0699C320.181 46.6601 319.724 45.308 318.91 44.3111C318.096 43.3142 316.992 42.7541 315.841 42.7541H241.731Z" fill="#00A390"/>
<path d="M328.03 122.939C327.972 122.939 327.914 122.958 327.863 122.994C327.812 123.03 327.77 123.081 327.741 123.143C327.712 123.206 327.696 123.276 327.696 123.348C327.696 123.42 327.712 123.491 327.741 123.553L330.575 129.564C330.605 129.626 330.647 129.678 330.698 129.714C330.748 129.749 330.806 129.768 330.864 129.768C330.923 129.768 330.98 129.749 331.031 129.714C331.082 129.678 331.124 129.626 331.153 129.564L333.987 123.553C334.017 123.491 334.032 123.42 334.032 123.348C334.032 123.276 334.017 123.206 333.988 123.143C333.958 123.081 333.916 123.03 333.865 122.994C333.815 122.958 333.757 122.939 333.698 122.939H328.03Z" fill="#00A390"/>
<path d="M414.655 121.038C413.504 121.038 412.4 121.598 411.586 122.595C410.772 123.592 410.315 124.944 410.315 126.354C410.315 127.764 410.772 129.116 411.586 130.113C412.4 131.11 413.504 131.67 414.655 131.67H488.765C489.916 131.67 491.02 131.11 491.834 130.113C492.648 129.116 493.105 127.764 493.105 126.354C493.105 124.944 492.648 123.592 491.834 122.595C491.02 121.598 489.916 121.038 488.765 121.038H414.655Z" fill="#E6E6E6"/>
<path d="M500.953 122.939C500.894 122.939 500.837 122.958 500.786 122.994C500.735 123.03 500.693 123.081 500.664 123.143C500.634 123.206 500.619 123.276 500.619 123.348C500.619 123.42 500.635 123.491 500.664 123.553L503.498 129.564C503.527 129.626 503.569 129.678 503.62 129.714C503.671 129.75 503.729 129.769 503.787 129.769C503.846 129.769 503.904 129.75 503.954 129.714C504.005 129.678 504.047 129.626 504.077 129.564L506.91 123.553C506.939 123.491 506.955 123.42 506.955 123.348C506.955 123.276 506.94 123.206 506.91 123.143C506.881 123.081 506.839 123.03 506.788 122.994C506.737 122.958 506.679 122.939 506.621 122.939H500.953Z" fill="#00A390"/>
<path d="M414.905 206.91C416.38 206.91 417.575 205.445 417.575 203.638C417.575 201.832 416.38 200.367 414.905 200.367C413.43 200.367 412.234 201.832 412.234 203.638C412.234 205.445 413.43 206.91 414.905 206.91Z" fill="#00A390"/>
<path d="M241.844 227.926C243.319 227.926 244.515 226.462 244.515 224.655C244.515 222.848 243.319 221.384 241.844 221.384C240.369 221.384 239.173 222.848 239.173 224.655C239.173 226.462 240.369 227.926 241.844 227.926Z" fill="#00A390"/>
<path d="M151.695 390.996H0.559399C0.413844 390.989 0.275952 390.914 0.174792 390.786C0.0736312 390.657 0.0170898 390.486 0.0170898 390.308C0.0170898 390.129 0.0736312 389.958 0.174792 389.829C0.275952 389.701 0.413844 389.626 0.559399 389.62H151.695C151.84 389.626 151.978 389.701 152.079 389.829C152.18 389.958 152.237 390.129 152.237 390.308C152.237 390.486 152.18 390.657 152.079 390.786C151.978 390.914 151.84 390.989 151.695 390.996Z" fill="#F2F2F2"/>
<path d="M171.216 221.744L108.88 275.259C107.646 276.315 106.121 276.729 104.639 276.41C103.157 276.09 101.839 275.064 100.974 273.556L96.7588 266.188C95.8967 264.677 95.5589 262.81 95.8196 260.994C96.0802 259.179 96.918 257.565 98.1491 256.505L160.486 202.99C161.719 201.934 163.244 201.52 164.726 201.84C166.208 202.159 167.526 203.185 168.391 204.693L172.606 212.061C173.468 213.571 173.806 215.439 173.546 217.255C173.285 219.07 172.448 220.685 171.216 221.744Z" fill="#00ABBE"/>
</g>
<defs>
<clipPath id="clip0_840_22292">
<rect width="556" height="391" fill="white"/>
</clipPath>
</defs>
</svg>
